<?xml version="1.0" encoding="utf-8"?>
<!-- Generator: Adobe Illustrator 23.0.4, SVG Export Plug-In . SVG Version: 6.00 Build 0)  -->
<svg version="1.1" id="Layer_1" xmlns="http://www.w3.org/2000/svg" xmlns:xlink="http://www.w3.org/1999/xlink" x="0px" y="0px"
	 viewBox="0 0 280 149.2" style="enable-background:new 0 0 280 149.2;" xml:space="preserve">
<style type="text/css">
	.st0{fill:#FFFFFF;}
	.st1{fill:#34CF7C;}
</style>
<title>280-</title>
<g>
	<g>
		<path class="st0" d="M138.6,22.8c0.2,0,0.3,0,0.5-0.1l2.7-1.6c0.5-0.3,0.6-0.8,0.4-1.3s-0.8-0.6-1.3-0.4l0,0l-2.7,1.6
			c-0.5,0.3-0.6,0.8-0.4,1.3C137.9,22.6,138.2,22.8,138.6,22.8L138.6,22.8z"/>
		<path class="st0" d="M145.4,18.9c0.2,0,0.3,0,0.5-0.1l2.7-1.6c0.5-0.3,0.6-0.8,0.4-1.3s-0.8-0.6-1.3-0.4l0,0l-2.7,1.6
			c-0.5,0.3-0.6,0.8-0.4,1.3C144.7,18.7,145,18.9,145.4,18.9L145.4,18.9z"/>
		<path class="st0" d="M145.2,24.4c0.2,0.3,0.5,0.5,0.8,0.5c0.5,0,1-0.4,0.9-1c0-0.2,0-0.3-0.1-0.5l-1.6-2.7
			c-0.3-0.5-0.8-0.6-1.3-0.4s-0.6,0.8-0.4,1.3l0,0L145.2,24.4z"/>
		<path class="st0" d="M141.3,17.6c0.3,0.5,0.8,0.6,1.3,0.4s0.6-0.8,0.4-1.3l-1.6-2.7c-0.3-0.5-0.8-0.6-1.3-0.3s-0.6,0.8-0.3,1.3
			L141.3,17.6z"/>
		<path class="st0" d="M111.7,86.4c-0.5,0-1,0.3-1,0.8c0,0,0,0,0,0.1l-0.1,3.1c0,0.5,0.4,1,0.9,1h0c0.5,0,0.9-0.4,1-0.9l0.1-3.1
			C112.6,86.9,112.2,86.4,111.7,86.4C111.7,86.4,111.7,86.4,111.7,86.4z"/>
		<path class="st0" d="M112,78.6c-0.5,0-1,0.4-1,0.9c0,0,0,0,0,0l-0.1,3.1c0,0.5,0.4,1,0.9,1h0c0.5,0,0.9-0.4,1-0.9l0.1-3.1
			C112.9,79.1,112.5,78.6,112,78.6C112,78.6,112,78.6,112,78.6z"/>
		<path class="st0" d="M117.2,84.3l-3.1-0.1h0c-0.5,0-1,0.4-1,0.9c0,0.5,0.4,1,0.9,1l3.1,0.1h0c0.5,0,1-0.4,1-0.9
			C118.2,84.8,117.8,84.3,117.2,84.3z"/>
		<path class="st0" d="M109.4,84l-3.1-0.1c-0.5,0-0.9,0.3-1,0.8c0,0,0,0,0,0.1c0,0.5,0.4,1,0.9,1l3.1,0.1h0c0.5,0,1-0.4,1-0.9
			C110.4,84.4,109.9,84,109.4,84L109.4,84z"/>
		<path class="st0" d="M97.8,64.6c-0.8,0-1.4,0.7-1.4,1.5c0,0.7,0.6,1.3,1.4,1.4c0.8,0,1.4-0.7,1.4-1.5
			C99.1,65.2,98.6,64.6,97.8,64.6z"/>
		<path class="st0" d="M173.2,93.3c-0.8,0-1.4,0.7-1.4,1.5c0,0.7,0.6,1.3,1.4,1.4c0.8,0,1.4-0.7,1.4-1.5
			C174.5,93.9,173.9,93.3,173.2,93.3z"/>
		<path class="st0" d="M182.2,58.6c-0.8,0-1.4,0.7-1.4,1.5c0,0.7,0.6,1.3,1.4,1.4c0.8,0,1.4-0.7,1.4-1.5
			C183.5,59.3,182.9,58.7,182.2,58.6z"/>
		<path class="st0" d="M172.4,37.2c-0.4,0.4-0.4,1,0,1.3c0,0,0,0,0,0l6.8,6.8l-6.8,6.8c-0.4,0.4-0.4,1,0,1.3c0.4,0.4,0.9,0.4,1.3,0
			l7.4-7.4c0.4-0.4,0.4-1,0-1.3l-7.4-7.4C173.4,36.9,172.8,36.9,172.4,37.2z"/>
		<path class="st0" d="M132.1,37.2c-0.4-0.4-1-0.4-1.3,0l-7.4,7.4c-0.4,0.4-0.4,1,0,1.3l7.4,7.4c0.4,0.4,1,0.4,1.3,0
			c0.4-0.4,0.4-1,0-1.3c0,0,0,0,0,0l-6.8-6.8l6.8-6.8C132.4,38.2,132.4,37.6,132.1,37.2z"/>
		<path class="st0" d="M143.3,68.4c-0.8,0-1.4,0.7-1.4,1.5c0,0.7,0.6,1.3,1.4,1.4c0.8,0,1.4-0.7,1.4-1.5
			C144.6,69,144,68.4,143.3,68.4z"/>
		<path class="st0" d="M152.4,71.3c0.8,0,1.4-0.7,1.4-1.5c0-0.7-0.6-1.3-1.4-1.4c-0.8,0-1.4,0.7-1.4,1.5
			C151,70.6,151.6,71.2,152.4,71.3z"/>
		<path class="st0" d="M162,71.3c0.8,0,1.4-0.7,1.4-1.5c0-0.7-0.6-1.3-1.4-1.4c-0.8,0-1.4,0.7-1.4,1.5
			C160.7,70.6,161.3,71.2,162,71.3z"/>
		<path class="st0" d="M153.3,48c1.4-1.1,3-2,4.6-2.6c2.2-0.9,4.3-2.2,6.1-3.7c0,0,0,0,0.1-0.1c0.8-0.7,1.6-1.5,2.3-2.4
			c0.3-0.3,0.5-0.7,0.8-1c0,0,0,0,0,0c4.5-6.5,6.8-19.3,6.9-19.9c0,0,0,0,0-0.1c0,0,0-0.1,0-0.1c0,0,0-0.1,0-0.1c0-0.1,0-0.1,0-0.1
			c0,0,0-0.1,0-0.1c0,0,0-0.1-0.1-0.1c0,0-0.1-0.1-0.1-0.1c0,0,0-0.1-0.1-0.1c0,0,0,0,0,0c0,0,0,0-0.1,0c0,0-0.1-0.1-0.1-0.1
			c0,0,0,0-0.1,0c0,0,0,0,0,0c0,0-0.1,0-0.1,0c0,0,0,0-0.1,0c0,0,0,0-0.1,0c0,0-0.1,0-0.1,0c0,0-0.1,0-0.1,0c-0.1,0-0.1,0-0.2,0
			c0,0-0.1,0-0.1,0c0,0-0.1,0-0.1,0.1c0,0-0.1,0.1-0.1,0.1c0,0,0,0-0.1,0.1c0,0,0,0,0,0c-3.3,3.4-7,6.5-11,9.2
			c-2.6,1.7-5.3,3.2-8.1,4.4c-3.6,1.7-6.9,3.2-10.2,6.8l-10.6-10.6l0,0l-5.3-5.3c-0.6-0.5-1.5-0.5-2,0L99,48.3c-0.6,0.6-0.6,1.5,0,2
			l5.3,5.3l0,0l47.1,47.1c0.6,0.6,1.5,0.6,2,0c0,0,0,0,0,0l26.3-26.3c0.6-0.6,0.6-1.5,0-2L153.3,48z M157.1,43.6
			c-2.7,1.2-5.5,2.5-8,6.2l-2.3-0.5c-0.5-0.1-1,0.2-1.1,0.7c-0.1,0.5,0.2,1,0.7,1.1l1.6,0.4c-0.4,0.8-0.9,1.5-1.4,2.2
			c-0.3-0.1-0.8-0.2-1.2-0.2c-1.7-0.4-2.2-0.5-2.7,0.1c-0.2,0.2-0.3,0.5-0.2,0.8c0.1,0.6,0.6,0.9,1.7,1.6l0.3,0.2
			c-2.1,1.9-3.7,1.7-4.5,1.3c1.4-2.8,3.1-6,5.3-9.6c1.6-2.6,3.7-4.8,6.1-6.5l0,0l3.6,0.8c0.5,0.1,1-0.2,1.1-0.7s-0.2-1-0.7-1.1
			c0,0,0,0,0,0l-1.7-0.4c0.7-0.4,1.5-0.9,2.2-1.3c4.6-2.6,9.7-5.5,14.5-13.3c-0.5,1.7-1,3.4-1.6,5.2l-1-0.2c-0.5-0.1-1,0.2-1.1,0.7
			c-0.1,0.5,0.2,1,0.7,1.1l0,0l0.7,0.2c-0.6,1.5-1.4,3-2.2,4.4l-2.2-0.5c-0.5-0.1-1,0.2-1.1,0.7s0.2,1,0.7,1.1l1.3,0.3
			c-0.5,0.6-1,1.1-1.6,1.6l-3.6-0.8c-0.5-0.1-1,0.2-1.1,0.7c-0.1,0.5,0.2,1,0.7,1.1l2.1,0.5C159.9,42.3,158.6,43,157.1,43.6
			L157.1,43.6z M146,37.8l-0.5,2.3c-0.1,0.5,0.2,1,0.7,1.1c0.5,0.1,1-0.2,1.1-0.7c0,0,0,0,0,0l1-4.6c0.9-0.6,1.8-1.1,2.7-1.6
			l-0.4,1.6c-0.1,0.5,0.2,1,0.7,1.1c0.5,0.1,1-0.2,1.1-0.7l0,0l0.7-3.1l1-0.5c2.9-1.3,5.7-2.8,8.4-4.6c1-0.7,2-1.4,3-2.1
			c0.1,0.4,0.4,0.6,0.7,0.7c0.1,0,0.1,0,0.2,0c0.4,0,0.8-0.3,0.9-0.7l0.4-1.8c0.7-0.6,1.4-1.2,2.1-1.8c-2.3,4.3-5.5,8.1-9.5,11
			l0.3-1.4c0.1-0.5-0.2-1-0.7-1.1c-0.5-0.1-1,0.2-1.1,0.7l0,0l-0.7,3.3c-1,0.6-2,1.2-3,1.8c-3.7,2.1-7.1,4-10.2,8.2l0.2-0.8
			c0.1-0.5-0.2-1-0.7-1.1c-0.5-0.1-1,0.2-1.1,0.7l-1.3,5.6c0,0.1,0,0.2,0,0.4c-1.2,2.1-2.2,4-3.1,5.8c-0.8-2.2-1.3-6.6,2.7-12.6
			C142.8,41.1,144.3,39.4,146,37.8z M111.3,41.6l6.6-6.6c0.6-0.5,1.5-0.5,2,0c0.5,0.6,0.5,1.4,0,2l-6.6,6.6c-0.6,0.5-1.5,0.5-2,0
			C110.8,43,110.8,42.1,111.3,41.6L111.3,41.6z M165.5,87.9c-1.3,1.3-3.5,1.3-4.8,0s-1.3-3.5,0-4.8c1.3-1.3,3.5-1.3,4.8,0
			C166.8,84.5,166.8,86.6,165.5,87.9C165.5,87.9,165.5,87.9,165.5,87.9z M147.1,94.3l-19.9-19.9l-19.9-19.9l24.3-24.3l9.8,9.8
			c-0.4,0.6-0.9,1.2-1.4,1.9c-4.2,6.3-3.9,11.1-3.1,13.9l-1.8-0.9c-0.5-0.2-1,0-1.3,0.5c-0.2,0.4,0,1,0.4,1.2l1.7,0.9l-2,0.3
			c-0.5,0.1-0.9,0.6-0.8,1.1c0.1,0.5,0.5,0.8,0.9,0.8c0.1,0,0.1,0,0.2,0l2.8-0.4c-1.5,3.4-2.9,6.9-4,10.4l-0.2,0.5
			c-0.2,0.4,0,0.9,0.5,1.2c0.1,0.1,0.3,0.1,0.4,0.1c0.3,0,0.6-0.1,0.8-0.4c0.7-1,1.5-2,2.5-2.9c1.4-0.9,2-1.8,2-2.8
			c-0.1-1-0.7-1.8-1.5-2.3c0.4-0.9,0.8-1.8,1.2-2.8l0.7,2.3c0.1,0.4,0.5,0.7,0.9,0.7c0.1,0,0.2,0,0.3,0c0.5-0.1,0.8-0.7,0.6-1.2
			l-0.6-1.9l1.6,1.2c0.4,0.3,1,0.2,1.3-0.2c0.3-0.4,0.2-1-0.2-1.3l-0.8-0.6c1.6-0.5,3.1-1.4,4.1-2.7c0.3-0.3,0.3-0.7,0.2-1
			c0.4,0.1,0.8-0.1,1-0.4c0.7-0.9,1.3-1.9,1.9-2.9c0.5-0.8,1-1.6,1.6-2.3l20,20L147.1,94.3z M137.1,65.5c0,0,0,0.4-0.9,1
			c0.2-0.5,0.4-1,0.6-1.5C137,65.2,137.1,65.4,137.1,65.5L137.1,65.5z"/>
	</g>
	<g>
		<g>
			<path class="st1" d="M34.4,122.9h2.3l1.6,6.2h0l2-6.2h2l2,6.4h0l1.6-6.4h2.2l-2.8,9.7h-1.9l-2.1-6.7h0l-2.1,6.7h-1.8L34.4,122.9z
				"/>
			<path class="st1" d="M55,131.5c-0.3,0.4-0.7,0.7-1.3,1s-1,0.3-1.6,0.3c-0.5,0-1-0.1-1.5-0.2c-0.5-0.2-0.8-0.4-1.2-0.7
				s-0.6-0.7-0.8-1.1c-0.2-0.4-0.3-0.9-0.3-1.4c0-0.5,0.1-1,0.3-1.4c0.2-0.4,0.5-0.8,0.8-1.1c0.3-0.3,0.7-0.5,1.2-0.7
				c0.5-0.2,0.9-0.2,1.5-0.2c0.5,0,0.9,0.1,1.3,0.2c0.4,0.2,0.7,0.4,1,0.7c0.3,0.3,0.5,0.7,0.6,1.1c0.1,0.4,0.2,0.9,0.2,1.4v0.6
				h-4.8c0.1,0.4,0.3,0.7,0.5,0.9c0.3,0.2,0.6,0.4,1,0.4c0.3,0,0.6-0.1,0.9-0.2c0.2-0.2,0.4-0.3,0.6-0.6L55,131.5z M53.2,128.5
				c0-0.3-0.1-0.6-0.3-0.9c-0.2-0.2-0.5-0.4-0.9-0.4c-0.2,0-0.4,0-0.6,0.1c-0.2,0.1-0.3,0.2-0.4,0.3c-0.1,0.1-0.2,0.2-0.3,0.4
				c-0.1,0.2-0.1,0.3-0.1,0.5H53.2z"/>
			<path class="st1" d="M56.7,122.2h2.1v4.4h0c0.2-0.3,0.5-0.5,0.9-0.7c0.4-0.1,0.8-0.2,1.2-0.2c0.5,0,0.9,0.1,1.3,0.3
				s0.7,0.5,1,0.8c0.3,0.3,0.5,0.7,0.6,1.1c0.1,0.4,0.2,0.9,0.2,1.3c0,0.5-0.1,1-0.2,1.4c-0.2,0.4-0.4,0.8-0.7,1.1
				c-0.3,0.3-0.6,0.5-1,0.7c-0.4,0.2-0.9,0.3-1.3,0.3c-0.2,0-0.5,0-0.7-0.1c-0.2-0.1-0.4-0.1-0.6-0.2c-0.2-0.1-0.3-0.2-0.5-0.3
				c-0.1-0.1-0.2-0.2-0.3-0.4h0v0.9h-1.9V122.2z M58.6,129.3c0,0.5,0.1,0.9,0.4,1.2c0.3,0.3,0.7,0.5,1.2,0.5c0.5,0,0.9-0.2,1.2-0.5
				c0.3-0.3,0.4-0.7,0.4-1.2c0-0.5-0.1-0.9-0.4-1.2c-0.3-0.3-0.7-0.5-1.2-0.5c-0.5,0-0.9,0.2-1.2,0.5
				C58.8,128.4,58.6,128.8,58.6,129.3z"/>
			<path class="st1" d="M69,127.9c-0.3-0.4-0.7-0.6-1.2-0.6c-0.2,0-0.3,0-0.5,0.1c-0.2,0.1-0.2,0.2-0.2,0.4c0,0.2,0.1,0.3,0.3,0.4
				s0.4,0.1,0.6,0.2c0.3,0.1,0.5,0.1,0.8,0.2c0.3,0.1,0.6,0.2,0.8,0.3c0.3,0.1,0.5,0.3,0.6,0.6c0.2,0.3,0.3,0.6,0.3,1
				c0,0.4-0.1,0.8-0.3,1.1c-0.2,0.3-0.4,0.5-0.7,0.7c-0.3,0.2-0.6,0.3-1,0.4c-0.4,0.1-0.7,0.1-1.1,0.1c-0.5,0-0.9-0.1-1.4-0.2
				c-0.5-0.1-0.9-0.4-1.2-0.7l1.3-1.4c0.2,0.2,0.4,0.4,0.6,0.5s0.5,0.2,0.8,0.2c0.2,0,0.5,0,0.6-0.1c0.2-0.1,0.3-0.2,0.3-0.4
				c0-0.2-0.1-0.3-0.3-0.4c-0.2-0.1-0.4-0.2-0.6-0.2c-0.3-0.1-0.5-0.1-0.8-0.2c-0.3-0.1-0.6-0.2-0.8-0.3c-0.3-0.1-0.5-0.3-0.6-0.6
				s-0.3-0.6-0.3-1c0-0.4,0.1-0.7,0.2-1c0.2-0.3,0.4-0.5,0.6-0.7c0.3-0.2,0.6-0.3,0.9-0.4c0.3-0.1,0.7-0.1,1-0.1
				c0.4,0,0.9,0.1,1.3,0.2c0.4,0.1,0.8,0.4,1.1,0.7L69,127.9z"/>
			<path class="st1" d="M71.5,123.8c0-0.3,0.1-0.6,0.4-0.8c0.2-0.2,0.5-0.4,0.8-0.4s0.6,0.1,0.8,0.4c0.2,0.2,0.4,0.5,0.4,0.8
				s-0.1,0.6-0.4,0.8c-0.2,0.2-0.5,0.4-0.8,0.4s-0.6-0.1-0.8-0.4C71.6,124.4,71.5,124.2,71.5,123.8z M71.6,125.9h2.1v6.7h-2.1V125.9
				z"/>
			<path class="st1" d="M79.7,127.6h-1.8v2.2c0,0.2,0,0.4,0,0.5c0,0.2,0.1,0.3,0.1,0.4c0.1,0.1,0.2,0.2,0.3,0.3s0.3,0.1,0.5,0.1
				c0.1,0,0.3,0,0.4,0c0.2,0,0.3-0.1,0.4-0.2v1.7c-0.2,0.1-0.5,0.1-0.7,0.2c-0.2,0-0.5,0-0.7,0c-0.3,0-0.7,0-1-0.1
				c-0.3-0.1-0.5-0.2-0.8-0.4c-0.2-0.2-0.4-0.4-0.5-0.6s-0.2-0.6-0.2-0.9v-3.2h-1.3v-1.7h1.3v-2h2.1v2h1.8V127.6z"/>
			<path class="st1" d="M87.1,131.5c-0.3,0.4-0.7,0.7-1.3,1s-1,0.3-1.6,0.3c-0.5,0-1-0.1-1.5-0.2c-0.5-0.2-0.8-0.4-1.2-0.7
				s-0.6-0.7-0.8-1.1c-0.2-0.4-0.3-0.9-0.3-1.4c0-0.5,0.1-1,0.3-1.4c0.2-0.4,0.5-0.8,0.8-1.1c0.3-0.3,0.7-0.5,1.2-0.7
				c0.5-0.2,0.9-0.2,1.5-0.2c0.5,0,0.9,0.1,1.3,0.2c0.4,0.2,0.7,0.4,1,0.7c0.3,0.3,0.5,0.7,0.6,1.1c0.1,0.4,0.2,0.9,0.2,1.4v0.6
				h-4.8c0.1,0.4,0.3,0.7,0.5,0.9c0.3,0.2,0.6,0.4,1,0.4c0.3,0,0.6-0.1,0.9-0.2c0.2-0.2,0.4-0.3,0.6-0.6L87.1,131.5z M85.4,128.5
				c0-0.3-0.1-0.6-0.3-0.9c-0.2-0.2-0.5-0.4-0.9-0.4c-0.2,0-0.4,0-0.6,0.1c-0.2,0.1-0.3,0.2-0.4,0.3c-0.1,0.1-0.2,0.2-0.3,0.4
				c-0.1,0.2-0.1,0.3-0.1,0.5H85.4z"/>
			<path class="st1" d="M92.5,127.9c-0.3-0.4-0.7-0.6-1.2-0.6c-0.2,0-0.3,0-0.5,0.1c-0.2,0.1-0.2,0.2-0.2,0.4c0,0.2,0.1,0.3,0.3,0.4
				s0.4,0.1,0.6,0.2c0.3,0.1,0.5,0.1,0.8,0.2c0.3,0.1,0.6,0.2,0.8,0.3c0.3,0.1,0.5,0.3,0.6,0.6c0.2,0.3,0.3,0.6,0.3,1
				c0,0.4-0.1,0.8-0.3,1.1c-0.2,0.3-0.4,0.5-0.7,0.7c-0.3,0.2-0.6,0.3-1,0.4c-0.4,0.1-0.7,0.1-1.1,0.1c-0.5,0-0.9-0.1-1.4-0.2
				c-0.5-0.1-0.9-0.4-1.2-0.7l1.3-1.4c0.2,0.2,0.4,0.4,0.6,0.5s0.5,0.2,0.8,0.2c0.2,0,0.5,0,0.6-0.1c0.2-0.1,0.3-0.2,0.3-0.4
				c0-0.2-0.1-0.3-0.3-0.4c-0.2-0.1-0.4-0.2-0.6-0.2c-0.3-0.1-0.5-0.1-0.8-0.2c-0.3-0.1-0.6-0.2-0.8-0.3c-0.3-0.1-0.5-0.3-0.6-0.6
				s-0.3-0.6-0.3-1c0-0.4,0.1-0.7,0.2-1c0.2-0.3,0.4-0.5,0.6-0.7c0.3-0.2,0.6-0.3,0.9-0.4c0.3-0.1,0.7-0.1,1-0.1
				c0.4,0,0.9,0.1,1.3,0.2c0.4,0.1,0.8,0.4,1.1,0.7L92.5,127.9z"/>
			<path class="st1" d="M103.3,131.8L103.3,131.8c-0.3,0.4-0.6,0.6-0.9,0.8c-0.4,0.2-0.8,0.2-1.2,0.2c-0.3,0-0.6,0-0.9-0.1
				s-0.5-0.2-0.8-0.4c-0.2-0.2-0.4-0.4-0.5-0.6c-0.1-0.3-0.2-0.6-0.2-0.9c0-0.4,0.1-0.7,0.2-1c0.1-0.3,0.3-0.5,0.6-0.7
				c0.2-0.2,0.5-0.3,0.8-0.4c0.3-0.1,0.6-0.2,1-0.2s0.7-0.1,1-0.1c0.3,0,0.6,0,0.9,0c0-0.4-0.1-0.7-0.4-0.9
				c-0.3-0.2-0.6-0.3-0.9-0.3c-0.3,0-0.6,0.1-0.9,0.2s-0.5,0.3-0.8,0.6l-1.1-1.1c0.4-0.4,0.8-0.6,1.3-0.8c0.5-0.2,1-0.3,1.6-0.3
				c0.6,0,1.1,0.1,1.5,0.2c0.4,0.2,0.7,0.4,0.9,0.7c0.2,0.3,0.4,0.7,0.5,1.1s0.1,0.9,0.1,1.5v3.4h-1.9V131.8z M102.8,129.7
				c-0.2,0-0.4,0-0.6,0c-0.2,0-0.5,0.1-0.7,0.1c-0.2,0.1-0.4,0.2-0.5,0.3c-0.2,0.1-0.2,0.3-0.2,0.5c0,0.2,0.1,0.4,0.3,0.5
				c0.2,0.1,0.4,0.2,0.7,0.2c0.2,0,0.4,0,0.6-0.1c0.2-0.1,0.4-0.1,0.5-0.2c0.1-0.1,0.3-0.2,0.4-0.4s0.1-0.3,0.1-0.6v-0.4H102.8z"/>
			<path class="st1" d="M106.5,125.9h2v0.9h0c0.1-0.1,0.2-0.3,0.3-0.4c0.1-0.1,0.3-0.2,0.4-0.3c0.2-0.1,0.4-0.2,0.6-0.2
				c0.2-0.1,0.4-0.1,0.7-0.1c0.5,0,0.9,0.1,1.3,0.2c0.3,0.2,0.6,0.4,0.8,0.7s0.3,0.6,0.4,1c0.1,0.4,0.1,0.8,0.1,1.3v3.7h-2.1v-3.3
				c0-0.2,0-0.4,0-0.6s-0.1-0.4-0.1-0.6c-0.1-0.2-0.2-0.3-0.3-0.4c-0.1-0.1-0.3-0.2-0.6-0.2c-0.3,0-0.5,0-0.6,0.1s-0.3,0.2-0.4,0.4
				c-0.1,0.2-0.1,0.3-0.2,0.5c0,0.2,0,0.4,0,0.6v3.3h-2.1V125.9z"/>
			<path class="st1" d="M121.4,132.6h-1.9v-0.9h0c-0.1,0.1-0.2,0.2-0.3,0.4c-0.1,0.1-0.3,0.2-0.5,0.3s-0.4,0.2-0.6,0.2
				c-0.2,0.1-0.4,0.1-0.7,0.1c-0.5,0-0.9-0.1-1.3-0.3c-0.4-0.2-0.8-0.4-1-0.7c-0.3-0.3-0.5-0.7-0.7-1.1c-0.2-0.4-0.2-0.9-0.2-1.4
				c0-0.5,0.1-0.9,0.2-1.3c0.1-0.4,0.3-0.8,0.6-1.1s0.6-0.6,1-0.8s0.8-0.3,1.3-0.3c0.4,0,0.8,0.1,1.2,0.2c0.4,0.1,0.7,0.4,0.9,0.7h0
				v-4.4h2.1V132.6z M119.5,129.3c0-0.5-0.1-0.9-0.4-1.2c-0.3-0.3-0.7-0.5-1.2-0.5c-0.5,0-0.9,0.2-1.2,0.5c-0.3,0.3-0.4,0.7-0.4,1.2
				c0,0.5,0.1,0.9,0.4,1.2c0.3,0.3,0.7,0.5,1.2,0.5c0.5,0,0.9-0.2,1.2-0.5C119.4,130.2,119.5,129.8,119.5,129.3z"/>
			<path class="st1" d="M130.6,122.9h1.8l4.2,9.7h-2.4l-0.8-2.1h-3.8l-0.8,2.1h-2.4L130.6,122.9z M131.4,125.7l-1.2,3h2.4
				L131.4,125.7z"/>
			<path class="st1" d="M137.5,125.9h1.9v0.9h0c0.1-0.1,0.2-0.2,0.3-0.4c0.1-0.1,0.3-0.2,0.5-0.3c0.2-0.1,0.4-0.2,0.6-0.2
				c0.2-0.1,0.4-0.1,0.7-0.1c0.5,0,0.9,0.1,1.3,0.3s0.8,0.4,1,0.7c0.3,0.3,0.5,0.7,0.7,1.1c0.2,0.4,0.2,0.9,0.2,1.4
				c0,0.5-0.1,0.9-0.2,1.3c-0.1,0.4-0.3,0.8-0.6,1.1c-0.3,0.3-0.6,0.6-1,0.8s-0.8,0.3-1.3,0.3c-0.4,0-0.8-0.1-1.2-0.2
				c-0.4-0.1-0.7-0.4-0.9-0.7h0v3.9h-2.1V125.9z M139.4,129.3c0,0.5,0.1,0.9,0.4,1.2c0.3,0.3,0.7,0.5,1.2,0.5c0.5,0,0.9-0.2,1.2-0.5
				c0.3-0.3,0.4-0.7,0.4-1.2c0-0.5-0.1-0.9-0.4-1.2c-0.3-0.3-0.7-0.5-1.2-0.5c-0.5,0-0.9,0.2-1.2,0.5
				C139.6,128.4,139.4,128.8,139.4,129.3z"/>
			<path class="st1" d="M146.2,125.9h1.9v0.9h0c0.1-0.1,0.2-0.2,0.3-0.4c0.1-0.1,0.3-0.2,0.5-0.3c0.2-0.1,0.4-0.2,0.6-0.2
				c0.2-0.1,0.4-0.1,0.7-0.1c0.5,0,0.9,0.1,1.3,0.3s0.8,0.4,1,0.7c0.3,0.3,0.5,0.7,0.7,1.1c0.2,0.4,0.2,0.9,0.2,1.4
				c0,0.5-0.1,0.9-0.2,1.3c-0.1,0.4-0.3,0.8-0.6,1.1c-0.3,0.3-0.6,0.6-1,0.8s-0.8,0.3-1.3,0.3c-0.4,0-0.8-0.1-1.2-0.2
				c-0.4-0.1-0.7-0.4-0.9-0.7h0v3.9h-2.1V125.9z M148.1,129.3c0,0.5,0.1,0.9,0.4,1.2c0.3,0.3,0.7,0.5,1.2,0.5c0.5,0,0.9-0.2,1.2-0.5
				c0.3-0.3,0.4-0.7,0.4-1.2c0-0.5-0.1-0.9-0.4-1.2c-0.3-0.3-0.7-0.5-1.2-0.5c-0.5,0-0.9,0.2-1.2,0.5
				C148.2,128.4,148.1,128.8,148.1,129.3z"/>
			<path class="st1" d="M159,122.9h3.2c0.8,0,1.5,0.1,2.2,0.3c0.7,0.2,1.3,0.5,1.8,0.8c0.5,0.4,0.9,0.9,1.2,1.5s0.5,1.4,0.5,2.3
				c0,0.8-0.1,1.5-0.4,2.1c-0.3,0.6-0.7,1.1-1.2,1.5s-1.1,0.7-1.7,0.9c-0.7,0.2-1.4,0.3-2.1,0.3H159V122.9z M161.2,130.6h1.1
				c0.5,0,1-0.1,1.4-0.2c0.4-0.1,0.8-0.3,1.1-0.5c0.3-0.2,0.6-0.5,0.7-0.9c0.2-0.4,0.3-0.8,0.3-1.4c0-0.5-0.1-0.9-0.3-1.2
				c-0.2-0.4-0.4-0.6-0.7-0.9c-0.3-0.2-0.7-0.4-1.1-0.5s-0.8-0.2-1.3-0.2h-1.3V130.6z"/>
			<path class="st1" d="M175.5,131.5c-0.3,0.4-0.7,0.7-1.3,1s-1,0.3-1.6,0.3c-0.5,0-1-0.1-1.5-0.2c-0.5-0.2-0.8-0.4-1.2-0.7
				s-0.6-0.7-0.8-1.1c-0.2-0.4-0.3-0.9-0.3-1.4c0-0.5,0.1-1,0.3-1.4c0.2-0.4,0.5-0.8,0.8-1.1c0.3-0.3,0.7-0.5,1.2-0.7
				c0.5-0.2,0.9-0.2,1.5-0.2c0.5,0,0.9,0.1,1.3,0.2c0.4,0.2,0.7,0.4,1,0.7c0.3,0.3,0.5,0.7,0.6,1.1c0.1,0.4,0.2,0.9,0.2,1.4v0.6
				h-4.8c0.1,0.4,0.3,0.7,0.5,0.9c0.3,0.2,0.6,0.4,1,0.4c0.3,0,0.6-0.1,0.9-0.2c0.2-0.2,0.4-0.3,0.6-0.6L175.5,131.5z M173.8,128.5
				c0-0.3-0.1-0.6-0.3-0.9c-0.2-0.2-0.5-0.4-0.9-0.4c-0.2,0-0.4,0-0.6,0.1c-0.2,0.1-0.3,0.2-0.4,0.3c-0.1,0.1-0.2,0.2-0.3,0.4
				c-0.1,0.2-0.1,0.3-0.1,0.5H173.8z"/>
			<path class="st1" d="M176.4,125.9h2.2l1.7,4.5h0l1.6-4.5h2.1l-2.6,6.7h-2.2L176.4,125.9z"/>
			<path class="st1" d="M191.1,131.5c-0.3,0.4-0.7,0.7-1.3,1s-1,0.3-1.6,0.3c-0.5,0-1-0.1-1.5-0.2c-0.5-0.2-0.8-0.4-1.2-0.7
				s-0.6-0.7-0.8-1.1c-0.2-0.4-0.3-0.9-0.3-1.4c0-0.5,0.1-1,0.3-1.4c0.2-0.4,0.5-0.8,0.8-1.1c0.3-0.3,0.7-0.5,1.2-0.7
				c0.5-0.2,0.9-0.2,1.5-0.2c0.5,0,0.9,0.1,1.3,0.2c0.4,0.2,0.7,0.4,1,0.7c0.3,0.3,0.5,0.7,0.6,1.1c0.1,0.4,0.2,0.9,0.2,1.4v0.6
				h-4.8c0.1,0.4,0.3,0.7,0.5,0.9c0.3,0.2,0.6,0.4,1,0.4c0.3,0,0.6-0.1,0.9-0.2c0.2-0.2,0.4-0.3,0.6-0.6L191.1,131.5z M189.3,128.5
				c0-0.3-0.1-0.6-0.3-0.9c-0.2-0.2-0.5-0.4-0.9-0.4c-0.2,0-0.4,0-0.6,0.1c-0.2,0.1-0.3,0.2-0.4,0.3c-0.1,0.1-0.2,0.2-0.3,0.4
				c-0.1,0.2-0.1,0.3-0.1,0.5H189.3z"/>
			<path class="st1" d="M192.7,122.2h2.1v10.4h-2.1V122.2z"/>
			<path class="st1" d="M196,129.3c0-0.5,0.1-1,0.3-1.4c0.2-0.4,0.5-0.8,0.8-1.1c0.3-0.3,0.7-0.5,1.2-0.7c0.5-0.2,0.9-0.2,1.5-0.2
				s1,0.1,1.5,0.2c0.5,0.2,0.8,0.4,1.2,0.7c0.3,0.3,0.6,0.7,0.8,1.1c0.2,0.4,0.3,0.9,0.3,1.4c0,0.5-0.1,1-0.3,1.4
				c-0.2,0.4-0.5,0.8-0.8,1.1s-0.7,0.5-1.2,0.7c-0.5,0.2-0.9,0.2-1.5,0.2s-1-0.1-1.5-0.2c-0.5-0.2-0.8-0.4-1.2-0.7
				c-0.3-0.3-0.6-0.7-0.8-1.1C196.1,130.3,196,129.8,196,129.3z M198,129.3c0,0.5,0.1,0.9,0.4,1.2c0.3,0.3,0.7,0.5,1.2,0.5
				c0.5,0,0.9-0.2,1.2-0.5c0.3-0.3,0.4-0.7,0.4-1.2c0-0.5-0.1-0.9-0.4-1.2c-0.3-0.3-0.7-0.5-1.2-0.5c-0.5,0-0.9,0.2-1.2,0.5
				C198.2,128.4,198,128.8,198,129.3z"/>
			<path class="st1" d="M204.8,125.9h1.9v0.9h0c0.1-0.1,0.2-0.2,0.3-0.4c0.1-0.1,0.3-0.2,0.5-0.3c0.2-0.1,0.4-0.2,0.6-0.2
				c0.2-0.1,0.4-0.1,0.7-0.1c0.5,0,0.9,0.1,1.3,0.3s0.8,0.4,1,0.7c0.3,0.3,0.5,0.7,0.7,1.1c0.2,0.4,0.2,0.9,0.2,1.4
				c0,0.5-0.1,0.9-0.2,1.3c-0.1,0.4-0.3,0.8-0.6,1.1c-0.3,0.3-0.6,0.6-1,0.8s-0.8,0.3-1.3,0.3c-0.4,0-0.8-0.1-1.2-0.2
				c-0.4-0.1-0.7-0.4-0.9-0.7h0v3.9h-2.1V125.9z M206.7,129.3c0,0.5,0.1,0.9,0.4,1.2c0.3,0.3,0.7,0.5,1.2,0.5c0.5,0,0.9-0.2,1.2-0.5
				c0.3-0.3,0.4-0.7,0.4-1.2c0-0.5-0.1-0.9-0.4-1.2c-0.3-0.3-0.7-0.5-1.2-0.5c-0.5,0-0.9,0.2-1.2,0.5
				C206.9,128.4,206.7,128.8,206.7,129.3z"/>
			<path class="st1" d="M213.3,125.9h2v0.9h0c0.1-0.1,0.2-0.3,0.3-0.4c0.1-0.1,0.3-0.2,0.4-0.3c0.2-0.1,0.4-0.2,0.6-0.2
				c0.2-0.1,0.4-0.1,0.7-0.1c0.5,0,0.9,0.1,1.2,0.3c0.4,0.2,0.6,0.5,0.8,0.9c0.2-0.4,0.5-0.7,0.9-0.9c0.3-0.2,0.8-0.3,1.3-0.3
				c0.4,0,0.8,0.1,1.1,0.2c0.3,0.2,0.6,0.4,0.7,0.6c0.2,0.3,0.3,0.6,0.4,0.9s0.1,0.7,0.1,1.1v4h-2.1v-3.9c0-0.3-0.1-0.6-0.2-0.8
				c-0.1-0.2-0.4-0.3-0.7-0.3c-0.2,0-0.4,0-0.6,0.1c-0.2,0.1-0.3,0.2-0.4,0.3s-0.2,0.3-0.2,0.5c0,0.2-0.1,0.4-0.1,0.6v3.5h-2.1v-3.5
				c0-0.1,0-0.3,0-0.4c0-0.2,0-0.3-0.1-0.5c-0.1-0.2-0.1-0.3-0.3-0.4s-0.3-0.2-0.5-0.2c-0.3,0-0.5,0-0.6,0.1s-0.3,0.2-0.4,0.4
				c-0.1,0.2-0.1,0.3-0.2,0.5c0,0.2,0,0.4,0,0.6v3.3h-2.1V125.9z"/>
			<path class="st1" d="M231.6,131.5c-0.3,0.4-0.7,0.7-1.3,1s-1,0.3-1.6,0.3c-0.5,0-1-0.1-1.5-0.2c-0.5-0.2-0.8-0.4-1.2-0.7
				s-0.6-0.7-0.8-1.1c-0.2-0.4-0.3-0.9-0.3-1.4c0-0.5,0.1-1,0.3-1.4c0.2-0.4,0.5-0.8,0.8-1.1c0.3-0.3,0.7-0.5,1.2-0.7
				c0.5-0.2,0.9-0.2,1.5-0.2c0.5,0,0.9,0.1,1.3,0.2c0.4,0.2,0.7,0.4,1,0.7c0.3,0.3,0.5,0.7,0.6,1.1c0.1,0.4,0.2,0.9,0.2,1.4v0.6
				h-4.8c0.1,0.4,0.3,0.7,0.5,0.9c0.3,0.2,0.6,0.4,1,0.4c0.3,0,0.6-0.1,0.9-0.2c0.2-0.2,0.4-0.3,0.6-0.6L231.6,131.5z M229.9,128.5
				c0-0.3-0.1-0.6-0.3-0.9c-0.2-0.2-0.5-0.4-0.9-0.4c-0.2,0-0.4,0-0.6,0.1c-0.2,0.1-0.3,0.2-0.4,0.3c-0.1,0.1-0.2,0.2-0.3,0.4
				c-0.1,0.2-0.1,0.3-0.1,0.5H229.9z"/>
			<path class="st1" d="M233.2,125.9h2v0.9h0c0.1-0.1,0.2-0.3,0.3-0.4c0.1-0.1,0.3-0.2,0.4-0.3c0.2-0.1,0.4-0.2,0.6-0.2
				c0.2-0.1,0.4-0.1,0.7-0.1c0.5,0,0.9,0.1,1.3,0.2c0.3,0.2,0.6,0.4,0.8,0.7s0.3,0.6,0.4,1c0.1,0.4,0.1,0.8,0.1,1.3v3.7h-2.1v-3.3
				c0-0.2,0-0.4,0-0.6s-0.1-0.4-0.1-0.6c-0.1-0.2-0.2-0.3-0.3-0.4c-0.1-0.1-0.3-0.2-0.6-0.2c-0.3,0-0.5,0-0.6,0.1s-0.3,0.2-0.4,0.4
				c-0.1,0.2-0.1,0.3-0.2,0.5c0,0.2,0,0.4,0,0.6v3.3h-2.1V125.9z"/>
			<path class="st1" d="M245.6,127.6h-1.8v2.2c0,0.2,0,0.4,0,0.5c0,0.2,0.1,0.3,0.1,0.4c0.1,0.1,0.2,0.2,0.3,0.3s0.3,0.1,0.5,0.1
				c0.1,0,0.3,0,0.4,0c0.2,0,0.3-0.1,0.4-0.2v1.7c-0.2,0.1-0.5,0.1-0.7,0.2c-0.2,0-0.5,0-0.7,0c-0.3,0-0.7,0-1-0.1
				c-0.3-0.1-0.5-0.2-0.8-0.4c-0.2-0.2-0.4-0.4-0.5-0.6s-0.2-0.6-0.2-0.9v-3.2h-1.3v-1.7h1.3v-2h2.1v2h1.8V127.6z"/>
		</g>
	</g>
</g>
</svg>
