<?xml version="1.0" encoding="utf-8"?>
<!-- Generator: Adobe Illustrator 23.0.4, SVG Export Plug-In . SVG Version: 6.00 Build 0)  -->
<svg version="1.1" id="Layer_1" xmlns="http://www.w3.org/2000/svg" xmlns:xlink="http://www.w3.org/1999/xlink" x="0px" y="0px"
	 viewBox="0 0 280 149.2" style="enable-background:new 0 0 280 149.2;" xml:space="preserve">
<style type="text/css">
	.st0{fill:#FFFFFF;}
	.st1{fill:#34CF7C;}
</style>
<title>280-</title>
<path class="st0" d="M163.7,60.4c-0.3,0-0.6-0.2-0.7-0.5c-0.1-0.4,0.1-0.8,0.5-1l3.2-1.1c0.4-0.1,0.8,0.1,1,0.5
	c0.1,0.4-0.1,0.8-0.5,1l-3.2,1.1C163.8,60.4,163.8,60.4,163.7,60.4z M160.7,61.5l3.2-1.1c0.4-0.1,0.6-0.6,0.5-1
	c-0.1-0.4-0.6-0.6-1-0.5l-3.2,1.1c-0.4,0.1-0.6,0.6-0.5,1c0.1,0.3,0.4,0.5,0.7,0.5C160.6,61.5,160.7,61.5,160.7,61.5z M163.9,60.4
	c0.4-0.1,0.6-0.6,0.5-1l-1.1-3.2c-0.1-0.4-0.6-0.6-1-0.5c-0.4,0.1-0.6,0.6-0.5,1l1.1,3.2c0.1,0.3,0.4,0.5,0.7,0.5
	C163.8,60.4,163.8,60.4,163.9,60.4z M165,63.6c0.4-0.1,0.6-0.6,0.5-1l-1.1-3.2c-0.1-0.4-0.6-0.6-1-0.5c-0.4,0.1-0.6,0.6-0.5,1
	l1.1,3.2c0.1,0.3,0.4,0.5,0.7,0.5C164.8,63.6,164.9,63.6,165,63.6z M126.1,37.5l3.3-0.3c0.4,0,0.7-0.4,0.7-0.8
	c0-0.4-0.4-0.7-0.8-0.7L126,36c-0.4,0-0.7,0.4-0.7,0.8C125.3,37.2,125.6,37.5,126.1,37.5C126.1,37.5,126.1,37.5,126.1,37.5z
	 M129.4,37.3l3.3-0.3c0.4,0,0.7-0.4,0.7-0.8c0-0.4-0.4-0.7-0.8-0.7l-3.3,0.3c-0.4,0-0.7,0.4-0.7,0.8C128.7,37,129,37.3,129.4,37.3
	C129.4,37.3,129.4,37.3,129.4,37.3z M129.7,40.6c0.4,0,0.7-0.4,0.7-0.8l-0.3-3.3c0-0.4-0.4-0.7-0.8-0.7c-0.4,0-0.7,0.4-0.7,0.8
	l0.3,3.3C128.9,40.3,129.3,40.6,129.7,40.6C129.7,40.6,129.7,40.6,129.7,40.6z M129.4,37.3c0.4,0,0.7-0.4,0.7-0.8l-0.3-3.3
	c0-0.4-0.4-0.7-0.8-0.7c-0.4,0-0.7,0.4-0.7,0.8l0.3,3.3C128.7,37,129,37.3,129.4,37.3C129.4,37.3,129.4,37.3,129.4,37.3z
	 M109.4,58.6l3.3-0.4c0.4-0.1,0.7-0.4,0.7-0.8s-0.4-0.7-0.8-0.7l-3.3,0.4c-0.4,0.1-0.7,0.4-0.7,0.8
	C108.6,58.3,108.9,58.6,109.4,58.6C109.3,58.6,109.4,58.6,109.4,58.6z M112.7,58.2l3.3-0.4c0.4-0.1,0.7-0.4,0.7-0.8
	c-0.1-0.4-0.4-0.7-0.8-0.7l-3.3,0.4c-0.4,0.1-0.7,0.4-0.7,0.8C111.9,57.9,112.2,58.2,112.7,58.2C112.7,58.2,112.7,58.2,112.7,58.2z
	 M113.1,61.5c0.4-0.1,0.7-0.4,0.7-0.8l-0.4-3.3c-0.1-0.4-0.4-0.7-0.8-0.7c-0.4,0.1-0.7,0.4-0.7,0.8l0.4,3.3
	C112.3,61.2,112.7,61.5,113.1,61.5C113.1,61.5,113.1,61.5,113.1,61.5z M112.7,58.2c0.4-0.1,0.7-0.4,0.7-0.8L113,54
	c-0.1-0.4-0.4-0.7-0.8-0.7c-0.4,0.1-0.7,0.4-0.7,0.8l0.4,3.3C111.9,57.9,112.2,58.2,112.7,58.2C112.7,58.2,112.7,58.2,112.7,58.2z
	 M122.9,24.5v-7.8c0-0.3-0.2-0.5-0.5-0.5s-0.5,0.2-0.5,0.5v7.8c0,0.3,0.2,0.5,0.5,0.5S122.9,24.8,122.9,24.5z M122.9,69.3V47.4
	c0-0.3-0.2-0.5-0.5-0.5s-0.5,0.2-0.5,0.5v21.9c0,0.3,0.2,0.5,0.5,0.5S122.9,69.6,122.9,69.3z M140.5,69.3V57.1
	c0-0.3-0.2-0.5-0.5-0.5s-0.5,0.2-0.5,0.5v12.2c0,0.3,0.2,0.5,0.5,0.5S140.5,69.6,140.5,69.3z M140.5,50.2V29.8
	c0-0.3-0.2-0.5-0.5-0.5s-0.5,0.2-0.5,0.5v20.4c0,0.3,0.2,0.5,0.5,0.5S140.5,50.5,140.5,50.2z M140.5,23.4v-3.7
	c0-0.3-0.2-0.5-0.5-0.5s-0.5,0.2-0.5,0.5v3.7c0,0.3,0.2,0.5,0.5,0.5S140.5,23.7,140.5,23.4z M158.1,52V32.9c0-0.3-0.2-0.5-0.5-0.5
	c-0.3,0-0.5,0.2-0.5,0.5V52c0,0.3,0.2,0.5,0.5,0.5C157.8,52.5,158.1,52.3,158.1,52z M158.1,22.9v-6.1c0-0.3-0.2-0.5-0.5-0.5
	c-0.3,0-0.5,0.2-0.5,0.5v6.1c0,0.3,0.2,0.5,0.5,0.5C157.8,23.4,158.1,23.2,158.1,22.9z M158.1,69.3v-8.4c0-0.3-0.2-0.5-0.5-0.5
	c-0.3,0-0.5,0.2-0.5,0.5v8.4c0,0.3,0.2,0.5,0.5,0.5C157.8,69.8,158.1,69.6,158.1,69.3z M140.1,46.3l8.1-1.5c0.3-0.1,0.5-0.3,0.4-0.6
	c-0.1-0.3-0.3-0.5-0.6-0.4l-8,1.5l-3.3-0.6c-0.3-0.1-0.5,0.1-0.6,0.4c-0.1,0.3,0.1,0.5,0.4,0.6l3.4,0.6
	C139.9,46.3,140,46.3,140.1,46.3C140,46.3,140.1,46.3,140.1,46.3z M175.6,46c0.1-0.3-0.1-0.5-0.4-0.6l-3.4-0.6
	c-0.3-0.1-0.5,0.1-0.6,0.4c-0.1,0.3,0.1,0.5,0.4,0.6l3.4,0.6c0,0,0.1,0,0.1,0C175.3,46.4,175.5,46.2,175.6,46z M175.6,24.8
	c0.1-0.3-0.1-0.5-0.4-0.6l-9-1.7c-0.3-0.1-0.5,0.1-0.6,0.4c-0.1,0.3,0.1,0.5,0.4,0.6l9,1.7c0,0,0.1,0,0.1,0
	C175.3,25.2,175.5,25,175.6,24.8z M167.6,44.4c0.1-0.3-0.1-0.5-0.4-0.6l-9.3-1.8c-0.3-0.1-0.5,0.1-0.6,0.4c-0.1,0.3,0.1,0.5,0.4,0.6
	l9.3,1.8c0,0,0.1,0,0.1,0C167.4,44.8,167.6,44.7,167.6,44.4z M153.6,43.9l4.1-0.8c0.3-0.1,0.5-0.3,0.4-0.6c-0.1-0.3-0.3-0.5-0.6-0.4
	l-4.1,0.8c-0.3,0.1-0.5,0.3-0.4,0.6C153,43.7,153.2,43.9,153.6,43.9C153.5,43.9,153.5,43.9,153.6,43.9z M105,46.3l10.2-1.9
	c0.3-0.1,0.5-0.3,0.4-0.6c-0.1-0.3-0.3-0.5-0.6-0.4l-10.2,1.9c-0.3,0.1-0.5,0.3-0.4,0.6C104.4,46.2,104.6,46.3,105,46.3
	C104.9,46.3,104.9,46.3,105,46.3z M105,50.6l4.4-0.8c0.3-0.1,0.5-0.3,0.4-0.6c-0.1-0.3-0.3-0.5-0.6-0.4l-4.4,0.8
	c-0.3,0.1-0.5,0.3-0.4,0.6C104.4,50.5,104.6,50.6,105,50.6C104.9,50.6,104.9,50.6,105,50.6z M132.9,44.5c0.1-0.3-0.1-0.5-0.4-0.6
	l-9.6-1.8V27.9c0-0.3-0.2-0.5-0.5-0.5s-0.5,0.2-0.5,0.5v14.6c0,0.2,0.2,0.5,0.4,0.5l10,1.9c0,0,0.1,0,0.1,0
	C132.7,44.9,132.9,44.7,132.9,44.5z M157.2,68.1c-3.7,0.7-7.5,1.4-11.2,2.1c-1.9,0.4-3.9,0.5-5.8,1.1c-0.7,0.2-0.5,0,0,0.1
	c-0.6-0.1-1.1-0.2-1.7-0.3c-4.5-0.9-9.1-1.7-13.6-2.6c-1-0.2-2-0.5-3-0.4c-1.5,0.1-3,0.6-4.5,0.8c-4.3,0.8-8.7,1.6-13,2.4
	c0.5,0.4,1.1,0.8,1.6,1.2c0-15.4,0-30.8,0-46.2c0-2.2,0-4.4,0-6.6c-0.3,0.4-0.6,0.8-0.9,1.2c5.1-1,10.2-1.9,15.4-2.9
	c0.7-0.1,1.4-0.3,2.2-0.4c-1.2,0.2,0.3,0.2,1,0.3c3,0.6,6.1,1.1,9.1,1.7c2.2,0.4,4.5,1.1,6.8,1.3c1.6,0.1,3.3-0.5,4.9-0.8
	c3.3-0.6,6.6-1.2,9.9-1.9c1-0.2,2-0.3,3-0.6c0.9-0.3-0.7-0.3,0.5,0c5.5,1.3,11.3,2.1,16.9,3.2c-0.3-0.4-0.6-0.8-0.9-1.2
	c0,15.4,0,30.8,0,46.2c0,2.2,0,4.4,0,6.6c0.5-0.4,1.1-0.8,1.6-1.2c-5.9-1.1-11.7-2.2-17.6-3.2c-1.6-0.3-2.3,2.1-0.7,2.4
	c5.9,1.1,11.7,2.2,17.6,3.2c0.8,0.1,1.6-0.3,1.6-1.2c0-15.4,0-30.8,0-46.2c0-2.2,0-4.4,0-6.6c0-0.5-0.4-1.1-0.9-1.2
	c-5.2-1-10.5-2-15.7-3c-4.1-0.8-8.5,0.8-12.6,1.5c-2.5,0.5-5,0.9-7.4,1.4c-0.5,0.1,0.8,0.1,0.4,0c-0.3-0.1-0.6-0.1-0.9-0.2
	c-1.3-0.2-2.6-0.5-4-0.7c-3.3-0.6-6.6-1.2-9.8-1.9c-1.4-0.3-2.6-0.6-4-0.4c-5.7,0.8-11.3,2.1-17,3.2c-0.5,0.1-0.9,0.7-0.9,1.2
	c0,15.4,0,30.8,0,46.2c0,2.2,0,4.4,0,6.6c0,0.9,0.8,1.4,1.6,1.2c3.7-0.7,7.5-1.4,11.2-2.1c1.9-0.3,3.9-0.5,5.8-1.1
	c0.7-0.2,0.5,0,0-0.1c0.6,0.1,1.1,0.2,1.7,0.3c4.5,0.9,9.1,1.7,13.6,2.6c1,0.2,2,0.5,3,0.4c1.5-0.1,3-0.6,4.5-0.8
	c4.3-0.8,8.7-1.6,13-2.5C159.5,70.2,158.8,67.8,157.2,68.1z M112.1,25.6c-2,0-3.6,1.6-3.6,3.6s1.6,3.6,3.6,3.6s3.6-1.6,3.6-3.6
	S114.1,25.6,112.1,25.6z M129.4,59.6c-2,0-3.6,1.6-3.6,3.6c0,2,1.6,3.6,3.6,3.6c2,0,3.6-1.6,3.6-3.6C133,61.2,131.4,59.6,129.4,59.6
	z M162.4,31.9c2,0,3.6-1.6,3.6-3.6s-1.6-3.6-3.6-3.6c-2,0-3.6,1.6-3.6,3.6S160.5,31.9,162.4,31.9z M167.3,54.8
	c3.9-6.7,4-14.7,0.4-21.3c-0.2-0.4-0.7-0.5-1-0.3c-0.4,0.2-0.5,0.7-0.3,1c3.4,6.1,3.2,13.5-0.4,19.8c-0.2,0.4-0.1,0.8,0.3,1
	c0.1,0.1,0.2,0.1,0.4,0.1C166.9,55.2,167.1,55.1,167.3,54.8z M117.6,52.2c2.9-5.5,2.3-12.3-1.5-17.4c-0.3-0.3-0.7-0.4-1.1-0.2
	c-0.3,0.3-0.4,0.7-0.2,1.1c3.5,4.6,4,10.8,1.4,15.8c-0.2,0.4-0.1,0.8,0.3,1c0.1,0.1,0.2,0.1,0.4,0.1
	C117.2,52.6,117.4,52.4,117.6,52.2z M133.6,32.7c5.1-6.8,14.2-9.4,21.8-6.1c0.4,0.2,0.8,0,1-0.4c0.2-0.4,0-0.8-0.4-1
	c-8.1-3.6-18.1-0.8-23.6,6.6c-0.2,0.3-0.2,0.8,0.2,1.1c0.1,0.1,0.3,0.2,0.5,0.2C133.2,33,133.4,32.9,133.6,32.7z M132.9,58.6
	c7.1-6.6,18.4-6.8,26.3-0.6c0.3,0.3,0.8,0.2,1.1-0.1c0.3-0.3,0.2-0.8-0.1-1.1c-8.5-6.7-20.7-6.4-28.3,0.7c-0.3,0.3-0.3,0.8,0,1.1
	c0.1,0.2,0.4,0.2,0.6,0.2C132.6,58.8,132.8,58.8,132.9,58.6z M138.6,7.9c0.4,0,0.8-0.3,0.8-0.8l0-3.4c0-0.4-0.3-0.8-0.8-0.8
	c-0.4,0-0.8,0.3-0.8,0.8l0,3.4C137.9,7.6,138.2,7.9,138.6,7.9C138.6,7.9,138.6,7.9,138.6,7.9z M143,9.4l2.7-2.7
	c0.3-0.3,0.3-0.8,0-1.1c-0.3-0.3-0.8-0.3-1.1,0l-2.7,2.7c-0.3,0.3-0.3,0.8,0,1.1c0.1,0.1,0.3,0.2,0.5,0.2
	C142.6,9.6,142.8,9.6,143,9.4z M134.8,9.3c0.3-0.3,0.3-0.8,0-1.1L132.8,6c-0.3-0.3-0.8-0.3-1.1,0c-0.3,0.3-0.3,0.8,0,1.1l2.1,2.3
	c0.1,0.2,0.4,0.2,0.6,0.2C134.5,9.5,134.7,9.5,134.8,9.3z M133,33l2.3-0.2c0.4,0,0.7-0.4,0.7-0.8c0-0.4-0.4-0.7-0.8-0.7l-1.6,0.1
	l-0.3-1.5c-0.1-0.4-0.5-0.7-0.9-0.6c-0.4,0.1-0.7,0.5-0.6,0.9l0.4,2.2C132.3,32.7,132.6,33,133,33C133,33,133,33,133,33z
	 M157.7,58.7l2.2-0.5c0.4-0.1,0.6-0.5,0.6-0.8l-0.3-2.3c-0.1-0.4-0.4-0.7-0.9-0.6c-0.4,0.1-0.7,0.4-0.6,0.9l0.2,1.6l-1.5,0.4
	c-0.4,0.1-0.7,0.5-0.5,0.9c0.1,0.3,0.4,0.6,0.7,0.6C157.6,58.8,157.7,58.7,157.7,58.7z M167.1,36.3l0.4-1.5l1.5,0.3
	c0.4,0.1,0.8-0.2,0.9-0.6c0.1-0.4-0.2-0.8-0.6-0.9l-2.2-0.4c-0.4-0.1-0.8,0.2-0.9,0.5l-0.6,2.2c-0.1,0.4,0.1,0.8,0.5,0.9
	c0.1,0,0.1,0,0.2,0C166.7,36.9,167,36.7,167.1,36.3z M115.7,37.4l0.2-1.6l1.6,0c0.4,0,0.8-0.3,0.8-0.7c0-0.4-0.3-0.8-0.7-0.8l-2.2,0
	c0,0,0,0,0,0c-0.4,0-0.7,0.3-0.8,0.7l-0.3,2.3c0,0.4,0.3,0.8,0.7,0.8c0,0,0.1,0,0.1,0C115.3,38,115.6,37.8,115.7,37.4z M149.1,61.5
	c-0.5,0-0.9,0.4-0.9,0.9s0.4,0.9,0.9,0.9s0.9-0.4,0.9-0.9S149.6,61.5,149.1,61.5z M127.7,49.7c-0.5,0-0.9,0.4-0.9,0.9
	s0.4,0.9,0.9,0.9c0.5,0,0.9-0.4,0.9-0.9S128.2,49.7,127.7,49.7z M146.8,29.2c-0.8,0-1.4,0.6-1.4,1.4s0.6,1.4,1.4,1.4
	c0.8,0,1.4-0.6,1.4-1.4S147.6,29.2,146.8,29.2z M128.6,22.4c-0.8,0-1.4,0.6-1.4,1.4s0.6,1.4,1.4,1.4c0.8,0,1.4-0.6,1.4-1.4
	S129.4,22.4,128.6,22.4z M109.6,64.7c-0.8,0-1.4,0.6-1.4,1.4s0.6,1.4,1.4,1.4s1.4-0.6,1.4-1.4S110.3,64.7,109.6,64.7z M170.4,65.1
	c-0.8,0-1.4,0.6-1.4,1.4c0,0.8,0.6,1.4,1.4,1.4c0.8,0,1.4-0.6,1.4-1.4C171.8,65.8,171.2,65.1,170.4,65.1z M140,84.1
	c-18,0-32.5,1.8-32.5,3.9s14.6,3.9,32.5,3.9s32.5-1.8,32.5-3.9S158,84.1,140,84.1z M163.1,91.3c10-1.2,10-2.7,10-3.3
	c0-0.6,0-2.1-10-3.3c-6.2-0.7-14.3-1.2-23.1-1.2S123.1,84,117,84.7c-10,1.2-10,2.7-10,3.3c0,0.6,0,2.1,10,3.3
	c6.2,0.7,14.3,1.2,23.1,1.2C148.7,92.4,156.9,92,163.1,91.3z M172,88c-0.2,1.2-11.1,3.4-32,3.4c-20.9,0-31.8-2.2-32-3.4
	c0.2-1.2,11.1-3.4,32-3.4C160.9,84.6,171.8,86.8,172,88z M172,88L172,88L172,88z"/>
<g>
	<g>
		<path class="st1" d="M66,116.3c-0.2-0.3-0.5-0.5-0.8-0.6c-0.3-0.1-0.7-0.2-1.1-0.2c-0.4,0-0.8,0.1-1.1,0.2
			c-0.3,0.2-0.6,0.4-0.9,0.7c-0.3,0.3-0.4,0.6-0.6,1s-0.2,0.8-0.2,1.2c0,0.5,0.1,0.9,0.2,1.3s0.3,0.7,0.6,1c0.2,0.3,0.5,0.5,0.9,0.7
			c0.3,0.2,0.7,0.2,1.1,0.2c0.4,0,0.8-0.1,1.2-0.3s0.6-0.4,0.8-0.8l1.8,1.3c-0.4,0.6-0.9,1-1.6,1.3c-0.6,0.3-1.3,0.4-1.9,0.4
			c-0.8,0-1.5-0.1-2.1-0.4c-0.6-0.2-1.2-0.6-1.7-1c-0.5-0.4-0.8-1-1.1-1.6c-0.3-0.6-0.4-1.3-0.4-2.1c0-0.8,0.1-1.5,0.4-2.1
			c0.3-0.6,0.6-1.2,1.1-1.6c0.5-0.4,1-0.8,1.7-1c0.6-0.2,1.3-0.4,2.1-0.4c0.3,0,0.6,0,0.9,0.1c0.3,0,0.6,0.1,0.9,0.2
			c0.3,0.1,0.6,0.3,0.8,0.4s0.5,0.4,0.7,0.7L66,116.3z"/>
		<path class="st1" d="M68.6,120.2c0-0.5,0.1-1,0.3-1.4c0.2-0.4,0.5-0.8,0.8-1.1c0.3-0.3,0.7-0.5,1.2-0.7s0.9-0.2,1.4-0.2
			c0.5,0,1,0.1,1.4,0.2s0.8,0.4,1.2,0.7c0.3,0.3,0.6,0.7,0.8,1.1c0.2,0.4,0.3,0.9,0.3,1.4c0,0.5-0.1,1-0.3,1.4
			c-0.2,0.4-0.5,0.8-0.8,1.1c-0.3,0.3-0.7,0.5-1.2,0.7s-0.9,0.2-1.4,0.2c-0.5,0-1-0.1-1.4-0.2s-0.8-0.4-1.2-0.7
			c-0.3-0.3-0.6-0.7-0.8-1.1C68.7,121.2,68.6,120.7,68.6,120.2z M70.6,120.2c0,0.5,0.1,0.9,0.4,1.2c0.3,0.3,0.7,0.5,1.2,0.5
			s0.9-0.2,1.2-0.5c0.3-0.3,0.4-0.7,0.4-1.2c0-0.5-0.1-0.9-0.4-1.2c-0.3-0.3-0.7-0.5-1.2-0.5s-0.9,0.2-1.2,0.5
			C70.8,119.3,70.6,119.7,70.6,120.2z"/>
		<path class="st1" d="M77.2,116.8h2v0.9h0c0.1-0.1,0.2-0.3,0.3-0.4c0.1-0.1,0.3-0.2,0.4-0.3s0.4-0.2,0.6-0.2
			c0.2-0.1,0.4-0.1,0.7-0.1c0.5,0,0.9,0.1,1.3,0.2c0.3,0.2,0.6,0.4,0.7,0.7c0.2,0.3,0.3,0.6,0.4,1c0.1,0.4,0.1,0.8,0.1,1.2v3.7h-2.1
			v-3.3c0-0.2,0-0.4,0-0.6c0-0.2-0.1-0.4-0.1-0.6c-0.1-0.2-0.2-0.3-0.3-0.4c-0.1-0.1-0.3-0.2-0.6-0.2s-0.5,0-0.6,0.1
			c-0.2,0.1-0.3,0.2-0.4,0.4c-0.1,0.2-0.1,0.3-0.2,0.5c0,0.2,0,0.4,0,0.6v3.3h-2.1V116.8z"/>
		<path class="st1" d="M88.8,118.8c-0.3-0.4-0.7-0.6-1.2-0.6c-0.2,0-0.3,0-0.5,0.1c-0.2,0.1-0.2,0.2-0.2,0.4c0,0.2,0.1,0.3,0.3,0.4
			c0.2,0.1,0.4,0.1,0.6,0.2c0.3,0.1,0.5,0.1,0.8,0.2s0.6,0.2,0.8,0.3c0.3,0.1,0.5,0.3,0.6,0.6s0.3,0.6,0.3,1c0,0.4-0.1,0.8-0.3,1.1
			s-0.4,0.5-0.7,0.7c-0.3,0.2-0.6,0.3-1,0.4s-0.7,0.1-1.1,0.1c-0.5,0-0.9-0.1-1.4-0.2c-0.5-0.1-0.9-0.4-1.2-0.7l1.2-1.4
			c0.2,0.2,0.4,0.4,0.6,0.5c0.2,0.1,0.5,0.2,0.8,0.2c0.2,0,0.5,0,0.6-0.1s0.3-0.2,0.3-0.4c0-0.2-0.1-0.3-0.3-0.4s-0.4-0.2-0.6-0.2
			c-0.3-0.1-0.5-0.1-0.8-0.2s-0.6-0.2-0.8-0.3c-0.3-0.1-0.5-0.3-0.6-0.6s-0.3-0.6-0.3-1c0-0.4,0.1-0.7,0.2-1s0.4-0.5,0.6-0.7
			c0.3-0.2,0.6-0.3,0.9-0.4s0.7-0.1,1-0.1c0.4,0,0.9,0.1,1.3,0.2s0.8,0.4,1.1,0.7L88.8,118.8z"/>
		<path class="st1" d="M97.8,123.5h-2v-0.9h0c-0.1,0.1-0.2,0.3-0.3,0.4s-0.3,0.2-0.4,0.3s-0.4,0.2-0.6,0.2s-0.4,0.1-0.7,0.1
			c-0.5,0-0.9-0.1-1.3-0.2c-0.3-0.2-0.6-0.4-0.8-0.7c-0.2-0.3-0.3-0.6-0.4-1c-0.1-0.4-0.1-0.8-0.1-1.2v-3.7h2.1v3.3
			c0,0.2,0,0.4,0,0.6c0,0.2,0.1,0.4,0.1,0.6c0.1,0.2,0.2,0.3,0.3,0.4c0.1,0.1,0.3,0.2,0.6,0.2c0.3,0,0.5,0,0.6-0.1
			c0.2-0.1,0.3-0.2,0.4-0.4c0.1-0.2,0.1-0.3,0.2-0.5c0-0.2,0-0.4,0-0.6v-3.3h2.1V123.5z"/>
		<path class="st1" d="M99.3,113.2h2.1v10.4h-2.1V113.2z"/>
		<path class="st1" d="M107.3,118.5h-1.8v2.2c0,0.2,0,0.3,0,0.5c0,0.2,0.1,0.3,0.1,0.4c0.1,0.1,0.2,0.2,0.3,0.3
			c0.1,0.1,0.3,0.1,0.5,0.1c0.1,0,0.3,0,0.4,0c0.2,0,0.3-0.1,0.4-0.2v1.7c-0.2,0.1-0.5,0.1-0.7,0.2c-0.2,0-0.5,0-0.7,0
			c-0.3,0-0.7,0-1-0.1c-0.3-0.1-0.5-0.2-0.8-0.3c-0.2-0.2-0.4-0.4-0.5-0.6c-0.1-0.3-0.2-0.6-0.2-0.9v-3.2h-1.3v-1.6h1.3v-2h2.1v2
			h1.8V118.5z"/>
		<path class="st1" d="M108.2,114.8c0-0.3,0.1-0.6,0.3-0.8c0.2-0.2,0.5-0.3,0.8-0.3c0.3,0,0.6,0.1,0.8,0.3c0.2,0.2,0.3,0.5,0.3,0.8
			c0,0.3-0.1,0.6-0.3,0.8c-0.2,0.2-0.5,0.3-0.8,0.3c-0.3,0-0.6-0.1-0.8-0.3C108.4,115.4,108.2,115.1,108.2,114.8z M108.4,116.8h2.1
			v6.7h-2.1V116.8z"/>
		<path class="st1" d="M111.9,116.8h2v0.9h0c0.1-0.1,0.2-0.3,0.3-0.4c0.1-0.1,0.3-0.2,0.4-0.3s0.4-0.2,0.6-0.2
			c0.2-0.1,0.4-0.1,0.7-0.1c0.5,0,0.9,0.1,1.3,0.2c0.3,0.2,0.6,0.4,0.7,0.7c0.2,0.3,0.3,0.6,0.4,1c0.1,0.4,0.1,0.8,0.1,1.2v3.7h-2.1
			v-3.3c0-0.2,0-0.4,0-0.6c0-0.2-0.1-0.4-0.1-0.6c-0.1-0.2-0.2-0.3-0.3-0.4c-0.1-0.1-0.3-0.2-0.6-0.2s-0.5,0-0.6,0.1
			c-0.2,0.1-0.3,0.2-0.4,0.4c-0.1,0.2-0.1,0.3-0.2,0.5c0,0.2,0,0.4,0,0.6v3.3h-2.1V116.8z"/>
		<path class="st1" d="M126.8,122.9c0,1.3-0.3,2.2-1,2.9c-0.6,0.7-1.6,1-2.9,1c-0.6,0-1.2-0.1-1.8-0.2c-0.6-0.1-1.1-0.4-1.6-0.8
			l1.1-1.7c0.3,0.3,0.7,0.5,1,0.6s0.7,0.2,1.2,0.2c0.6,0,1.1-0.2,1.4-0.5s0.4-0.7,0.4-1.2v-0.6h0c-0.2,0.3-0.5,0.5-0.9,0.7
			c-0.4,0.1-0.7,0.2-1,0.2c-0.5,0-0.9-0.1-1.3-0.3c-0.4-0.2-0.7-0.4-1-0.7c-0.3-0.3-0.5-0.7-0.7-1.1s-0.2-0.9-0.2-1.4
			c0-0.4,0.1-0.9,0.2-1.3c0.1-0.4,0.3-0.8,0.6-1.1c0.3-0.3,0.6-0.6,1-0.8c0.4-0.2,0.8-0.3,1.3-0.3c0.3,0,0.6,0,0.8,0.1
			c0.2,0.1,0.5,0.1,0.7,0.2s0.4,0.2,0.5,0.3s0.2,0.2,0.3,0.4h0v-0.9h1.9V122.9z M121.6,120.1c0,0.2,0,0.4,0.1,0.6
			c0.1,0.2,0.2,0.4,0.3,0.5c0.2,0.2,0.3,0.3,0.5,0.4c0.2,0.1,0.4,0.1,0.7,0.1c0.2,0,0.4,0,0.6-0.1c0.2-0.1,0.4-0.2,0.5-0.4
			c0.2-0.2,0.3-0.3,0.3-0.5c0.1-0.2,0.1-0.4,0.1-0.6c0-0.2,0-0.4-0.1-0.6c-0.1-0.2-0.2-0.4-0.3-0.5c-0.2-0.2-0.3-0.3-0.5-0.4
			c-0.2-0.1-0.4-0.1-0.6-0.1c-0.2,0-0.5,0-0.7,0.1c-0.2,0.1-0.4,0.2-0.5,0.4s-0.3,0.3-0.3,0.5C121.6,119.7,121.6,119.9,121.6,120.1z
			"/>
		<path class="st1" d="M128.9,121.3h2l-1.2,3.9h-1.8L128.9,121.3z"/>
		<path class="st1" d="M140.3,118.8c-0.3-0.4-0.7-0.6-1.2-0.6c-0.2,0-0.3,0-0.5,0.1c-0.2,0.1-0.2,0.2-0.2,0.4c0,0.2,0.1,0.3,0.3,0.4
			c0.2,0.1,0.4,0.1,0.6,0.2c0.3,0.1,0.5,0.1,0.8,0.2s0.6,0.2,0.8,0.3c0.3,0.1,0.5,0.3,0.6,0.6s0.3,0.6,0.3,1c0,0.4-0.1,0.8-0.3,1.1
			s-0.4,0.5-0.7,0.7c-0.3,0.2-0.6,0.3-1,0.4s-0.7,0.1-1.1,0.1c-0.5,0-0.9-0.1-1.4-0.2c-0.5-0.1-0.9-0.4-1.2-0.7l1.2-1.4
			c0.2,0.2,0.4,0.4,0.6,0.5c0.2,0.1,0.5,0.2,0.8,0.2c0.2,0,0.5,0,0.6-0.1c0.2-0.1,0.3-0.2,0.3-0.4c0-0.2-0.1-0.3-0.3-0.4
			s-0.4-0.2-0.6-0.2c-0.3-0.1-0.5-0.1-0.8-0.2s-0.6-0.2-0.8-0.3c-0.3-0.1-0.5-0.3-0.6-0.6s-0.3-0.6-0.3-1c0-0.4,0.1-0.7,0.2-1
			c0.2-0.3,0.4-0.5,0.6-0.7c0.3-0.2,0.6-0.3,0.9-0.4s0.7-0.1,1-0.1c0.4,0,0.9,0.1,1.3,0.2s0.8,0.4,1.1,0.7L140.3,118.8z"/>
		<path class="st1" d="M147.4,118.5h-1.8v2.2c0,0.2,0,0.3,0,0.5c0,0.2,0.1,0.3,0.1,0.4s0.2,0.2,0.3,0.3c0.1,0.1,0.3,0.1,0.5,0.1
			c0.1,0,0.3,0,0.4,0c0.2,0,0.3-0.1,0.4-0.2v1.7c-0.2,0.1-0.5,0.1-0.7,0.2c-0.2,0-0.5,0-0.7,0c-0.3,0-0.7,0-1-0.1
			c-0.3-0.1-0.5-0.2-0.8-0.3c-0.2-0.2-0.4-0.4-0.5-0.6c-0.1-0.3-0.2-0.6-0.2-0.9v-3.2h-1.3v-1.6h1.3v-2h2.1v2h1.8V118.5z"/>
		<path class="st1" d="M148.5,116.8h2.1v1.1h0c0.2-0.4,0.5-0.7,0.8-0.9c0.3-0.2,0.7-0.3,1.1-0.3c0.1,0,0.2,0,0.4,0
			c0.1,0,0.2,0,0.3,0.1v1.9c-0.1,0-0.3-0.1-0.4-0.1c-0.1,0-0.3,0-0.4,0c-0.4,0-0.7,0.1-0.9,0.2c-0.2,0.1-0.4,0.3-0.5,0.5
			c-0.1,0.2-0.2,0.4-0.2,0.7c0,0.3-0.1,0.6-0.1,0.9v2.8h-2.1V116.8z"/>
		<path class="st1" d="M158.2,122.7L158.2,122.7c-0.3,0.4-0.6,0.6-0.9,0.8s-0.8,0.2-1.2,0.2c-0.3,0-0.6,0-0.9-0.1
			c-0.3-0.1-0.5-0.2-0.8-0.4c-0.2-0.2-0.4-0.4-0.5-0.6s-0.2-0.6-0.2-0.9c0-0.4,0.1-0.7,0.2-1c0.1-0.3,0.3-0.5,0.6-0.7
			c0.2-0.2,0.5-0.3,0.8-0.4s0.6-0.2,1-0.2c0.3,0,0.7-0.1,1-0.1c0.3,0,0.6,0,0.9,0c0-0.4-0.1-0.7-0.4-0.9c-0.3-0.2-0.6-0.3-0.9-0.3
			c-0.3,0-0.6,0.1-0.9,0.2s-0.5,0.3-0.7,0.6l-1.1-1.1c0.4-0.4,0.8-0.6,1.3-0.8s1-0.3,1.6-0.3c0.6,0,1.1,0.1,1.5,0.2
			c0.4,0.2,0.7,0.4,0.9,0.7c0.2,0.3,0.4,0.7,0.5,1.1c0.1,0.4,0.1,0.9,0.1,1.5v3.4h-1.9V122.7z M157.7,120.6c-0.2,0-0.3,0-0.6,0
			c-0.2,0-0.5,0.1-0.7,0.1c-0.2,0.1-0.4,0.2-0.5,0.3s-0.2,0.3-0.2,0.5c0,0.2,0.1,0.4,0.3,0.5c0.2,0.1,0.4,0.2,0.7,0.2
			c0.2,0,0.4,0,0.6-0.1c0.2-0.1,0.4-0.1,0.5-0.2c0.1-0.1,0.3-0.2,0.3-0.4s0.1-0.3,0.1-0.5v-0.4H157.7z"/>
		<path class="st1" d="M165.9,118.5h-1.8v2.2c0,0.2,0,0.3,0,0.5c0,0.2,0.1,0.3,0.1,0.4s0.2,0.2,0.3,0.3c0.1,0.1,0.3,0.1,0.5,0.1
			c0.1,0,0.3,0,0.4,0c0.2,0,0.3-0.1,0.4-0.2v1.7c-0.2,0.1-0.5,0.1-0.7,0.2c-0.2,0-0.5,0-0.7,0c-0.3,0-0.7,0-1-0.1
			c-0.3-0.1-0.5-0.2-0.8-0.3c-0.2-0.2-0.4-0.4-0.5-0.6c-0.1-0.3-0.2-0.6-0.2-0.9v-3.2h-1.3v-1.6h1.3v-2h2.1v2h1.8V118.5z"/>
		<path class="st1" d="M173.3,122.4c-0.3,0.4-0.7,0.7-1.2,1c-0.5,0.2-1,0.3-1.6,0.3c-0.5,0-1-0.1-1.4-0.2c-0.5-0.2-0.8-0.4-1.2-0.7
			c-0.3-0.3-0.6-0.7-0.8-1.1c-0.2-0.4-0.3-0.9-0.3-1.4c0-0.5,0.1-1,0.3-1.4c0.2-0.4,0.5-0.8,0.8-1.1c0.3-0.3,0.7-0.5,1.2-0.7
			c0.5-0.2,0.9-0.2,1.4-0.2c0.5,0,0.9,0.1,1.3,0.2c0.4,0.2,0.7,0.4,1,0.7c0.3,0.3,0.5,0.7,0.6,1.1c0.1,0.4,0.2,0.9,0.2,1.4v0.6h-4.8
			c0.1,0.4,0.3,0.7,0.5,0.9c0.3,0.2,0.6,0.3,1,0.3c0.3,0,0.6-0.1,0.9-0.2c0.2-0.2,0.4-0.3,0.6-0.6L173.3,122.4z M171.5,119.4
			c0-0.3-0.1-0.6-0.3-0.9c-0.2-0.2-0.5-0.4-0.9-0.4c-0.2,0-0.4,0-0.6,0.1c-0.2,0.1-0.3,0.2-0.4,0.3s-0.2,0.2-0.3,0.4
			s-0.1,0.3-0.1,0.5H171.5z"/>
		<path class="st1" d="M181.8,122.9c0,1.3-0.3,2.2-1,2.9c-0.6,0.7-1.6,1-2.9,1c-0.6,0-1.2-0.1-1.8-0.2s-1.1-0.4-1.6-0.8l1.1-1.7
			c0.3,0.3,0.7,0.5,1,0.6s0.7,0.2,1.2,0.2c0.6,0,1.1-0.2,1.4-0.5s0.4-0.7,0.4-1.2v-0.6h0c-0.2,0.3-0.5,0.5-0.9,0.7
			c-0.4,0.1-0.7,0.2-1,0.2c-0.5,0-0.9-0.1-1.3-0.3c-0.4-0.2-0.7-0.4-1-0.7c-0.3-0.3-0.5-0.7-0.7-1.1s-0.2-0.9-0.2-1.4
			c0-0.4,0.1-0.9,0.2-1.3s0.3-0.8,0.6-1.1c0.3-0.3,0.6-0.6,1-0.8c0.4-0.2,0.8-0.3,1.3-0.3c0.3,0,0.6,0,0.8,0.1
			c0.2,0.1,0.5,0.1,0.7,0.2c0.2,0.1,0.4,0.2,0.5,0.3c0.1,0.1,0.2,0.2,0.3,0.4h0v-0.9h1.9V122.9z M176.6,120.1c0,0.2,0,0.4,0.1,0.6
			s0.2,0.4,0.3,0.5c0.2,0.2,0.3,0.3,0.5,0.4c0.2,0.1,0.4,0.1,0.7,0.1c0.2,0,0.4,0,0.6-0.1c0.2-0.1,0.4-0.2,0.5-0.4
			c0.2-0.2,0.3-0.3,0.3-0.5s0.1-0.4,0.1-0.6c0-0.2,0-0.4-0.1-0.6s-0.2-0.4-0.3-0.5c-0.2-0.2-0.3-0.3-0.5-0.4
			c-0.2-0.1-0.4-0.1-0.6-0.1c-0.2,0-0.5,0-0.7,0.1c-0.2,0.1-0.4,0.2-0.5,0.4s-0.3,0.3-0.3,0.5S176.6,119.9,176.6,120.1z"/>
		<path class="st1" d="M183.3,114.8c0-0.3,0.1-0.6,0.3-0.8c0.2-0.2,0.5-0.3,0.8-0.3c0.3,0,0.6,0.1,0.8,0.3c0.2,0.2,0.3,0.5,0.3,0.8
			c0,0.3-0.1,0.6-0.3,0.8c-0.2,0.2-0.5,0.3-0.8,0.3c-0.3,0-0.6-0.1-0.8-0.3C183.4,115.4,183.3,115.1,183.3,114.8z M183.5,116.8h2.1
			v6.7h-2.1V116.8z"/>
		<path class="st1" d="M186.8,121.5l3.5-3h-3.4v-1.6h5.8v2l-3.6,3h3.7v1.6h-5.9V121.5z"/>
		<path class="st1" d="M193.7,114.8c0-0.3,0.1-0.6,0.3-0.8c0.2-0.2,0.5-0.3,0.8-0.3c0.3,0,0.6,0.1,0.8,0.3c0.2,0.2,0.3,0.5,0.3,0.8
			c0,0.3-0.1,0.6-0.3,0.8c-0.2,0.2-0.5,0.3-0.8,0.3c-0.3,0-0.6-0.1-0.8-0.3C193.8,115.4,193.7,115.1,193.7,114.8z M193.9,116.8h2.1
			v6.7h-2.1V116.8z"/>
		<path class="st1" d="M197.4,116.8h2v0.9h0c0.1-0.1,0.2-0.3,0.3-0.4c0.1-0.1,0.3-0.2,0.4-0.3c0.2-0.1,0.4-0.2,0.6-0.2
			c0.2-0.1,0.4-0.1,0.7-0.1c0.5,0,0.9,0.1,1.3,0.2c0.3,0.2,0.6,0.4,0.7,0.7c0.2,0.3,0.3,0.6,0.4,1c0.1,0.4,0.1,0.8,0.1,1.2v3.7h-2.1
			v-3.3c0-0.2,0-0.4,0-0.6c0-0.2-0.1-0.4-0.1-0.6c-0.1-0.2-0.2-0.3-0.3-0.4c-0.1-0.1-0.3-0.2-0.6-0.2s-0.5,0-0.6,0.1
			c-0.2,0.1-0.3,0.2-0.4,0.4c-0.1,0.2-0.1,0.3-0.2,0.5c0,0.2,0,0.4,0,0.6v3.3h-2.1V116.8z"/>
		<path class="st1" d="M212.3,122.9c0,1.3-0.3,2.2-1,2.9c-0.6,0.7-1.6,1-2.9,1c-0.6,0-1.2-0.1-1.8-0.2s-1.1-0.4-1.6-0.8l1.1-1.7
			c0.3,0.3,0.7,0.5,1,0.6s0.7,0.2,1.2,0.2c0.6,0,1.1-0.2,1.4-0.5s0.4-0.7,0.4-1.2v-0.6h0c-0.2,0.3-0.5,0.5-0.9,0.7
			c-0.4,0.1-0.7,0.2-1,0.2c-0.5,0-0.9-0.1-1.3-0.3c-0.4-0.2-0.7-0.4-1-0.7c-0.3-0.3-0.5-0.7-0.7-1.1s-0.2-0.9-0.2-1.4
			c0-0.4,0.1-0.9,0.2-1.3s0.3-0.8,0.6-1.1c0.3-0.3,0.6-0.6,1-0.8c0.4-0.2,0.8-0.3,1.3-0.3c0.3,0,0.6,0,0.8,0.1
			c0.2,0.1,0.5,0.1,0.7,0.2c0.2,0.1,0.4,0.2,0.5,0.3c0.1,0.1,0.2,0.2,0.3,0.4h0v-0.9h1.9V122.9z M207.1,120.1c0,0.2,0,0.4,0.1,0.6
			s0.2,0.4,0.3,0.5c0.2,0.2,0.3,0.3,0.5,0.4c0.2,0.1,0.4,0.1,0.7,0.1c0.2,0,0.4,0,0.6-0.1c0.2-0.1,0.4-0.2,0.5-0.4
			c0.2-0.2,0.3-0.3,0.3-0.5s0.1-0.4,0.1-0.6c0-0.2,0-0.4-0.1-0.6s-0.2-0.4-0.3-0.5c-0.2-0.2-0.3-0.3-0.5-0.4
			c-0.2-0.1-0.4-0.1-0.6-0.1c-0.2,0-0.5,0-0.7,0.1c-0.2,0.1-0.4,0.2-0.5,0.4s-0.3,0.3-0.3,0.5S207.1,119.9,207.1,120.1z"/>
		<path class="st1" d="M214.4,121.3h2l-1.2,3.9h-1.8L214.4,121.3z"/>
		<path class="st1" d="M70,133.3h1.9v0.9h0c0.1-0.1,0.2-0.2,0.3-0.4c0.1-0.1,0.3-0.2,0.5-0.3c0.2-0.1,0.4-0.2,0.6-0.2
			c0.2-0.1,0.4-0.1,0.7-0.1c0.5,0,0.9,0.1,1.3,0.3c0.4,0.2,0.7,0.4,1,0.7c0.3,0.3,0.5,0.7,0.7,1.1s0.2,0.9,0.2,1.4
			c0,0.5-0.1,0.9-0.2,1.3s-0.3,0.8-0.6,1.1c-0.3,0.3-0.6,0.6-1,0.8c-0.4,0.2-0.8,0.3-1.3,0.3c-0.4,0-0.8-0.1-1.2-0.2
			c-0.4-0.1-0.7-0.4-0.9-0.7h0v3.8H70V133.3z M71.9,136.6c0,0.5,0.1,0.9,0.4,1.2c0.3,0.3,0.7,0.5,1.2,0.5s0.9-0.2,1.2-0.5
			c0.3-0.3,0.4-0.7,0.4-1.2c0-0.5-0.1-0.9-0.4-1.2c-0.3-0.3-0.7-0.5-1.2-0.5s-0.9,0.2-1.2,0.5C72,135.7,71.9,136.1,71.9,136.6z"/>
		<path class="st1" d="M78.5,129.6h2.1v10.4h-2.1V129.6z"/>
		<path class="st1" d="M86.2,139.1L86.2,139.1c-0.3,0.4-0.6,0.6-0.9,0.8c-0.4,0.2-0.8,0.2-1.2,0.2c-0.3,0-0.6,0-0.9-0.1
			c-0.3-0.1-0.5-0.2-0.8-0.4c-0.2-0.2-0.4-0.4-0.5-0.6s-0.2-0.6-0.2-0.9c0-0.4,0.1-0.7,0.2-1c0.1-0.3,0.3-0.5,0.6-0.7
			c0.2-0.2,0.5-0.3,0.8-0.4s0.6-0.2,1-0.2c0.3,0,0.7-0.1,1-0.1c0.3,0,0.6,0,0.9,0c0-0.4-0.1-0.7-0.4-0.9c-0.3-0.2-0.6-0.3-0.9-0.3
			c-0.3,0-0.6,0.1-0.9,0.2s-0.5,0.3-0.7,0.6l-1.1-1.1c0.4-0.4,0.8-0.6,1.3-0.8s1-0.3,1.6-0.3c0.6,0,1.1,0.1,1.5,0.2
			c0.4,0.2,0.7,0.4,0.9,0.7c0.2,0.3,0.4,0.7,0.5,1.1c0.1,0.4,0.1,0.9,0.1,1.5v3.4h-1.9V139.1z M85.7,137c-0.2,0-0.3,0-0.6,0
			c-0.2,0-0.5,0.1-0.7,0.1c-0.2,0.1-0.4,0.2-0.5,0.3s-0.2,0.3-0.2,0.5c0,0.2,0.1,0.4,0.3,0.5c0.2,0.1,0.4,0.2,0.7,0.2
			c0.2,0,0.4,0,0.6-0.1c0.2-0.1,0.4-0.1,0.5-0.2c0.1-0.1,0.3-0.2,0.3-0.4s0.1-0.3,0.1-0.5V137H85.7z"/>
		<path class="st1" d="M89.4,133.3h2v0.9h0c0.1-0.1,0.2-0.3,0.3-0.4c0.1-0.1,0.3-0.2,0.4-0.3s0.4-0.2,0.6-0.2
			c0.2-0.1,0.4-0.1,0.7-0.1c0.5,0,0.9,0.1,1.3,0.2c0.3,0.2,0.6,0.4,0.7,0.7c0.2,0.3,0.3,0.6,0.4,1c0.1,0.4,0.1,0.8,0.1,1.2v3.7h-2.1
			v-3.3c0-0.2,0-0.4,0-0.6c0-0.2-0.1-0.4-0.1-0.6c-0.1-0.2-0.2-0.3-0.3-0.4c-0.1-0.1-0.3-0.2-0.6-0.2s-0.5,0-0.6,0.1
			c-0.2,0.1-0.3,0.2-0.4,0.4c-0.1,0.2-0.1,0.3-0.2,0.5c0,0.2,0,0.4,0,0.6v3.3h-2.1V133.3z"/>
		<path class="st1" d="M97.2,133.3h2v0.9h0c0.1-0.1,0.2-0.3,0.3-0.4c0.1-0.1,0.3-0.2,0.4-0.3c0.2-0.1,0.4-0.2,0.6-0.2
			c0.2-0.1,0.4-0.1,0.7-0.1c0.5,0,0.9,0.1,1.3,0.2c0.3,0.2,0.6,0.4,0.7,0.7c0.2,0.3,0.3,0.6,0.4,1c0.1,0.4,0.1,0.8,0.1,1.2v3.7h-2.1
			v-3.3c0-0.2,0-0.4,0-0.6c0-0.2-0.1-0.4-0.1-0.6c-0.1-0.2-0.2-0.3-0.3-0.4c-0.1-0.1-0.3-0.2-0.6-0.2c-0.3,0-0.5,0-0.6,0.1
			c-0.2,0.1-0.3,0.2-0.4,0.4c-0.1,0.2-0.1,0.3-0.2,0.5c0,0.2,0,0.4,0,0.6v3.3h-2.1V133.3z"/>
		<path class="st1" d="M104.9,131.2c0-0.3,0.1-0.6,0.3-0.8c0.2-0.2,0.5-0.3,0.8-0.3c0.3,0,0.6,0.1,0.8,0.3c0.2,0.2,0.3,0.5,0.3,0.8
			c0,0.3-0.1,0.6-0.3,0.8c-0.2,0.2-0.5,0.3-0.8,0.3c-0.3,0-0.6-0.1-0.8-0.3C105.1,131.8,104.9,131.5,104.9,131.2z M105.1,133.3h2.1
			v6.7h-2.1V133.3z"/>
		<path class="st1" d="M108.6,133.3h2v0.9h0c0.1-0.1,0.2-0.3,0.3-0.4c0.1-0.1,0.3-0.2,0.4-0.3c0.2-0.1,0.4-0.2,0.6-0.2
			c0.2-0.1,0.4-0.1,0.7-0.1c0.5,0,0.9,0.1,1.3,0.2c0.3,0.2,0.6,0.4,0.7,0.7c0.2,0.3,0.3,0.6,0.4,1c0.1,0.4,0.1,0.8,0.1,1.2v3.7H113
			v-3.3c0-0.2,0-0.4,0-0.6c0-0.2-0.1-0.4-0.1-0.6c-0.1-0.2-0.2-0.3-0.3-0.4c-0.1-0.1-0.3-0.2-0.6-0.2c-0.3,0-0.5,0-0.6,0.1
			c-0.2,0.1-0.3,0.2-0.4,0.4c-0.1,0.2-0.1,0.3-0.2,0.5c0,0.2,0,0.4,0,0.6v3.3h-2.1V133.3z"/>
		<path class="st1" d="M123.5,139.4c0,1.3-0.3,2.2-1,2.9c-0.6,0.7-1.6,1-2.9,1c-0.6,0-1.2-0.1-1.8-0.2c-0.6-0.1-1.1-0.4-1.6-0.8
			l1.1-1.7c0.3,0.3,0.7,0.5,1,0.6s0.7,0.2,1.2,0.2c0.6,0,1.1-0.2,1.4-0.5s0.4-0.7,0.4-1.2v-0.6h0c-0.2,0.3-0.5,0.5-0.9,0.7
			c-0.4,0.1-0.7,0.2-1,0.2c-0.5,0-0.9-0.1-1.3-0.3c-0.4-0.2-0.7-0.4-1-0.7c-0.3-0.3-0.5-0.7-0.7-1.1s-0.2-0.9-0.2-1.4
			c0-0.4,0.1-0.9,0.2-1.3c0.1-0.4,0.3-0.8,0.6-1.1c0.3-0.3,0.6-0.6,1-0.8c0.4-0.2,0.8-0.3,1.3-0.3c0.3,0,0.6,0,0.8,0.1
			c0.2,0.1,0.5,0.1,0.7,0.2s0.4,0.2,0.5,0.3s0.2,0.2,0.3,0.4h0v-0.9h1.9V139.4z M118.3,136.6c0,0.2,0,0.4,0.1,0.6
			c0.1,0.2,0.2,0.4,0.3,0.5c0.2,0.2,0.3,0.3,0.5,0.4c0.2,0.1,0.4,0.1,0.7,0.1c0.2,0,0.4,0,0.6-0.1c0.2-0.1,0.4-0.2,0.5-0.4
			c0.2-0.2,0.3-0.3,0.3-0.5c0.1-0.2,0.1-0.4,0.1-0.6c0-0.2,0-0.4-0.1-0.6c-0.1-0.2-0.2-0.4-0.3-0.5c-0.2-0.2-0.3-0.3-0.5-0.4
			c-0.2-0.1-0.4-0.1-0.6-0.1c-0.2,0-0.5,0-0.7,0.1c-0.2,0.1-0.4,0.2-0.5,0.4s-0.3,0.3-0.3,0.5C118.4,136.1,118.3,136.4,118.3,136.6z
			"/>
		<path class="st1" d="M133.4,139.1L133.4,139.1c-0.3,0.4-0.6,0.6-0.9,0.8c-0.4,0.2-0.8,0.2-1.2,0.2c-0.3,0-0.6,0-0.9-0.1
			c-0.3-0.1-0.5-0.2-0.8-0.4c-0.2-0.2-0.4-0.4-0.5-0.6s-0.2-0.6-0.2-0.9c0-0.4,0.1-0.7,0.2-1c0.1-0.3,0.3-0.5,0.6-0.7
			c0.2-0.2,0.5-0.3,0.8-0.4s0.6-0.2,1-0.2c0.3,0,0.7-0.1,1-0.1c0.3,0,0.6,0,0.9,0c0-0.4-0.1-0.7-0.4-0.9c-0.3-0.2-0.6-0.3-0.9-0.3
			c-0.3,0-0.6,0.1-0.9,0.2s-0.5,0.3-0.7,0.6l-1.1-1.1c0.4-0.4,0.8-0.6,1.3-0.8s1-0.3,1.6-0.3c0.6,0,1.1,0.1,1.5,0.2
			c0.4,0.2,0.7,0.4,0.9,0.7c0.2,0.3,0.4,0.7,0.5,1.1c0.1,0.4,0.1,0.9,0.1,1.5v3.4h-1.9V139.1z M132.9,137c-0.2,0-0.3,0-0.6,0
			c-0.2,0-0.5,0.1-0.7,0.1c-0.2,0.1-0.4,0.2-0.5,0.3s-0.2,0.3-0.2,0.5c0,0.2,0.1,0.4,0.3,0.5c0.2,0.1,0.4,0.2,0.7,0.2
			c0.2,0,0.4,0,0.6-0.1c0.2-0.1,0.4-0.1,0.5-0.2c0.1-0.1,0.3-0.2,0.3-0.4c0.1-0.2,0.1-0.3,0.1-0.5V137H132.9z"/>
		<path class="st1" d="M136.5,133.3h2v0.9h0c0.1-0.1,0.2-0.3,0.3-0.4c0.1-0.1,0.3-0.2,0.4-0.3c0.2-0.1,0.4-0.2,0.6-0.2
			c0.2-0.1,0.4-0.1,0.7-0.1c0.5,0,0.9,0.1,1.3,0.2c0.3,0.2,0.6,0.4,0.7,0.7c0.2,0.3,0.3,0.6,0.4,1c0.1,0.4,0.1,0.8,0.1,1.2v3.7h-2.1
			v-3.3c0-0.2,0-0.4,0-0.6c0-0.2-0.1-0.4-0.1-0.6c-0.1-0.2-0.2-0.3-0.3-0.4c-0.1-0.1-0.3-0.2-0.6-0.2s-0.5,0-0.6,0.1
			c-0.2,0.1-0.3,0.2-0.4,0.4c-0.1,0.2-0.1,0.3-0.2,0.5c0,0.2,0,0.4,0,0.6v3.3h-2.1V133.3z"/>
		<path class="st1" d="M151.4,139.9h-1.9v-0.9h0c-0.1,0.1-0.2,0.2-0.3,0.4c-0.1,0.1-0.3,0.2-0.5,0.3c-0.2,0.1-0.4,0.2-0.6,0.2
			c-0.2,0.1-0.4,0.1-0.7,0.1c-0.5,0-0.9-0.1-1.3-0.3c-0.4-0.2-0.7-0.4-1-0.7c-0.3-0.3-0.5-0.7-0.7-1.1c-0.2-0.4-0.2-0.9-0.2-1.4
			c0-0.5,0.1-0.9,0.2-1.3s0.3-0.8,0.6-1.1c0.3-0.3,0.6-0.6,1-0.8c0.4-0.2,0.8-0.3,1.3-0.3c0.4,0,0.8,0.1,1.2,0.2
			c0.4,0.1,0.7,0.4,0.9,0.7h0v-4.4h2.1V139.9z M149.5,136.6c0-0.5-0.1-0.9-0.4-1.2c-0.3-0.3-0.7-0.5-1.2-0.5s-0.9,0.2-1.2,0.5
			c-0.3,0.3-0.4,0.7-0.4,1.2c0,0.5,0.1,0.9,0.4,1.2c0.3,0.3,0.7,0.5,1.2,0.5s0.9-0.2,1.2-0.5C149.4,137.5,149.5,137.1,149.5,136.6z"
			/>
		<path class="st1" d="M157.1,133.3h2.1v1.1h0c0.2-0.4,0.5-0.7,0.8-0.9c0.3-0.2,0.7-0.3,1.1-0.3c0.1,0,0.2,0,0.4,0
			c0.1,0,0.2,0,0.3,0.1v1.9c-0.1,0-0.3-0.1-0.4-0.1c-0.1,0-0.3,0-0.4,0c-0.4,0-0.7,0.1-0.9,0.2c-0.2,0.1-0.4,0.3-0.5,0.5
			c-0.1,0.2-0.2,0.4-0.2,0.7c0,0.3-0.1,0.6-0.1,0.9v2.8h-2.1V133.3z"/>
		<path class="st1" d="M168.7,138.8c-0.3,0.4-0.7,0.7-1.2,1c-0.5,0.2-1,0.3-1.6,0.3c-0.5,0-1-0.1-1.4-0.2c-0.5-0.2-0.8-0.4-1.2-0.7
			c-0.3-0.3-0.6-0.7-0.8-1.1c-0.2-0.4-0.3-0.9-0.3-1.4c0-0.5,0.1-1,0.3-1.4c0.2-0.4,0.5-0.8,0.8-1.1c0.3-0.3,0.7-0.5,1.2-0.7
			c0.5-0.2,0.9-0.2,1.4-0.2c0.5,0,0.9,0.1,1.3,0.2c0.4,0.2,0.7,0.4,1,0.7c0.3,0.3,0.5,0.7,0.6,1.1c0.1,0.4,0.2,0.9,0.2,1.4v0.6h-4.8
			c0.1,0.4,0.3,0.7,0.5,0.9c0.3,0.2,0.6,0.3,1,0.3c0.3,0,0.6-0.1,0.9-0.2c0.2-0.2,0.4-0.3,0.6-0.6L168.7,138.8z M167,135.9
			c0-0.3-0.1-0.6-0.3-0.9c-0.2-0.2-0.5-0.4-0.9-0.4c-0.2,0-0.4,0-0.6,0.1c-0.2,0.1-0.3,0.2-0.4,0.3s-0.2,0.2-0.3,0.4
			s-0.1,0.3-0.1,0.5H167z"/>
		<path class="st1" d="M174.1,135.2c-0.3-0.4-0.7-0.6-1.2-0.6c-0.2,0-0.3,0-0.5,0.1c-0.2,0.1-0.2,0.2-0.2,0.4c0,0.2,0.1,0.3,0.3,0.4
			c0.2,0.1,0.4,0.1,0.6,0.2c0.3,0.1,0.5,0.1,0.8,0.2s0.6,0.2,0.8,0.3c0.3,0.1,0.5,0.3,0.6,0.6s0.3,0.6,0.3,1c0,0.4-0.1,0.8-0.3,1.1
			s-0.4,0.5-0.7,0.7c-0.3,0.2-0.6,0.3-1,0.4s-0.7,0.1-1.1,0.1c-0.5,0-0.9-0.1-1.4-0.2c-0.5-0.1-0.9-0.4-1.2-0.7l1.2-1.4
			c0.2,0.2,0.4,0.4,0.6,0.5c0.2,0.1,0.5,0.2,0.8,0.2c0.2,0,0.5,0,0.6-0.1c0.2-0.1,0.3-0.2,0.3-0.4c0-0.2-0.1-0.3-0.3-0.4
			s-0.4-0.2-0.6-0.2c-0.3-0.1-0.5-0.1-0.8-0.2s-0.6-0.2-0.8-0.3c-0.3-0.1-0.5-0.3-0.6-0.6s-0.3-0.6-0.3-1c0-0.4,0.1-0.7,0.2-1
			c0.2-0.3,0.4-0.5,0.6-0.7c0.3-0.2,0.6-0.3,0.9-0.4s0.7-0.1,1-0.1c0.4,0,0.9,0.1,1.3,0.2s0.8,0.4,1.1,0.7L174.1,135.2z"/>
		<path class="st1" d="M182.9,138.8c-0.3,0.4-0.7,0.7-1.2,1c-0.5,0.2-1,0.3-1.6,0.3c-0.5,0-1-0.1-1.4-0.2c-0.5-0.2-0.8-0.4-1.2-0.7
			c-0.3-0.3-0.6-0.7-0.8-1.1c-0.2-0.4-0.3-0.9-0.3-1.4c0-0.5,0.1-1,0.3-1.4c0.2-0.4,0.5-0.8,0.8-1.1c0.3-0.3,0.7-0.5,1.2-0.7
			c0.5-0.2,0.9-0.2,1.4-0.2c0.5,0,0.9,0.1,1.3,0.2c0.4,0.2,0.7,0.4,1,0.7c0.3,0.3,0.5,0.7,0.6,1.1c0.1,0.4,0.2,0.9,0.2,1.4v0.6h-4.8
			c0.1,0.4,0.3,0.7,0.5,0.9c0.3,0.2,0.6,0.3,1,0.3c0.3,0,0.6-0.1,0.9-0.2c0.2-0.2,0.4-0.3,0.6-0.6L182.9,138.8z M181.2,135.9
			c0-0.3-0.1-0.6-0.3-0.9c-0.2-0.2-0.5-0.4-0.9-0.4c-0.2,0-0.4,0-0.6,0.1c-0.2,0.1-0.3,0.2-0.4,0.3s-0.2,0.2-0.3,0.4
			s-0.1,0.3-0.1,0.5H181.2z"/>
		<path class="st1" d="M188.7,139.1L188.7,139.1c-0.3,0.4-0.6,0.6-0.9,0.8s-0.8,0.2-1.2,0.2c-0.3,0-0.6,0-0.9-0.1
			c-0.3-0.1-0.5-0.2-0.8-0.4c-0.2-0.2-0.4-0.4-0.5-0.6s-0.2-0.6-0.2-0.9c0-0.4,0.1-0.7,0.2-1c0.1-0.3,0.3-0.5,0.6-0.7
			c0.2-0.2,0.5-0.3,0.8-0.4s0.6-0.2,1-0.2c0.3,0,0.7-0.1,1-0.1c0.3,0,0.6,0,0.9,0c0-0.4-0.1-0.7-0.4-0.9c-0.3-0.2-0.6-0.3-0.9-0.3
			c-0.3,0-0.6,0.1-0.9,0.2s-0.5,0.3-0.7,0.6l-1.1-1.1c0.4-0.4,0.8-0.6,1.3-0.8s1-0.3,1.6-0.3c0.6,0,1.1,0.1,1.5,0.2
			c0.4,0.2,0.7,0.4,0.9,0.7c0.2,0.3,0.4,0.7,0.5,1.1c0.1,0.4,0.1,0.9,0.1,1.5v3.4h-1.9V139.1z M188.2,137c-0.2,0-0.3,0-0.6,0
			c-0.2,0-0.5,0.1-0.7,0.1c-0.2,0.1-0.4,0.2-0.5,0.3s-0.2,0.3-0.2,0.5c0,0.2,0.1,0.4,0.3,0.5c0.2,0.1,0.4,0.2,0.7,0.2
			c0.2,0,0.4,0,0.6-0.1c0.2-0.1,0.4-0.1,0.5-0.2c0.1-0.1,0.3-0.2,0.3-0.4s0.1-0.3,0.1-0.5V137H188.2z"/>
		<path class="st1" d="M191.8,133.3h2.1v1.1h0c0.2-0.4,0.5-0.7,0.8-0.9c0.3-0.2,0.7-0.3,1.1-0.3c0.1,0,0.2,0,0.4,0
			c0.1,0,0.2,0,0.3,0.1v1.9c-0.1,0-0.3-0.1-0.4-0.1c-0.1,0-0.3,0-0.4,0c-0.4,0-0.7,0.1-0.9,0.2c-0.2,0.1-0.4,0.3-0.5,0.5
			c-0.1,0.2-0.2,0.4-0.2,0.7c0,0.3-0.1,0.6-0.1,0.9v2.8h-2.1V133.3z"/>
		<path class="st1" d="M201.7,135.4c-0.1-0.1-0.2-0.3-0.4-0.4c-0.2-0.1-0.4-0.1-0.6-0.1c-0.5,0-0.9,0.2-1.2,0.5
			c-0.3,0.3-0.4,0.7-0.4,1.2c0,0.5,0.1,0.9,0.4,1.2c0.3,0.3,0.7,0.5,1.2,0.5c0.2,0,0.4-0.1,0.6-0.2c0.2-0.1,0.3-0.2,0.4-0.4l1.4,1.4
			c-0.3,0.3-0.7,0.6-1.1,0.7c-0.4,0.1-0.8,0.2-1.2,0.2c-0.5,0-1-0.1-1.4-0.2c-0.5-0.2-0.8-0.4-1.2-0.7c-0.3-0.3-0.6-0.7-0.8-1.1
			c-0.2-0.4-0.3-0.9-0.3-1.4c0-0.5,0.1-1,0.3-1.4c0.2-0.4,0.5-0.8,0.8-1.1c0.3-0.3,0.7-0.5,1.2-0.7c0.5-0.2,0.9-0.2,1.4-0.2
			c0.4,0,0.8,0.1,1.2,0.2c0.4,0.1,0.8,0.4,1.1,0.7L201.7,135.4z"/>
		<path class="st1" d="M205.8,129.6v4.6h0c0-0.1,0.1-0.3,0.2-0.4s0.2-0.2,0.4-0.3s0.3-0.2,0.5-0.2c0.2-0.1,0.4-0.1,0.7-0.1
			c0.5,0,0.9,0.1,1.3,0.2c0.3,0.2,0.6,0.4,0.7,0.7c0.2,0.3,0.3,0.6,0.4,1c0.1,0.4,0.1,0.8,0.1,1.2v3.7h-2.1v-3.3c0-0.2,0-0.4,0-0.6
			c0-0.2-0.1-0.4-0.1-0.6c-0.1-0.2-0.2-0.3-0.3-0.4c-0.1-0.1-0.3-0.2-0.6-0.2s-0.5,0-0.6,0.1c-0.2,0.1-0.3,0.2-0.4,0.4
			c-0.1,0.2-0.1,0.3-0.2,0.5c0,0.2,0,0.4,0,0.6v3.3h-2.1v-10.4H205.8z"/>
	</g>
</g>
</svg>
