<?xml version="1.0" encoding="utf-8"?>
<!-- Generator: Adobe Illustrator 23.0.4, SVG Export Plug-In . SVG Version: 6.00 Build 0)  -->
<svg version="1.1" id="Layer_1" xmlns="http://www.w3.org/2000/svg" xmlns:xlink="http://www.w3.org/1999/xlink" x="0px" y="0px"
	 viewBox="0 0 280 149.2" style="enable-background:new 0 0 280 149.2;" xml:space="preserve">
<style type="text/css">
	.st0{fill:#FFFFFF;}
	.st1{fill:#34CF7C;}
</style>
<title>280-</title>
<g>
	<g>
		<path class="st0" d="M154,81.8c-9,3.7-18.9,3.7-27.9,0c-1.1-0.5-1.6,1.4-0.5,1.9c9.3,3.8,19.6,3.8,28.9,0
			C155.6,83.2,155.1,81.4,154,81.8L154,81.8z"/>
		<path class="st0" d="M124.3,15.7c11.5-6,25.5-5.1,35.9,2.7c9.2,6.9,14.3,18.4,13.3,29.8c-1,11.3-8,21.6-18.1,26.8
			c-10.3,5.3-23.1,4.7-32.9-1.4c-12-7.5-17.8-21.7-15-35.4c0.2-1.2-1.6-1.7-1.9-0.5c-2.6,12.9,1.8,26.2,11.9,34.7
			c9.5,7.8,22.6,10.3,34.3,6.2c11.4-4,20.3-13.9,22.9-25.7c2.7-12-1.2-24.8-10-33.3C153.6,9.1,136.9,7,123.3,14.1
			C122.2,14.7,123.2,16.3,124.3,15.7L124.3,15.7z"/>
		<g>
			<path class="st0" d="M105.8,32.4c-0.8,0.5-1.6,0.9-2.5,1.4c-1.1,0.6-0.1,2.3,1,1.7c0.8-0.5,1.6-0.9,2.5-1.4
				C107.8,33.5,106.9,31.8,105.8,32.4z"/>
			<path class="st0" d="M112,28.9c-0.8,0.5-1.6,0.9-2.5,1.4c-1.1,0.6-0.1,2.3,1,1.7c0.8-0.5,1.6-0.9,2.5-1.4
				C114,30,113,28.3,112,28.9z"/>
			<path class="st0" d="M110,33.6c-0.6-1.1-2.3-0.1-1.7,1c0.5,0.8,0.9,1.6,1.4,2.5c0.6,1.1,2.3,0.1,1.7-1
				C111,35.2,110.5,34.4,110,33.6z"/>
			<path class="st0" d="M106.5,27.4c-0.6-1.1-2.3-0.1-1.7,1c0.5,0.8,0.9,1.6,1.4,2.5c0.6,1.1,2.3,0.1,1.7-1
				C107.4,29.1,107,28.2,106.5,27.4z"/>
		</g>
		<g>
			<path class="st0" d="M116.8,17.2c-0.9-0.2-1.9-0.4-2.8-0.6c-1.2-0.3-1.7,1.6-0.5,1.9c0.9,0.2,1.9,0.4,2.8,0.6
				C117.5,19.4,118.1,17.5,116.8,17.2z"/>
			<path class="st0" d="M123.8,18.7c-0.9-0.2-1.9-0.4-2.8-0.6c-1.2-0.3-1.7,1.6-0.5,1.9c0.9,0.2,1.9,0.4,2.8,0.6
				C124.5,20.9,125,19,123.8,18.7z"/>
			<path class="st0" d="M117.3,20.4c-0.2,0.9-0.4,1.9-0.6,2.8c-0.3,1.2,1.6,1.7,1.9,0.5c0.2-0.9,0.4-1.9,0.6-2.8
				C119.4,19.7,117.6,19.2,117.3,20.4z"/>
			<path class="st0" d="M120.7,14c0.3-1.2-1.6-1.7-1.9-0.5c-0.2,0.9-0.4,1.9-0.6,2.8c-0.3,1.2,1.6,1.7,1.9,0.5
				C120.3,15.9,120.5,14.9,120.7,14z"/>
		</g>
		<g>
			<path class="st0" d="M117.3,86.6c0-1.8,0-3.8-0.4-5.6c-1.4-6.2-5.4-7.5-8.7-10.4c-1-0.9-2.9-2.9-4.1-3.8c-1-0.7-1.5-0.6-2.2-0.5
				c-0.5,0.1-0.9,0.4-1.3,0.7c-0.5,0.5-0.7,1.3-0.6,2.2c0.1,0.7,0.5,1.4,1.1,1.9l8.5,8.2l-0.7,0.7l-8.5-8.2
				c-0.7-0.7-1.2-1.6-1.3-2.5c-0.2-1.1-0.2-2.2,0.6-3c-0.2-1.3-1.3-5.2-1.4-5.8c-0.3-1.6,3.3-8.9-0.4-10.1c-1.5-0.5-2.9,2.9-5.8,9.5
				c-1,2.3,0.4,5.4,2.8,19c0.6,3.4,8.9,8.3,10.9,11.7c1.7,2.9,2.3,5.9,2.5,8.9h10.8C117.6,95.2,117.3,88.1,117.3,86.6z M106.6,82.6
				c-0.5,0.5-1.3,0.6-1.8,0.1c-0.5-0.5-0.6-1.3-0.1-1.8s1.3-0.6,1.8-0.1C107.1,81.2,107.1,82,106.6,82.6z M109.5,88.6
				c-1.1,0.2-2.2-0.6-2.4-1.7c-0.2-1.1,0.6-2.2,1.7-2.4c1.1-0.2,2.2,0.6,2.4,1.7C111.4,87.3,110.7,88.4,109.5,88.6z"/>
			<path class="st0" d="M99.4,50.5c0,0,1.4-2.8,3-4.5c0,0,0.8-1.4-1-0.8c0,0-2.6,1.1-4.2,4.5C97.2,49.8,98.5,49.2,99.4,50.5z"/>
		</g>
		<g>
			<path class="st0" d="M187.4,60c-2.9-6.6-4.3-10-5.8-9.5c-3.7,1.2-0.2,8.5-0.4,10.1c-0.1,0.6-1.1,4.4-1.4,5.8
				c0.8,0.7,0.8,1.9,0.6,3c-0.2,0.9-0.6,1.8-1.3,2.5l-8.5,8.2l-0.7-0.7l8.5-8.2c0.6-0.6,0.9-1.3,1.1-1.9c0.1-0.8-0.1-1.6-0.6-2.2
				c-0.3-0.3-0.8-0.6-1.3-0.7c-0.7-0.1-1.2-0.1-2.2,0.5c-1.2,0.9-3.1,2.9-4.1,3.8c-3.3,2.8-7.3,4.2-8.7,10.4
				c-0.4,1.7-0.5,3.8-0.4,5.6c0,1.5-0.3,8.6-1.8,13h10.8c0.2-2.9,0.8-6,2.5-8.9c2-3.4,10.3-8.3,10.9-11.7
				C187.1,65.4,188.5,62.4,187.4,60z M172.5,86.9c-0.2,1.1-1.3,1.9-2.4,1.7c-1.1-0.2-1.9-1.3-1.7-2.4c0.2-1.1,1.3-1.9,2.4-1.7
				C172,84.7,172.7,85.8,172.5,86.9z M174.8,82.7c-0.5,0.5-1.3,0.4-1.8-0.1c-0.5-0.5-0.4-1.3,0.1-1.8c0.5-0.5,1.3-0.4,1.8,0.1
				C175.4,81.4,175.4,82.2,174.8,82.7z"/>
			<path class="st0" d="M180.2,50.5c1-1.3,2.2-0.8,2.2-0.8c-1.6-3.4-4.2-4.5-4.2-4.5c-1.8-0.6-1,0.8-1,0.8
				C178.9,47.8,180.2,50.5,180.2,50.5z"/>
		</g>
		<rect x="128.6" y="62.6" class="st0" width="23.2" height="3.6"/>
		<g>
			<path class="st0" d="M114.2,29.5l1.7-1.4c6.6-5.6,15.1-8.6,23.8-8.6h0.2c8.7,0,17.2,3.1,23.8,8.6l1.6,1.4H114.2z"/>
		</g>
		<path class="st0" d="M164.3,58.2c-0.4,0-0.8,0-1.2,0V30.5h-1.3l-2.8,2.8l-2.8-2.8h-1.3v2.9h-29.2v-2.9h-1.3l-2.8,2.8l-2.8-2.8
			h-1.3v27.7c-0.4,0-0.8,0-1.2,0c-0.4,0-0.8,0.4-0.8,0.8c0,1.8,0,3.6,0,5.4c0,0.4,0.4,0.8,0.8,0.8c3.4,0,6.7,0,10.1,0
			c1.1,0,1.1-1.6,0-1.6c-3.1,0-6.2,0-9.2,0c0-1.2,0-2.5,0-3.7c13.7,0,27.5,0,41.2,0c1.8,0,3.5,0,5.3,0c0,1.2,0,2.5,0,3.7
			c-3.1,0-6.2,0-9.2,0c-1.1,0-1.1,1.6,0,1.6c3.4,0,6.7,0,10.1,0c0.4,0,0.8-0.4,0.8-0.8c0-1.8,0-3.6,0-5.4
			C165.1,58.6,164.8,58.2,164.3,58.2z M161.8,37.7l-2.8,2.8l-2.8-2.8l2.8-2.8L161.8,37.7z M156.2,44.8L159,42l2.8,2.8l-2.8,2.8
			L156.2,44.8z M161.8,51.9l-2.8,2.8l-2.8-2.8l2.8-2.8L161.8,51.9z M155.9,31.8l2.3,2.2l-2.3,2.2V31.8z M155.9,39l2.3,2.2l-2.3,2.2
			V39z M155.9,46.1l2.3,2.2l-2.3,2.2V46.1z M124.3,37.7l-2.8,2.8l-2.8-2.8l2.8-2.8L124.3,37.7z M118.7,44.8l2.8-2.8l2.8,2.8
			l-2.8,2.8L118.7,44.8z M124.3,51.9l-2.8,2.8l-2.8-2.8l2.8-2.8L124.3,51.9z M118.5,31.8l2.2,2.2l-2.2,2.2V31.8z M118.5,39l2.2,2.2
			l-2.2,2.2V39z M118.5,46.1l2.2,2.2l-2.2,2.2V46.1z M118.5,53.3l2.2,2.2l-2.2,2.2V53.3z M122.3,58.2c-0.9,0-1.8,0-2.8,0l2-2l2,2
			C123.1,58.2,122.7,58.2,122.3,58.2z M124.5,57.7l-2.2-2.2l2.2-2.2V57.7z M124.5,50.6l-2.2-2.2l2.2-2.2V50.6z M124.5,43.5l-2.2-2.2
			l2.2-2.2V43.5z M124.5,36.3l-2.2-2.2l2.2-2.2V36.3z M125.6,58.2V34.8h3.6v1.7h-0.4v1.6h2.5v-1.6h-0.4v-1.7h8.4v1.7h-0.4v1.6h2.5
			v-1.6H141v-1.7h8.3v1.7h-0.4v1.6h2.5v-1.6H151v-1.7h3.9v23.5C145.1,58.2,135.4,58.2,125.6,58.2z M155.9,53.3l2.3,2.2l-2.3,2.2
			V53.3z M157,58.2l2-2l2,2C159.6,58.2,158.3,58.2,157,58.2z M162,57.7l-2.3-2.2l2.3-2.2V57.7z M162,50.6l-2.3-2.2l2.3-2.2V50.6z
			 M162,43.5l-2.3-2.2L162,39V43.5z M162,36.3l-2.3-2.2l2.3-2.2V36.3z"/>
	</g>
	<g>
		<g>
			<path class="st1" d="M84.2,121.5h6.6v2h-4.5v1.8h4.2v2h-4.2v2h4.7v2h-6.9V121.5z"/>
			<path class="st1" d="M91.9,124.6h2.2l1.7,4.6h0l1.6-4.6h2.1l-2.7,6.7h-2.2L91.9,124.6z"/>
			<path class="st1" d="M106.6,130.1c-0.3,0.4-0.8,0.8-1.3,1c-0.5,0.2-1,0.3-1.6,0.3c-0.5,0-1-0.1-1.5-0.2c-0.5-0.2-0.9-0.4-1.2-0.7
				c-0.3-0.3-0.6-0.7-0.8-1.1c-0.2-0.4-0.3-0.9-0.3-1.5c0-0.5,0.1-1,0.3-1.5c0.2-0.4,0.5-0.8,0.8-1.1c0.3-0.3,0.7-0.5,1.2-0.7
				c0.5-0.2,0.9-0.2,1.5-0.2c0.5,0,0.9,0.1,1.3,0.2c0.4,0.2,0.7,0.4,1,0.7c0.3,0.3,0.5,0.7,0.6,1.1c0.1,0.4,0.2,0.9,0.2,1.5v0.6
				h-4.8c0.1,0.4,0.3,0.7,0.5,0.9c0.3,0.2,0.6,0.4,1,0.4c0.3,0,0.6-0.1,0.9-0.2c0.2-0.2,0.4-0.3,0.6-0.6L106.6,130.1z M104.9,127.2
				c0-0.4-0.1-0.6-0.3-0.9c-0.2-0.2-0.5-0.4-0.9-0.4c-0.2,0-0.4,0-0.6,0.1c-0.2,0.1-0.3,0.2-0.4,0.3c-0.1,0.1-0.2,0.2-0.3,0.4
				c-0.1,0.2-0.1,0.3-0.1,0.5H104.9z"/>
			<path class="st1" d="M108.2,124.6h2v0.9h0c0.1-0.1,0.2-0.3,0.3-0.4c0.1-0.1,0.3-0.2,0.4-0.3c0.2-0.1,0.4-0.2,0.6-0.2
				c0.2-0.1,0.4-0.1,0.7-0.1c0.5,0,0.9,0.1,1.3,0.2c0.3,0.2,0.6,0.4,0.8,0.7c0.2,0.3,0.3,0.6,0.4,1c0.1,0.4,0.1,0.8,0.1,1.3v3.7
				h-2.1V128c0-0.2,0-0.4,0-0.6c0-0.2-0.1-0.4-0.1-0.6c-0.1-0.2-0.2-0.3-0.3-0.4c-0.1-0.1-0.3-0.2-0.6-0.2c-0.3,0-0.5,0-0.6,0.1
				c-0.2,0.1-0.3,0.2-0.4,0.4c-0.1,0.2-0.1,0.3-0.2,0.5c0,0.2,0,0.4,0,0.6v3.3h-2.1V124.6z"/>
			<path class="st1" d="M120.7,126.2h-1.8v2.2c0,0.2,0,0.4,0,0.5s0.1,0.3,0.1,0.4c0.1,0.1,0.2,0.2,0.3,0.3c0.1,0.1,0.3,0.1,0.5,0.1
				c0.1,0,0.3,0,0.4,0c0.2,0,0.3-0.1,0.4-0.2v1.7c-0.2,0.1-0.5,0.1-0.7,0.2c-0.2,0-0.5,0-0.7,0c-0.4,0-0.7,0-1-0.1
				c-0.3-0.1-0.6-0.2-0.8-0.4c-0.2-0.2-0.4-0.4-0.5-0.6s-0.2-0.6-0.2-0.9v-3.2h-1.3v-1.7h1.3v-2h2.1v2h1.8V126.2z"/>
			<path class="st1" d="M126,124.6h1.9v0.9h0c0.1-0.1,0.2-0.2,0.3-0.4c0.1-0.1,0.3-0.2,0.5-0.3c0.2-0.1,0.4-0.2,0.6-0.2
				c0.2-0.1,0.4-0.1,0.7-0.1c0.5,0,0.9,0.1,1.4,0.3c0.4,0.2,0.8,0.4,1,0.7c0.3,0.3,0.5,0.7,0.7,1.1c0.2,0.4,0.2,0.9,0.2,1.4
				c0,0.5-0.1,0.9-0.2,1.3c-0.1,0.4-0.3,0.8-0.6,1.1c-0.3,0.3-0.6,0.6-1,0.8c-0.4,0.2-0.8,0.3-1.3,0.3c-0.4,0-0.8-0.1-1.2-0.2
				c-0.4-0.1-0.7-0.4-0.9-0.7h0v3.9H126V124.6z M127.9,127.9c0,0.5,0.1,0.9,0.4,1.2c0.3,0.3,0.7,0.5,1.2,0.5c0.5,0,0.9-0.2,1.2-0.5
				c0.3-0.3,0.4-0.7,0.4-1.2s-0.1-0.9-0.4-1.2c-0.3-0.3-0.7-0.5-1.2-0.5c-0.5,0-0.9,0.2-1.2,0.5C128.1,127,127.9,127.4,127.9,127.9z
				"/>
			<path class="st1" d="M134.6,124.6h2.1v1.1h0c0.2-0.4,0.5-0.7,0.8-0.9c0.3-0.2,0.7-0.3,1.1-0.3c0.1,0,0.2,0,0.4,0
				c0.1,0,0.2,0,0.3,0.1v1.9c-0.1,0-0.3-0.1-0.4-0.1c-0.1,0-0.3,0-0.4,0c-0.4,0-0.7,0.1-0.9,0.2c-0.2,0.1-0.4,0.3-0.5,0.5
				c-0.1,0.2-0.2,0.4-0.2,0.7c0,0.3-0.1,0.6-0.1,0.9v2.8h-2.1V124.6z"/>
			<path class="st1" d="M139.7,127.9c0-0.5,0.1-1,0.3-1.5c0.2-0.4,0.5-0.8,0.8-1.1c0.3-0.3,0.7-0.5,1.2-0.7c0.5-0.2,0.9-0.2,1.5-0.2
				c0.5,0,1,0.1,1.5,0.2c0.5,0.2,0.9,0.4,1.2,0.7c0.3,0.3,0.6,0.7,0.8,1.1c0.2,0.4,0.3,0.9,0.3,1.5c0,0.5-0.1,1-0.3,1.5
				c-0.2,0.4-0.5,0.8-0.8,1.1c-0.3,0.3-0.7,0.5-1.2,0.7c-0.5,0.2-0.9,0.2-1.5,0.2c-0.5,0-1-0.1-1.5-0.2c-0.5-0.2-0.9-0.4-1.2-0.7
				c-0.3-0.3-0.6-0.7-0.8-1.1C139.8,128.9,139.7,128.4,139.7,127.9z M141.8,127.9c0,0.5,0.1,0.9,0.4,1.2c0.3,0.3,0.7,0.5,1.2,0.5
				c0.5,0,0.9-0.2,1.2-0.5c0.3-0.3,0.4-0.7,0.4-1.2s-0.1-0.9-0.4-1.2c-0.3-0.3-0.7-0.5-1.2-0.5c-0.5,0-0.9,0.2-1.2,0.5
				C141.9,127,141.8,127.4,141.8,127.9z"/>
			<path class="st1" d="M155.4,131.3h-1.9v-0.9h0c-0.1,0.1-0.2,0.2-0.3,0.4c-0.1,0.1-0.3,0.2-0.5,0.3s-0.4,0.2-0.6,0.2
				s-0.4,0.1-0.7,0.1c-0.5,0-0.9-0.1-1.4-0.3s-0.8-0.4-1-0.7c-0.3-0.3-0.5-0.7-0.7-1.1c-0.2-0.4-0.2-0.9-0.2-1.4
				c0-0.5,0.1-0.9,0.2-1.3c0.1-0.4,0.3-0.8,0.6-1.1c0.3-0.3,0.6-0.6,1-0.8c0.4-0.2,0.8-0.3,1.3-0.3c0.4,0,0.8,0.1,1.2,0.2
				c0.4,0.1,0.7,0.4,0.9,0.7h0v-4.5h2.1V131.3z M153.5,127.9c0-0.5-0.1-0.9-0.4-1.2c-0.3-0.3-0.7-0.5-1.2-0.5
				c-0.5,0-0.9,0.2-1.2,0.5c-0.3,0.3-0.4,0.7-0.4,1.2s0.1,0.9,0.4,1.2c0.3,0.3,0.7,0.5,1.2,0.5c0.5,0,0.9-0.2,1.2-0.5
				C153.4,128.8,153.5,128.4,153.5,127.9z"/>
			<path class="st1" d="M163.5,131.3h-2v-0.9h0c-0.1,0.1-0.2,0.3-0.3,0.4c-0.1,0.1-0.3,0.2-0.4,0.3s-0.4,0.2-0.6,0.2
				c-0.2,0.1-0.4,0.1-0.7,0.1c-0.5,0-1-0.1-1.3-0.2c-0.3-0.2-0.6-0.4-0.8-0.7c-0.2-0.3-0.3-0.6-0.4-1c-0.1-0.4-0.1-0.8-0.1-1.3v-3.7
				h2.1v3.3c0,0.2,0,0.4,0,0.6c0,0.2,0.1,0.4,0.1,0.6c0.1,0.2,0.2,0.3,0.3,0.4c0.1,0.1,0.3,0.2,0.6,0.2c0.3,0,0.5,0,0.6-0.1
				c0.2-0.1,0.3-0.2,0.4-0.4c0.1-0.2,0.1-0.3,0.2-0.5c0-0.2,0-0.4,0-0.6v-3.3h2.1V131.3z"/>
			<path class="st1" d="M169.6,126.7c-0.1-0.1-0.2-0.3-0.4-0.4c-0.2-0.1-0.4-0.1-0.6-0.1c-0.5,0-0.9,0.2-1.2,0.5
				c-0.3,0.3-0.4,0.7-0.4,1.2s0.1,0.9,0.4,1.2c0.3,0.3,0.7,0.5,1.2,0.5c0.2,0,0.4-0.1,0.6-0.2c0.2-0.1,0.3-0.2,0.4-0.4l1.4,1.4
				c-0.3,0.3-0.7,0.6-1.1,0.7c-0.4,0.1-0.9,0.2-1.3,0.2c-0.5,0-1-0.1-1.5-0.2c-0.5-0.2-0.9-0.4-1.2-0.7c-0.3-0.3-0.6-0.7-0.8-1.1
				c-0.2-0.4-0.3-0.9-0.3-1.5c0-0.5,0.1-1,0.3-1.5c0.2-0.4,0.5-0.8,0.8-1.1c0.3-0.3,0.7-0.5,1.2-0.7c0.5-0.2,0.9-0.2,1.5-0.2
				c0.4,0,0.8,0.1,1.3,0.2c0.4,0.1,0.8,0.4,1.1,0.7L169.6,126.7z"/>
			<path class="st1" d="M176.2,126.2h-1.8v2.2c0,0.2,0,0.4,0,0.5c0,0.2,0.1,0.3,0.1,0.4c0.1,0.1,0.2,0.2,0.3,0.3
				c0.1,0.1,0.3,0.1,0.5,0.1c0.1,0,0.3,0,0.4,0c0.2,0,0.3-0.1,0.4-0.2v1.7c-0.2,0.1-0.5,0.1-0.7,0.2c-0.2,0-0.5,0-0.7,0
				c-0.4,0-0.7,0-1-0.1c-0.3-0.1-0.6-0.2-0.8-0.4c-0.2-0.2-0.4-0.4-0.5-0.6c-0.1-0.3-0.2-0.6-0.2-0.9v-3.2H171v-1.7h1.3v-2h2.1v2
				h1.8V126.2z"/>
			<path class="st1" d="M177.2,122.4c0-0.3,0.1-0.6,0.4-0.8c0.2-0.2,0.5-0.4,0.9-0.4c0.3,0,0.6,0.1,0.8,0.4c0.2,0.2,0.4,0.5,0.4,0.8
				c0,0.3-0.1,0.6-0.4,0.9c-0.2,0.2-0.5,0.4-0.8,0.4c-0.3,0-0.6-0.1-0.9-0.4C177.3,123.1,177.2,122.8,177.2,122.4z M177.3,124.6h2.1
				v6.7h-2.1V124.6z"/>
			<path class="st1" d="M180.6,127.9c0-0.5,0.1-1,0.3-1.5c0.2-0.4,0.5-0.8,0.8-1.1c0.3-0.3,0.7-0.5,1.2-0.7c0.5-0.2,0.9-0.2,1.5-0.2
				c0.5,0,1,0.1,1.5,0.2c0.5,0.2,0.9,0.4,1.2,0.7c0.3,0.3,0.6,0.7,0.8,1.1c0.2,0.4,0.3,0.9,0.3,1.5c0,0.5-0.1,1-0.3,1.5
				c-0.2,0.4-0.5,0.8-0.8,1.1c-0.3,0.3-0.7,0.5-1.2,0.7c-0.5,0.2-0.9,0.2-1.5,0.2c-0.5,0-1-0.1-1.5-0.2c-0.5-0.2-0.9-0.4-1.2-0.7
				c-0.3-0.3-0.6-0.7-0.8-1.1C180.7,128.9,180.6,128.4,180.6,127.9z M182.7,127.9c0,0.5,0.1,0.9,0.4,1.2c0.3,0.3,0.7,0.5,1.2,0.5
				c0.5,0,0.9-0.2,1.2-0.5c0.3-0.3,0.4-0.7,0.4-1.2s-0.1-0.9-0.4-1.2c-0.3-0.3-0.7-0.5-1.2-0.5c-0.5,0-0.9,0.2-1.2,0.5
				C182.9,127,182.7,127.4,182.7,127.9z"/>
			<path class="st1" d="M189.3,124.6h2v0.9h0c0.1-0.1,0.2-0.3,0.3-0.4c0.1-0.1,0.3-0.2,0.4-0.3c0.2-0.1,0.4-0.2,0.6-0.2
				c0.2-0.1,0.4-0.1,0.7-0.1c0.5,0,0.9,0.1,1.3,0.2c0.3,0.2,0.6,0.4,0.8,0.7c0.2,0.3,0.3,0.6,0.4,1c0.1,0.4,0.1,0.8,0.1,1.3v3.7
				h-2.1V128c0-0.2,0-0.4,0-0.6c0-0.2-0.1-0.4-0.1-0.6c-0.1-0.2-0.2-0.3-0.3-0.4c-0.1-0.1-0.3-0.2-0.6-0.2c-0.3,0-0.5,0-0.6,0.1
				c-0.2,0.1-0.3,0.2-0.4,0.4c-0.1,0.2-0.1,0.3-0.2,0.5c0,0.2,0,0.4,0,0.6v3.3h-2.1V124.6z"/>
		</g>
	</g>
</g>
</svg>
