<?xml version="1.0" encoding="utf-8"?>
<!-- Generator: Adobe Illustrator 23.0.4, SVG Export Plug-In . SVG Version: 6.00 Build 0)  -->
<svg version="1.1" id="Layer_1" xmlns="http://www.w3.org/2000/svg" xmlns:xlink="http://www.w3.org/1999/xlink" x="0px" y="0px"
	 viewBox="0 0 280 149.2" style="enable-background:new 0 0 280 149.2;" xml:space="preserve">
<style type="text/css">
	.st0{fill:#FFFFFF;}
	.st1{fill:#34CF7C;}
	.st2{font-family:'Avenir-Black';}
	.st3{font-size:14.38px;}
</style>
<title>280-</title>
<g>
	<path class="st0" d="M124.8,86.8c-0.4,0-0.8-0.1-1.2-0.2c-0.8-0.3-1.5-1-1.9-1.8c-0.6-1.4-0.7-7-0.7-8.1c0-0.3,0.2-0.7,0.5-0.8
		c0.3-0.1,0.7-0.1,0.9,0.2c0.8,0.8,4.9,4.7,5.5,6c0.8,1.7,0,3.7-1.8,4.5C125.7,86.7,125.2,86.8,124.8,86.8z M122.7,78.7
		c0.1,2.3,0.3,4.8,0.5,5.4c0.2,0.4,0.5,0.7,0.9,0.9c0.4,0.2,0.9,0.2,1.3,0c0.9-0.4,1.2-1.4,0.9-2.2
		C126.1,82.1,124.3,80.3,122.7,78.7z M171.2,85.5c-0.4,0.1-0.7,0.1-1.1,0c-0.8-0.1-1.4-0.6-1.8-1.2c-0.7-1.1-1.7-5.7-1.9-6.7
		c-0.1-0.3,0.1-0.6,0.3-0.7c0.2-0.2,0.6-0.2,0.8,0c0.8,0.5,4.8,3.1,5.5,4.2c0.9,1.3,0.5,3.1-0.8,4C171.9,85.3,171.6,85.4,171.2,85.5
		z M168.2,79c0.4,1.9,1,3.9,1.3,4.4c0.2,0.3,0.5,0.5,0.9,0.6c0.4,0.1,0.8,0,1.1-0.2c0.7-0.4,0.8-1.3,0.4-2
		C171.5,81.4,169.8,80.1,168.2,79z M154.6,59.3c-1-0.1-1.9,0.6-2,1.5c-0.1,1,0.6,1.9,1.5,2c1,0.1,1.9-0.6,2-1.5
		C156.3,60.3,155.6,59.4,154.6,59.3z M158.7,54.9c-0.4-0.4-1.1-0.4-1.5,0c-0.4,0.4-0.4,1.1,0,1.5c0.4,0.4,1.1,0.4,1.5,0
		C159.1,56.1,159.1,55.4,158.7,54.9z M171.1,60.9c-0.7,0-1.3,0.6-1.3,1.3s0.6,1.3,1.3,1.3s1.3-0.6,1.3-1.3
		C172.4,61.4,171.8,60.9,171.1,60.9z M160.3,19.7c-0.7,0-1.3,0.6-1.3,1.3c0,0.7,0.6,1.3,1.3,1.3c0.7,0,1.3-0.6,1.3-1.3
		C161.6,20.3,161,19.7,160.3,19.7z M109.7,63.8c-0.8,0-1.4,0.6-1.4,1.4c0,0.8,0.6,1.4,1.4,1.4c0.8,0,1.4-0.6,1.4-1.4
		C111.1,64.5,110.4,63.8,109.7,63.8z M131.9,14c-0.8,0-1.4,0.6-1.4,1.4s0.6,1.4,1.4,1.4s1.4-0.6,1.4-1.4
		C133.4,14.7,132.7,14,131.9,14z M109,43.3c0.3,1.5,0.8,3,1.5,4.5c0,0,0,0.1,0.1,0.1c-0.2,0-0.4,0.1-0.6,0.2c0,0,0,0,0,0
		c-0.2,0.1-0.4,0.2-0.6,0.3c-0.8,0.5-1.3,1.3-1.5,2.2l-0.4,2.6c-0.2,0.9,0,1.8,0.5,2.6c0.5,0.8,1.2,1.3,2.1,1.5l3.9,0.9
		c4.2,6.6,14,16.7,19.8,20.8l3.6,11.5l3.4-0.4c0.4,0,0.9-0.1,1.3-0.2l3-0.8l3,10.1c-1.2,0.4-1.9,1.7-1.5,2.9
		c0.4,1.2,1.7,1.9,2.9,1.5c0.6-0.2,1.1-0.6,1.4-1.2c0.6,0.7,1.6,1.1,2.5,0.8c1.2-0.4,1.9-1.7,1.5-2.9c-0.3-1-1.1-1.6-2.1-1.6
		l-3.3-10.8l1.4-0.4l0.5-0.2l2.5,8.3l3.4-0.7l-0.9-3.5l2.9,9.8l2.2-2.5l-4.2-13.9l0.6-0.3c0.1-0.1,0.3-0.1,0.4-0.2l2.1-1.2
		l-3.9-12.3l4.7-6.2l0.1-0.1l5.4-18.4l0.3-6.7c1-2.5,2.1-8.4,2.1-8.6l0-0.3l-2.6-1.1l-0.3,0.9l-3.1-0.2l0,0.3c0,0,0,0.3,0,0.7
		c-2.3,0.4-3.9,1.4-4.9,2.9c-1-2.6-2.7-4.8-5.1-6.5c-0.6-0.4-1.3-0.8-2-1.2l-0.4-6.6c0-0.9-0.1-1.5-0.5-1.9c-0.4-0.4-1-0.5-1.9-0.5
		l-0.1,0l-0.3-2.9c1.3-0.1,2.3-1.2,2.2-2.5c-0.1-1.3-1.2-2.3-2.5-2.2c-0.6,0-1.2,0.4-1.6,0.8c-0.4-0.9-1.3-1.4-2.3-1.4
		c-1.3,0.1-2.3,1.2-2.2,2.5c0.1,1,0.8,1.8,1.7,2.1l0.4,3.7c-2.1,0-2.1,1.4-2.2,2.9l0.3,5c-2.6,0.6-4.8,1.8-6.5,4
		c-0.4,0.5-0.7,1.1-1.1,1.6c-0.1,0.2-0.2,0.3-0.3,0.6c-0.3-0.5-0.5-1-0.8-1.4c-1.6-2.6-3.9-4.1-6.7-4.9l-3.4-5.6
		c-0.8-1.7-2.9-2.4-4.6-1.5l-2.2,1.2c-0.8,0.4-1.4,1.1-1.7,2c-0.3,0.9-0.2,1.8,0.2,2.6l1.4,2.3c-0.6,0.3-1.1,0.6-1.7,1
		c-2.1,1.5-3.6,3.4-4.6,5.7l-2.9-1.3c-1.6-0.9-3.7-0.3-4.6,1.3l-1.1,2.3c-0.9,1.6-0.3,3.7,1.4,4.6 M143.6,18.9c0,0,0.1,0,0.1,0
		l4.8-0.2c0.5,0,1,0,1.2,0.2c0.2,0.1,0.2,0.7,0.2,1.1l0.4,6.2c0,0,0,0,0,0c-1-0.4-2-0.6-3.1-0.7c-0.6-0.1-1.2-0.1-1.8-0.2
		c-0.1,0-0.3,0-0.4,0c-0.5,0.1-1,0.1-1.5,0.2c-0.2,0-0.4,0.1-0.6,0.1l-0.3-4.8C142.6,19.1,142.7,18.9,143.6,18.9z M128,30.4
		c0.4,0.8,2.4,3.9,3,4.9l-3.2,1.9l-1.1-1.5c-0.1-0.1-0.3-0.2-0.4-0.1c-0.1,0.1-0.2,0.3-0.1,0.4l1.7,2.4l-2,1.8l-1.8-3
		c0,0-1.7-2.7-2.1-3.6c-0.2-0.3-0.3-0.7-0.3-1l0,0c0,0-0.1-0.6,0-1.4c0.2-0.9,0.8-1.8,1.7-2.3c0.5-0.3,1-0.4,1.6-0.4
		c0.1,0,0.1,0,0.2,0c0,0,0,0,0,0c0.1,0,0.2,0,0.2,0c0.2,0,0.4,0.1,0.6,0.1C126.9,29,127.6,29.6,128,30.4z M124.4,57.3l4.2,0.4
		l-0.3,2c-1-0.1-4-0.5-6-0.9c-0.4-0.1-0.8-0.2-1-0.2c0,0-0.1,0-0.1,0c-0.9-0.2-1.6-0.8-2.1-1.7c-0.5-0.8-0.6-1.8-0.3-2.7
		c0.4-1.6,1.8-2.6,3.4-2.6c0.3,0,0.6,0,0.9,0.1c0.9,0.2,5.3,0.9,6.5,1.1l-0.7,4.3l-4.2-0.4c-0.2,0-0.3,0.1-0.3,0.3
		C124.1,57.1,124.2,57.3,124.4,57.3z M115.7,24c-0.3-0.6-0.3-1.2-0.1-1.8c0.2-0.6,0.6-1.1,1.2-1.4l2.2-1.2c1.2-0.6,2.6-0.1,3.2,1.1
		l4.3,7.1c-0.9-0.3-2.4-0.5-4,0.4c-1.6,0.9-1.9,2.7-1.9,3.7L115.7,24z M103,39.5c-1.1-0.6-1.5-2.1-0.9-3.2l1.1-2.3
		c0.4-0.8,1.2-1.2,2-1.2c0.4,0,0.8,0.1,1.2,0.3l8.2,3.6c-1.4,0.1-2.6,0.9-3.3,2.2c-0.8,1.5-0.5,3.3,0.5,4.5L103,39.5z M113.4,43.8
		c-1.7-0.9-2.3-2.9-1.4-4.6c0.6-1.2,1.8-1.8,3-1.8c0.5,0,1.1,0.1,1.6,0.4c0.8,0.4,6.7,2.6,6.7,2.6l0.8,0.3l-0.8,2l-5.4-2
		c-0.2-0.1-0.3,0-0.4,0.2c-0.1,0.2,0,0.3,0.2,0.4l3.9,1.5L121,44l-1.4-0.5c-0.2-0.1-0.3,0-0.4,0.2c-0.1,0.2,0,0.3,0.2,0.4l1.4,0.5
		l-0.8,1.9C118.9,46.1,114.9,44.6,113.4,43.8z M110.2,56.2c-0.6-0.1-1.1-0.5-1.5-1c-0.3-0.5-0.5-1.2-0.3-1.8l0.4-2.6
		c0.1-0.6,0.5-1.2,1-1.5c0.5-0.3,1.1-0.5,1.8-0.3l9.3,2.1c-1.4,0.4-2.5,1.5-2.9,3c-0.3,1.1-0.1,2.2,0.4,3.2c0.2,0.4,0.5,0.8,0.9,1.1
		L110.2,56.2z M160.4,64.2l-4.2,5.5l-0.8,1l-1.9,2.5c-0.2,0.2-0.1,0.6,0.1,0.7c0.1,0.1,0.2,0.1,0.3,0.1c0.2,0,0.3-0.1,0.4-0.2
		l1.4-1.9l3.4,10.7l-1.3,0.8c-5.4,3-11.2,4.9-17.3,5.6l-2.5,0.3l-3.5-11l-0.2-0.1c-6.4-4.3-14.9-13.5-19.1-19.6l3.6,0.8
		c1.5,1.5,3.1,2.9,4.8,4.2c3,2.4,6.1,4.5,9.4,6.6c0.4,0.3,0.8,0.3,1.2,0c0.9-0.6,1.8-1.2,2.7-1.8c0.1,1.3,0.3,2.1,0.3,2.1
		c0.1,0.3,0.4,0.4,0.7,0.3c0.3-0.1,0.4-0.4,0.3-0.7c0-0.1-2.1-7,5.3-12c4.4-3,8.7-5,8.7-5l0.1,0l0.1-0.1l1-1.1
		c1.5-1.8,4.2-5.7,4.1-10c-0.1-5.6,1.7-8.6,5.4-9.4c-0.1,2-0.2,5.1-0.2,6.1c0.1,1.7,1,2.9,2.1,2.9c0,0,0,0,0.1,0c0,0,0.1,0,0.1,0
		c0.3,0,0.5-0.1,0.7-0.3l-0.2,4.9L160.4,64.2z M166.2,39.8c-0.1,0.3-0.4,0.6-0.6,0.8c-0.2,0.1-0.3,0.2-0.5,0.2c-0.7,0-1.5-1-1.5-2.3
		c-0.1-1.3,0.2-6.2,0.3-7.5l2.3,0.2l-0.6,1.9c-0.1,0.2,0,0.3,0.2,0.4c0.2,0.1,0.3,0,0.4-0.2l0.9-2.9l1.5,0.6
		C168.3,32.4,167.2,38.1,166.2,39.8z"/>
	<g>
		<text transform="matrix(1 0 0 1 41.2466 134.1016)" class="st1 st2 st3">Social media and influencers</text>
	</g>
</g>
</svg>
