<?xml version="1.0" encoding="utf-8"?>
<!-- Generator: Adobe Illustrator 23.0.4, SVG Export Plug-In . SVG Version: 6.00 Build 0)  -->
<svg version="1.1" id="Layer_1" xmlns="http://www.w3.org/2000/svg" xmlns:xlink="http://www.w3.org/1999/xlink" x="0px" y="0px"
	 viewBox="0 0 280 149.2" style="enable-background:new 0 0 280 149.2;" xml:space="preserve">
<style type="text/css">
	.st0{fill:#FFFFFF;}
	.st1{fill:#34CF7C;}
</style>
<title>280-</title>
<g>
	<g>
		<path class="st0" d="M148.8,37.8c-4.1,0-7.3-6.1-7.3-13.8s3.2-13.8,7.3-13.8s7.3,6.1,7.3,13.8S152.9,37.8,148.8,37.8z M148.8,11.7
			c-3.1,0-5.7,5.6-5.7,12.3s2.6,12.3,5.7,12.3s5.7-5.6,5.7-12.3S151.9,11.7,148.8,11.7z"/>
		<path class="st0" d="M148.8,37.8h-4.1c-4.1,0-7.3-6.1-7.3-13.8s3.2-13.8,7.3-13.8h4.1c0.4,0,0.8,0.4,0.8,0.8
			c0,0.4-0.4,0.8-0.8,0.8l0,0h-4.1c-3.1,0-5.7,5.6-5.7,12.3s2.6,12.3,5.7,12.3h4.1c0.4,0,0.8,0.4,0.8,0.8
			C149.6,37.5,149.2,37.8,148.8,37.8z"/>
		<path class="st0" d="M148.8,16.3c-1,0-2.6,3-2.6,7.6s1.5,7.6,2.6,7.6s2.6-3,2.6-7.6S149.8,16.3,148.8,16.3z M148.8,28.5
			c-0.4,0-0.8-0.4-0.8-0.8v0v-7.5c0-0.4,0.4-0.8,0.8-0.8c0.4,0,0.8,0.4,0.8,0.8v7.5C149.6,28.2,149.2,28.5,148.8,28.5L148.8,28.5z"
			/>
		<path class="st0" d="M148.8,10.9c-3.6,0-6.5,5.8-6.5,13.1s2.9,13.1,6.5,13.1s6.5-5.8,6.5-13.1S152.4,10.9,148.8,10.9z M148.8,33.2
			c-2.7,0-4.1-4.8-4.1-9.2s1.5-9.2,4.1-9.2c2.7,0,4.1,4.8,4.1,9.2S151.5,33.2,148.8,33.2z"/>
		<path class="st0" d="M168.1,78h-42.8c-0.4,0-0.7-0.3-0.8-0.7l-4.9-36.3h-9c-0.4,0-0.8-0.4-0.8-0.8c0-0.4,0.4-0.8,0.8-0.8
			c0,0,0,0,0,0h9.7c0.4,0,0.7,0.3,0.8,0.7l0.8,5.9h51.3c0.4,0,0.8,0.4,0.8,0.8c0,0,0,0.1,0,0.1l-5.1,30.4
			C168.8,77.8,168.5,78,168.1,78z M126,76.5h41.4l4.8-28.8h-50.1L126,76.5z"/>
		<path class="st0" d="M130.4,91.4c-2.8,0-5.1-2.3-5.1-5.1c0-2.8,2.3-5.1,5.1-5.1c2.8,0,5.1,2.3,5.1,5.1c0,0,0,0,0,0
			C135.5,89.2,133.2,91.4,130.4,91.4z M130.4,82.8c-1.9,0-3.5,1.6-3.5,3.5c0,1.9,1.6,3.5,3.5,3.5c1.9,0,3.5-1.6,3.5-3.5c0,0,0,0,0,0
			C133.9,84.4,132.3,82.8,130.4,82.8z"/>
		<path class="st0" d="M162.4,91.4c-2.8,0-5.1-2.3-5.1-5.1s2.3-5.1,5.1-5.1s5.1,2.3,5.1,5.1c0,0,0,0,0,0
			C167.5,89.2,165.2,91.4,162.4,91.4z M162.4,82.8c-1.9,0-3.5,1.6-3.5,3.5s1.6,3.5,3.5,3.5c1.9,0,3.5-1.6,3.5-3.5
			C165.9,84.4,164.3,82.8,162.4,82.8z"/>
		<path class="st0" d="M130.4,82.6c-0.3,0-0.6-0.2-0.6-0.6v-4.8c0-0.3,0.2-0.6,0.6-0.6c0.3,0,0.6,0.2,0.6,0.6V82
			C130.9,82.3,130.7,82.6,130.4,82.6z"/>
		<path class="st0" d="M162.4,82.6c-0.3,0-0.6-0.2-0.6-0.6v-4.8c0-0.3,0.3-0.5,0.6-0.5c0.3,0,0.5,0.2,0.5,0.5V82
			C162.9,82.3,162.7,82.6,162.4,82.6z"/>
		<path class="st0" d="M162.4,87.5c0.7,0,1.2-0.6,1.1-1.2c0-0.6-0.5-1.1-1.1-1.1c-0.7,0-1.2,0.6-1.1,1.2
			C161.2,87,161.7,87.5,162.4,87.5z"/>
		<path class="st0" d="M127.5,38.2c0.7,0,1.2-0.6,1.1-1.2c0-0.6-0.5-1.1-1.1-1.1c-0.7,0-1.2,0.6-1.1,1.2
			C126.4,37.7,126.9,38.2,127.5,38.2z"/>
		<path class="st0" d="M163.5,16.7c0.7,0,1.2-0.6,1.1-1.2c0-0.6-0.5-1.1-1.1-1.1c-0.7,0-1.2,0.6-1.1,1.2
			C162.4,16.2,162.9,16.7,163.5,16.7z"/>
		<path class="st0" d="M113.8,60c0.7,0,1.2-0.6,1.1-1.2c0-0.6-0.5-1.1-1.1-1.1c-0.7,0-1.2,0.6-1.1,1.2
			C112.7,59.5,113.2,59.9,113.8,60z"/>
		<path class="st0" d="M130.4,87.5c0.7,0,1.2-0.6,1.1-1.2c0-0.6-0.5-1.1-1.1-1.1c-0.7,0-1.2,0.6-1.1,1.2
			C129.2,87,129.7,87.5,130.4,87.5z"/>
		<path class="st0" d="M165.4,36.3c-0.4,0-0.8-0.4-0.8-0.8c0-0.3,0.2-0.5,0.4-0.7l2.3-1.3c0.4-0.2,0.9-0.1,1.1,0.3
			c0.2,0.4,0.1,0.9-0.3,1.1l0,0l-2.3,1.3C165.6,36.2,165.5,36.3,165.4,36.3z"/>
		<path class="st0" d="M171,33c-0.4,0-0.8-0.4-0.8-0.8c0-0.3,0.2-0.5,0.4-0.7l2.3-1.3c0.4-0.2,0.9-0.1,1.1,0.3
			c0.2,0.4,0.1,0.8-0.3,1.1l-2.3,1.3C171.3,33,171.1,33,171,33z"/>
		<path class="st0" d="M171.6,37.9c-0.3,0-0.5-0.2-0.7-0.4l-1.3-2.3c-0.2-0.4-0.1-0.9,0.3-1.1c0.4-0.2,0.9-0.1,1.1,0.3l1.3,2.3
			c0.2,0.4,0.1,0.9-0.3,1.1C171.9,37.9,171.7,37.9,171.6,37.9L171.6,37.9z"/>
		<path class="st0" d="M168.3,32.3c-0.3,0-0.5-0.2-0.7-0.4l-1.3-2.3c-0.2-0.4-0.1-0.9,0.3-1.1c0.4-0.2,0.9-0.1,1.1,0.3l1.3,2.3
			c0.2,0.4,0.1,0.9-0.3,1.1C168.6,32.3,168.5,32.3,168.3,32.3z"/>
		<path class="st0" d="M119.6,27.2c-0.4,0-0.8-0.4-0.8-0.8c0-0.1,0-0.2,0.1-0.3l1-2.4c0.2-0.4,0.6-0.6,1-0.4c0.4,0.2,0.6,0.6,0.4,1
			l-1,2.4C120.2,27,119.9,27.2,119.6,27.2z"/>
		<path class="st0" d="M122.2,21.2c-0.4,0-0.8-0.4-0.8-0.8c0-0.1,0-0.2,0.1-0.3l1-2.4c0.2-0.4,0.6-0.6,1-0.4c0.4,0.2,0.6,0.6,0.4,1
			c0,0,0,0,0,0l-1,2.4C122.8,21,122.5,21.2,122.2,21.2z"/>
		<path class="st0" d="M125.6,24.8c-0.1,0-0.2,0-0.3-0.1l-2.4-1c-0.4-0.2-0.6-0.6-0.4-1c0.2-0.4,0.6-0.6,1-0.4l0,0l2.4,1
			c0.4,0.2,0.6,0.6,0.4,1C126.2,24.6,125.9,24.8,125.6,24.8L125.6,24.8z"/>
		<path class="st0" d="M119.6,22.2c-0.1,0-0.2,0-0.3-0.1l-2.4-1c-0.4-0.2-0.6-0.6-0.4-1c0.2-0.4,0.6-0.6,1-0.4l0,0l2.4,1
			c0.4,0.2,0.6,0.6,0.4,1C120.2,22,120,22.2,119.6,22.2L119.6,22.2z"/>
		<path class="st0" d="M143,59.1h-3.5v-4l1.6-1.7h9.8l1.7,1.7v5.6l-1.9,1.7h-2.4l-0.9,1.2v1.9h-3.7v-3.6l1.7-1.9h3l0.5-0.6l0-2.9
			l-0.5-0.6l-4.8,0l-0.7,0.5L143,59.1z"/>
		<path class="st0" d="M147.6,65.7h-3.7c-0.2,0-0.4-0.2-0.4-0.4c0,0,0,0,0,0v-3.6c0-0.1,0-0.2,0.1-0.3l1.7-1.9
			c0.1-0.1,0.2-0.1,0.3-0.1h2.8l0.3-0.3l0-2.6l-0.3-0.4l-4.5,0l-0.4,0.3l0,2.6c0,0.2-0.2,0.4-0.4,0.4h-3.5c-0.2,0-0.4-0.2-0.4-0.4
			l0,0v-4c0-0.1,0-0.2,0.1-0.3l1.6-1.7c0.1-0.1,0.2-0.1,0.3-0.1h9.8c0.1,0,0.2,0,0.3,0.1l1.7,1.7c0.1,0.1,0.1,0.2,0.1,0.3v5.6
			c0,0.1,0,0.2-0.1,0.3l-1.9,1.7c-0.1,0.1-0.2,0.1-0.3,0.1h-2.2l-0.7,0.9v1.8C148,65.5,147.8,65.7,147.6,65.7L147.6,65.7z
			 M144.3,64.9h2.9v-1.5c0-0.1,0-0.2,0.1-0.2l0.9-1.2c0.1-0.1,0.2-0.2,0.3-0.2h2.2l1.6-1.5v-5.2l-1.5-1.4h-9.5l-1.4,1.4v3.5h2.7
			l0-2.4c0-0.1,0.1-0.2,0.2-0.3l0.7-0.5c0.1,0,0.2,0,0.2-0.1l4.8,0c0.1,0,0.2,0.1,0.3,0.1l0.5,0.6c0.1,0.1,0.1,0.2,0.1,0.3l0,2.9
			c0,0.1,0,0.2-0.1,0.3l-0.5,0.6c-0.1,0.1-0.2,0.1-0.3,0.1h-2.8l-1.5,1.6L144.3,64.9z"/>
		<path class="st0" d="M143.9,67.5h3.7v2.9h-3.7V67.5z"/>
		<path class="st0" d="M147.6,70.8h-3.7c-0.2,0-0.4-0.2-0.4-0.4c0,0,0,0,0,0v-2.9c0-0.2,0.2-0.4,0.4-0.4c0,0,0,0,0,0h3.7
			c0.2,0,0.4,0.2,0.4,0.4c0,0,0,0,0,0v2.9C148,70.6,147.8,70.8,147.6,70.8C147.6,70.8,147.6,70.8,147.6,70.8z M144.3,70h2.9v-2.1
			h-2.9V70z"/>
		<path class="st0" d="M163.5,74.5h-33.6c-1,0-1.8-0.7-1.9-1.7l-2.8-21.2c-0.1-1.1,0.6-2,1.7-2.2c0.1,0,0.2,0,0.2,0H167
			c1.1,0,1.9,0.9,1.9,1.9c0,0.1,0,0.2,0,0.3l-3.5,21.2C165.3,73.9,164.5,74.5,163.5,74.5z M127.1,50.3c-0.6,0-1.1,0.5-1.1,1.1
			c0,0,0,0.1,0,0.1l2.8,21.2c0.1,0.6,0.6,1,1.1,1h33.6c0.6,0,1-0.4,1.1-1l3.5-21.2c0.1-0.6-0.3-1.2-1-1.3c-0.1,0-0.1,0-0.2,0
			L127.1,50.3z"/>
		<path class="st0" d="M161.2,71.6c0.7,0,1.2-0.6,1.1-1.2c0-0.6-0.5-1.1-1.1-1.1c-0.7,0-1.2,0.6-1.1,1.2
			C160.1,71,160.6,71.5,161.2,71.6z"/>
		<path class="st0" d="M164.4,54.7c0.7,0,1.2-0.6,1.1-1.2c0-0.6-0.5-1.1-1.1-1.1c-0.7,0-1.2,0.6-1.1,1.2
			C163.3,54.2,163.8,54.7,164.4,54.7z"/>
		<path class="st0" d="M131.8,71.6c0.7,0,1.2-0.6,1.1-1.2c0-0.6-0.5-1.1-1.1-1.1c-0.7,0-1.2,0.6-1.1,1.2
			C130.7,71,131.2,71.5,131.8,71.6z"/>
		<path class="st0" d="M129.4,54.7c0.7,0,1.2-0.6,1.1-1.2c0-0.6-0.5-1.1-1.1-1.1c-0.7,0-1.2,0.6-1.1,1.2
			C128.3,54.2,128.8,54.7,129.4,54.7z"/>
	</g>
	<g>
		<g>
			<path class="st1" d="M64.5,114.1c0-0.7,0.1-1.4,0.4-1.9c0.2-0.6,0.6-1.1,1-1.5c0.4-0.4,0.9-0.7,1.5-0.9c0.6-0.2,1.2-0.3,1.9-0.3
				s1.3,0.1,1.9,0.3c0.6,0.2,1.1,0.5,1.5,0.9c0.4,0.4,0.8,0.9,1,1.5c0.2,0.6,0.4,1.2,0.4,1.9c0,0.7-0.1,1.4-0.4,1.9
				c-0.2,0.6-0.6,1.1-1,1.5c-0.4,0.4-0.9,0.7-1.5,0.9c-0.6,0.2-1.2,0.3-1.9,0.3s-1.3-0.1-1.9-0.3c-0.6-0.2-1.1-0.5-1.5-0.9
				c-0.4-0.4-0.8-0.9-1-1.5C64.6,115.4,64.5,114.8,64.5,114.1z M66.5,114.1c0,0.4,0.1,0.8,0.2,1.1c0.1,0.3,0.3,0.6,0.6,0.9
				c0.2,0.3,0.5,0.5,0.9,0.6c0.3,0.1,0.7,0.2,1.1,0.2s0.8-0.1,1.1-0.2c0.3-0.1,0.6-0.3,0.9-0.6c0.2-0.3,0.4-0.6,0.6-0.9
				c0.1-0.3,0.2-0.7,0.2-1.1c0-0.4-0.1-0.8-0.2-1.1c-0.1-0.4-0.3-0.7-0.6-0.9c-0.2-0.3-0.5-0.5-0.9-0.6c-0.3-0.1-0.7-0.2-1.1-0.2
				s-0.8,0.1-1.1,0.2c-0.3,0.1-0.6,0.3-0.9,0.6c-0.2,0.3-0.4,0.6-0.6,0.9C66.5,113.3,66.5,113.7,66.5,114.1z"/>
			<path class="st1" d="M75.8,113.9h-1.2v-1.5h1.2v-1.1c0-0.3,0-0.6,0.1-0.9c0.1-0.3,0.2-0.6,0.3-0.8c0.2-0.2,0.4-0.4,0.7-0.5
				c0.3-0.1,0.7-0.2,1.2-0.2c0.2,0,0.4,0,0.6,0s0.4,0,0.5,0.1l-0.1,1.6c-0.1,0-0.2-0.1-0.3-0.1s-0.2,0-0.3,0c-0.3,0-0.5,0.1-0.7,0.2
				c-0.2,0.1-0.2,0.4-0.2,0.8v1H79v1.5h-1.4v4.6h-1.9V113.9z"/>
			<path class="st1" d="M80.4,113.9h-1.2v-1.5h1.2v-1.1c0-0.3,0-0.6,0.1-0.9c0.1-0.3,0.2-0.6,0.3-0.8c0.2-0.2,0.4-0.4,0.7-0.5
				c0.3-0.1,0.7-0.2,1.2-0.2c0.2,0,0.4,0,0.6,0s0.4,0,0.5,0.1l-0.1,1.6c-0.1,0-0.2-0.1-0.3-0.1s-0.2,0-0.3,0c-0.3,0-0.5,0.1-0.7,0.2
				c-0.2,0.1-0.2,0.4-0.2,0.8v1h1.4v1.5h-1.4v4.6h-1.9V113.9z M84.2,110.5c0-0.3,0.1-0.6,0.3-0.8c0.2-0.2,0.5-0.3,0.8-0.3
				c0.3,0,0.6,0.1,0.8,0.3s0.3,0.5,0.3,0.8c0,0.3-0.1,0.6-0.3,0.8s-0.5,0.3-0.8,0.3c-0.3,0-0.6-0.1-0.8-0.3
				C84.3,111.1,84.2,110.8,84.2,110.5z M84.4,112.4h1.9v6.1h-1.9V112.4z"/>
			<path class="st1" d="M87.6,109h1.9v9.5h-1.9V109z"/>
			<path class="st1" d="M90.7,110.5c0-0.3,0.1-0.6,0.3-0.8s0.5-0.3,0.8-0.3s0.6,0.1,0.8,0.3s0.3,0.5,0.3,0.8c0,0.3-0.1,0.6-0.3,0.8
				s-0.5,0.3-0.8,0.3s-0.6-0.1-0.8-0.3S90.7,110.8,90.7,110.5z M90.9,112.4h1.9v6.1h-1.9V112.4z"/>
			<path class="st1" d="M94.1,112.4h1.8v0.8h0c0.1-0.1,0.1-0.2,0.2-0.4s0.2-0.2,0.4-0.3c0.2-0.1,0.3-0.2,0.5-0.2
				c0.2-0.1,0.4-0.1,0.6-0.1c0.5,0,0.9,0.1,1.2,0.2c0.3,0.1,0.5,0.3,0.7,0.6c0.2,0.3,0.3,0.6,0.3,0.9c0.1,0.4,0.1,0.7,0.1,1.1v3.4
				h-1.9v-3c0-0.2,0-0.4,0-0.5c0-0.2,0-0.4-0.1-0.5s-0.2-0.3-0.3-0.4c-0.1-0.1-0.3-0.1-0.6-0.1c-0.2,0-0.4,0-0.6,0.1
				c-0.2,0.1-0.3,0.2-0.3,0.4c-0.1,0.1-0.1,0.3-0.2,0.5s0,0.4,0,0.6v3h-1.9V112.4z"/>
			<path class="st1" d="M107.1,117.4c-0.3,0.4-0.7,0.7-1.1,0.9c-0.5,0.2-0.9,0.3-1.4,0.3c-0.5,0-0.9-0.1-1.3-0.2s-0.8-0.4-1.1-0.6
				s-0.5-0.6-0.7-1c-0.2-0.4-0.3-0.8-0.3-1.3c0-0.5,0.1-0.9,0.3-1.3c0.2-0.4,0.4-0.7,0.7-1s0.7-0.5,1.1-0.6s0.9-0.2,1.3-0.2
				c0.4,0,0.8,0.1,1.2,0.2s0.7,0.4,0.9,0.6s0.4,0.6,0.6,1c0.1,0.4,0.2,0.8,0.2,1.3v0.6H103c0.1,0.4,0.2,0.6,0.5,0.9s0.6,0.3,0.9,0.3
				c0.3,0,0.6-0.1,0.8-0.2s0.4-0.3,0.6-0.5L107.1,117.4z M105.5,114.8c0-0.3-0.1-0.6-0.3-0.8s-0.5-0.3-0.8-0.3c-0.2,0-0.4,0-0.6,0.1
				c-0.2,0.1-0.3,0.2-0.4,0.3c-0.1,0.1-0.2,0.2-0.3,0.4s-0.1,0.3-0.1,0.4H105.5z"/>
			<path class="st1" d="M116,117.7L116,117.7c-0.2,0.3-0.5,0.6-0.9,0.7c-0.3,0.1-0.7,0.2-1.1,0.2c-0.3,0-0.6,0-0.8-0.1
				s-0.5-0.2-0.7-0.4s-0.4-0.4-0.5-0.6c-0.1-0.2-0.2-0.5-0.2-0.8c0-0.4,0.1-0.6,0.2-0.9c0.1-0.2,0.3-0.4,0.5-0.6
				c0.2-0.2,0.5-0.3,0.8-0.4c0.3-0.1,0.6-0.2,0.9-0.2s0.6-0.1,0.9-0.1c0.3,0,0.6,0,0.8,0c0-0.3-0.1-0.6-0.4-0.8
				c-0.2-0.2-0.5-0.3-0.8-0.3c-0.3,0-0.6,0.1-0.8,0.2c-0.3,0.1-0.5,0.3-0.7,0.5l-1-1c0.4-0.3,0.8-0.6,1.2-0.7c0.5-0.2,1-0.2,1.5-0.2
				c0.6,0,1,0.1,1.4,0.2s0.6,0.3,0.9,0.6c0.2,0.3,0.4,0.6,0.4,1s0.1,0.8,0.1,1.3v3.1H116V117.7z M115.6,115.8c-0.1,0-0.3,0-0.5,0
				c-0.2,0-0.4,0-0.6,0.1c-0.2,0.1-0.4,0.1-0.5,0.3c-0.1,0.1-0.2,0.3-0.2,0.5c0,0.2,0.1,0.4,0.3,0.5c0.2,0.1,0.4,0.2,0.6,0.2
				c0.2,0,0.4,0,0.5-0.1c0.2-0.1,0.3-0.1,0.5-0.2s0.2-0.2,0.3-0.4s0.1-0.3,0.1-0.5v-0.4H115.6z"/>
			<path class="st1" d="M118.9,112.4h1.8v0.8h0c0.1-0.1,0.1-0.2,0.2-0.4s0.2-0.2,0.4-0.3c0.2-0.1,0.3-0.2,0.5-0.2
				c0.2-0.1,0.4-0.1,0.6-0.1c0.5,0,0.9,0.1,1.2,0.2c0.3,0.1,0.5,0.3,0.7,0.6c0.2,0.3,0.3,0.6,0.3,0.9c0.1,0.4,0.1,0.7,0.1,1.1v3.4
				h-1.9v-3c0-0.2,0-0.4,0-0.5c0-0.2,0-0.4-0.1-0.5s-0.2-0.3-0.3-0.4c-0.1-0.1-0.3-0.1-0.6-0.1c-0.2,0-0.4,0-0.6,0.1
				c-0.2,0.1-0.3,0.2-0.3,0.4c-0.1,0.1-0.1,0.3-0.2,0.5s0,0.4,0,0.6v3h-1.9V112.4z"/>
			<path class="st1" d="M132.5,118.5h-1.7v-0.8h0c-0.1,0.1-0.2,0.2-0.3,0.3c-0.1,0.1-0.3,0.2-0.4,0.3c-0.2,0.1-0.3,0.2-0.5,0.2
				c-0.2,0.1-0.4,0.1-0.6,0.1c-0.5,0-0.9-0.1-1.2-0.2s-0.7-0.4-0.9-0.7c-0.3-0.3-0.5-0.6-0.6-1c-0.1-0.4-0.2-0.8-0.2-1.3
				c0-0.4,0.1-0.8,0.2-1.2c0.1-0.4,0.3-0.7,0.6-1c0.2-0.3,0.5-0.5,0.9-0.7c0.3-0.2,0.7-0.3,1.2-0.3c0.4,0,0.8,0.1,1.1,0.2
				s0.6,0.3,0.8,0.6h0v-4h1.9V118.5z M130.8,115.5c0-0.5-0.1-0.8-0.4-1.1c-0.3-0.3-0.6-0.4-1.1-0.4s-0.8,0.1-1.1,0.4
				c-0.3,0.3-0.4,0.7-0.4,1.1s0.1,0.8,0.4,1.1c0.3,0.3,0.6,0.4,1.1,0.4s0.8-0.1,1.1-0.4C130.6,116.3,130.8,115.9,130.8,115.5z"/>
			<path class="st1" d="M137.5,114.1c0-0.7,0.1-1.4,0.4-1.9c0.2-0.6,0.6-1.1,1-1.5c0.4-0.4,0.9-0.7,1.5-0.9c0.6-0.2,1.2-0.3,1.9-0.3
				s1.3,0.1,1.9,0.3c0.6,0.2,1.1,0.5,1.5,0.9c0.4,0.4,0.8,0.9,1,1.5c0.2,0.6,0.4,1.2,0.4,1.9c0,0.7-0.1,1.4-0.4,1.9
				c-0.2,0.6-0.6,1.1-1,1.5c-0.4,0.4-0.9,0.7-1.5,0.9c-0.6,0.2-1.2,0.3-1.9,0.3s-1.3-0.1-1.9-0.3c-0.6-0.2-1.1-0.5-1.5-0.9
				c-0.4-0.4-0.8-0.9-1-1.5C137.6,115.4,137.5,114.8,137.5,114.1z M139.5,114.1c0,0.4,0.1,0.8,0.2,1.1c0.1,0.3,0.3,0.6,0.6,0.9
				c0.2,0.3,0.5,0.5,0.9,0.6c0.3,0.1,0.7,0.2,1.1,0.2s0.8-0.1,1.1-0.2c0.3-0.1,0.6-0.3,0.9-0.6c0.2-0.3,0.4-0.6,0.6-0.9
				c0.1-0.3,0.2-0.7,0.2-1.1c0-0.4-0.1-0.8-0.2-1.1c-0.1-0.4-0.3-0.7-0.6-0.9c-0.2-0.3-0.5-0.5-0.9-0.6c-0.3-0.1-0.7-0.2-1.1-0.2
				s-0.8,0.1-1.1,0.2c-0.3,0.1-0.6,0.3-0.9,0.6c-0.2,0.3-0.4,0.6-0.6,0.9C139.5,113.3,139.5,113.7,139.5,114.1z"/>
			<path class="st1" d="M148.1,112.4h1.8v0.8h0c0.1-0.1,0.1-0.2,0.2-0.4s0.2-0.2,0.4-0.3c0.2-0.1,0.3-0.2,0.5-0.2
				c0.2-0.1,0.4-0.1,0.6-0.1c0.5,0,0.9,0.1,1.2,0.2c0.3,0.1,0.5,0.3,0.7,0.6c0.2,0.3,0.3,0.6,0.3,0.9c0.1,0.4,0.1,0.7,0.1,1.1v3.4
				h-1.9v-3c0-0.2,0-0.4,0-0.5c0-0.2,0-0.4-0.1-0.5s-0.2-0.3-0.3-0.4c-0.1-0.1-0.3-0.1-0.6-0.1c-0.2,0-0.4,0-0.6,0.1
				c-0.2,0.1-0.3,0.2-0.3,0.4c-0.1,0.1-0.1,0.3-0.2,0.5s0,0.4,0,0.6v3h-1.9V112.4z"/>
			<path class="st1" d="M155.3,109h1.9v9.5h-1.9V109z"/>
			<path class="st1" d="M158.4,110.5c0-0.3,0.1-0.6,0.3-0.8s0.5-0.3,0.8-0.3s0.6,0.1,0.8,0.3s0.3,0.5,0.3,0.8c0,0.3-0.1,0.6-0.3,0.8
				s-0.5,0.3-0.8,0.3s-0.6-0.1-0.8-0.3S158.4,110.8,158.4,110.5z M158.6,112.4h1.9v6.1h-1.9V112.4z"/>
			<path class="st1" d="M161.8,112.4h1.8v0.8h0c0.1-0.1,0.1-0.2,0.2-0.4s0.2-0.2,0.4-0.3c0.2-0.1,0.3-0.2,0.5-0.2
				c0.2-0.1,0.4-0.1,0.6-0.1c0.5,0,0.9,0.1,1.2,0.2c0.3,0.1,0.5,0.3,0.7,0.6c0.2,0.3,0.3,0.6,0.3,0.9c0.1,0.4,0.1,0.7,0.1,1.1v3.4
				h-1.9v-3c0-0.2,0-0.4,0-0.5c0-0.2,0-0.4-0.1-0.5s-0.2-0.3-0.3-0.4c-0.1-0.1-0.3-0.1-0.6-0.1c-0.2,0-0.4,0-0.6,0.1
				c-0.2,0.1-0.3,0.2-0.3,0.4c-0.1,0.1-0.1,0.3-0.2,0.5s0,0.4,0,0.6v3h-1.9V112.4z"/>
			<path class="st1" d="M174.7,117.4c-0.3,0.4-0.7,0.7-1.1,0.9c-0.5,0.2-0.9,0.3-1.4,0.3c-0.5,0-0.9-0.1-1.3-0.2s-0.8-0.4-1.1-0.6
				s-0.5-0.6-0.7-1c-0.2-0.4-0.3-0.8-0.3-1.3c0-0.5,0.1-0.9,0.3-1.3c0.2-0.4,0.4-0.7,0.7-1s0.7-0.5,1.1-0.6s0.9-0.2,1.3-0.2
				c0.4,0,0.8,0.1,1.2,0.2s0.7,0.4,0.9,0.6s0.4,0.6,0.6,1c0.1,0.4,0.2,0.8,0.2,1.3v0.6h-4.4c0.1,0.4,0.2,0.6,0.5,0.9
				s0.6,0.3,0.9,0.3c0.3,0,0.6-0.1,0.8-0.2s0.4-0.3,0.6-0.5L174.7,117.4z M173.1,114.8c0-0.3-0.1-0.6-0.3-0.8s-0.5-0.3-0.8-0.3
				c-0.2,0-0.4,0-0.6,0.1c-0.2,0.1-0.3,0.2-0.4,0.3c-0.1,0.1-0.2,0.2-0.3,0.4s-0.1,0.3-0.1,0.4H173.1z"/>
			<path class="st1" d="M180.1,109.6h3l2,5.8h0l2.1-5.8h2.9v8.9h-2v-6.8h0l-2.3,6.8h-1.5l-2.2-6.8h0v6.8h-2V109.6z"/>
			<path class="st1" d="M197.4,117.4c-0.3,0.4-0.7,0.7-1.1,0.9c-0.5,0.2-0.9,0.3-1.4,0.3c-0.5,0-0.9-0.1-1.3-0.2s-0.8-0.4-1.1-0.6
				s-0.5-0.6-0.7-1c-0.2-0.4-0.3-0.8-0.3-1.3c0-0.5,0.1-0.9,0.3-1.3c0.2-0.4,0.4-0.7,0.7-1s0.7-0.5,1.1-0.6s0.9-0.2,1.3-0.2
				c0.4,0,0.8,0.1,1.2,0.2s0.7,0.4,0.9,0.6s0.4,0.6,0.6,1c0.1,0.4,0.2,0.8,0.2,1.3v0.6h-4.4c0.1,0.4,0.2,0.6,0.5,0.9
				s0.6,0.3,0.9,0.3c0.3,0,0.6-0.1,0.8-0.2s0.4-0.3,0.6-0.5L197.4,117.4z M195.8,114.8c0-0.3-0.1-0.6-0.3-0.8s-0.5-0.3-0.8-0.3
				c-0.2,0-0.4,0-0.6,0.1c-0.2,0.1-0.3,0.2-0.4,0.3c-0.1,0.1-0.2,0.2-0.3,0.4s-0.1,0.3-0.1,0.4H195.8z"/>
			<path class="st1" d="M205.2,118.5h-1.7v-0.8h0c-0.1,0.1-0.2,0.2-0.3,0.3c-0.1,0.1-0.3,0.2-0.4,0.3c-0.2,0.1-0.3,0.2-0.5,0.2
				c-0.2,0.1-0.4,0.1-0.6,0.1c-0.5,0-0.9-0.1-1.2-0.2s-0.7-0.4-0.9-0.7c-0.3-0.3-0.5-0.6-0.6-1c-0.1-0.4-0.2-0.8-0.2-1.3
				c0-0.4,0.1-0.8,0.2-1.2c0.1-0.4,0.3-0.7,0.6-1c0.2-0.3,0.5-0.5,0.9-0.7c0.3-0.2,0.7-0.3,1.2-0.3c0.4,0,0.8,0.1,1.1,0.2
				s0.6,0.3,0.8,0.6h0v-4h1.9V118.5z M203.5,115.5c0-0.5-0.1-0.8-0.4-1.1c-0.3-0.3-0.6-0.4-1.1-0.4s-0.8,0.1-1.1,0.4
				c-0.3,0.3-0.4,0.7-0.4,1.1s0.1,0.8,0.4,1.1c0.3,0.3,0.6,0.4,1.1,0.4s0.8-0.1,1.1-0.4C203.4,116.3,203.5,115.9,203.5,115.5z"/>
			<path class="st1" d="M206.6,110.5c0-0.3,0.1-0.6,0.3-0.8s0.5-0.3,0.8-0.3s0.6,0.1,0.8,0.3s0.3,0.5,0.3,0.8c0,0.3-0.1,0.6-0.3,0.8
				s-0.5,0.3-0.8,0.3s-0.6-0.1-0.8-0.3S206.6,110.8,206.6,110.5z M206.8,112.4h1.9v6.1h-1.9V112.4z"/>
			<path class="st1" d="M213.8,117.7L213.8,117.7c-0.2,0.3-0.5,0.6-0.9,0.7c-0.3,0.1-0.7,0.2-1.1,0.2c-0.3,0-0.6,0-0.8-0.1
				s-0.5-0.2-0.7-0.4s-0.4-0.4-0.5-0.6c-0.1-0.2-0.2-0.5-0.2-0.8c0-0.4,0.1-0.6,0.2-0.9c0.1-0.2,0.3-0.4,0.5-0.6
				c0.2-0.2,0.5-0.3,0.8-0.4c0.3-0.1,0.6-0.2,0.9-0.2s0.6-0.1,0.9-0.1c0.3,0,0.6,0,0.8,0c0-0.3-0.1-0.6-0.4-0.8
				c-0.2-0.2-0.5-0.3-0.8-0.3c-0.3,0-0.6,0.1-0.8,0.2c-0.3,0.1-0.5,0.3-0.7,0.5l-1-1c0.4-0.3,0.8-0.6,1.2-0.7c0.5-0.2,1-0.2,1.5-0.2
				c0.6,0,1,0.1,1.4,0.2s0.6,0.3,0.9,0.6c0.2,0.3,0.4,0.6,0.4,1s0.1,0.8,0.1,1.3v3.1h-1.7V117.7z M213.4,115.8c-0.1,0-0.3,0-0.5,0
				c-0.2,0-0.4,0-0.6,0.1c-0.2,0.1-0.4,0.1-0.5,0.3c-0.1,0.1-0.2,0.3-0.2,0.5c0,0.2,0.1,0.4,0.3,0.5c0.2,0.1,0.4,0.2,0.6,0.2
				c0.2,0,0.4,0,0.5-0.1c0.2-0.1,0.3-0.1,0.5-0.2s0.2-0.2,0.3-0.4s0.1-0.3,0.1-0.5v-0.4H213.4z"/>
			<path class="st1" d="M69.4,124.7h3.3c0.4,0,0.8,0,1.2,0.1c0.4,0.1,0.7,0.2,1,0.3c0.3,0.2,0.6,0.4,0.8,0.7
				c0.2,0.3,0.3,0.7,0.3,1.2c0,0.5-0.1,0.9-0.4,1.2c-0.3,0.3-0.6,0.6-1.1,0.7v0c0.3,0,0.6,0.1,0.8,0.2c0.2,0.1,0.4,0.3,0.6,0.5
				c0.2,0.2,0.3,0.4,0.4,0.7c0.1,0.3,0.1,0.5,0.1,0.8c0,0.5-0.1,0.9-0.3,1.2c-0.2,0.3-0.5,0.6-0.8,0.8c-0.3,0.2-0.7,0.3-1.1,0.4
				s-0.8,0.1-1.2,0.1h-3.6V124.7z M71.4,128.2h1.4c0.2,0,0.3,0,0.4-0.1c0.1,0,0.3-0.1,0.4-0.2c0.1-0.1,0.2-0.2,0.3-0.3
				c0.1-0.1,0.1-0.3,0.1-0.5c0-0.2,0-0.3-0.1-0.5s-0.2-0.2-0.3-0.3c-0.1-0.1-0.3-0.1-0.4-0.1c-0.2,0-0.3,0-0.5,0h-1.3V128.2z
				 M71.4,131.9h1.8c0.2,0,0.3,0,0.5,0s0.3-0.1,0.4-0.2c0.1-0.1,0.2-0.2,0.3-0.3c0.1-0.1,0.1-0.3,0.1-0.5c0-0.2-0.1-0.4-0.2-0.5
				c-0.1-0.1-0.2-0.2-0.4-0.3c-0.2-0.1-0.3-0.1-0.5-0.1c-0.2,0-0.4,0-0.5,0h-1.5V131.9z"/>
			<path class="st1" d="M83.2,133.5h-1.8v-0.8h0c-0.1,0.1-0.2,0.2-0.3,0.4s-0.2,0.2-0.4,0.3c-0.2,0.1-0.3,0.2-0.5,0.2
				c-0.2,0.1-0.4,0.1-0.6,0.1c-0.5,0-0.9-0.1-1.2-0.2c-0.3-0.1-0.5-0.3-0.7-0.6c-0.2-0.3-0.3-0.6-0.3-0.9c-0.1-0.3-0.1-0.7-0.1-1.1
				v-3.4h1.9v3c0,0.2,0,0.4,0,0.5c0,0.2,0,0.4,0.1,0.5c0.1,0.2,0.2,0.3,0.3,0.4c0.1,0.1,0.3,0.2,0.6,0.2s0.4,0,0.6-0.1
				c0.2-0.1,0.3-0.2,0.3-0.4c0.1-0.1,0.1-0.3,0.2-0.5s0-0.4,0-0.6v-3h1.9V133.5z"/>
			<path class="st1" d="M88,134.5c-0.1,0.3-0.2,0.6-0.4,0.9c-0.1,0.2-0.3,0.5-0.4,0.6c-0.2,0.2-0.4,0.3-0.7,0.4s-0.6,0.1-1.1,0.1
				c-0.5,0-1-0.1-1.4-0.2l0.3-1.5c0.3,0.1,0.6,0.2,0.9,0.2c0.2,0,0.4,0,0.5-0.1s0.2-0.1,0.3-0.2c0.1-0.1,0.2-0.2,0.2-0.3
				c0.1-0.1,0.1-0.3,0.2-0.4l0.1-0.4l-2.7-6.1h2l1.6,4h0l1.3-4h1.9L88,134.5z"/>
			<path class="st1" d="M91.3,125.5c0-0.3,0.1-0.6,0.3-0.8s0.5-0.3,0.8-0.3s0.6,0.1,0.8,0.3s0.3,0.5,0.3,0.8c0,0.3-0.1,0.6-0.3,0.8
				s-0.5,0.3-0.8,0.3s-0.6-0.1-0.8-0.3S91.3,125.8,91.3,125.5z M91.5,127.4h1.9v6.1h-1.9V127.4z"/>
			<path class="st1" d="M94.7,127.4h1.8v0.8h0c0.1-0.1,0.1-0.2,0.2-0.4s0.2-0.2,0.4-0.3c0.2-0.1,0.3-0.2,0.5-0.2
				c0.2-0.1,0.4-0.1,0.6-0.1c0.5,0,0.9,0.1,1.2,0.2c0.3,0.1,0.5,0.3,0.7,0.6c0.2,0.3,0.3,0.6,0.3,0.9c0.1,0.4,0.1,0.7,0.1,1.1v3.4
				h-1.9v-3c0-0.2,0-0.4,0-0.5c0-0.2,0-0.4-0.1-0.5s-0.2-0.3-0.3-0.4c-0.1-0.1-0.3-0.1-0.6-0.1c-0.2,0-0.4,0-0.6,0.1
				c-0.2,0.1-0.3,0.2-0.3,0.4c-0.1,0.1-0.1,0.3-0.2,0.5s0,0.4,0,0.6v3h-1.9V127.4z"/>
			<path class="st1" d="M108.3,133c0,1.2-0.3,2-0.9,2.6s-1.5,0.9-2.6,0.9c-0.5,0-1.1-0.1-1.6-0.2c-0.5-0.1-1-0.4-1.5-0.7l1-1.6
				c0.3,0.2,0.6,0.4,0.9,0.6c0.3,0.1,0.7,0.2,1.1,0.2c0.6,0,1-0.1,1.3-0.4c0.3-0.3,0.4-0.6,0.4-1.1v-0.6h0c-0.2,0.3-0.5,0.5-0.8,0.6
				s-0.6,0.2-0.9,0.2c-0.5,0-0.9-0.1-1.2-0.2s-0.7-0.4-0.9-0.7c-0.3-0.3-0.5-0.6-0.6-1c-0.1-0.4-0.2-0.8-0.2-1.3
				c0-0.4,0.1-0.8,0.2-1.2c0.1-0.4,0.3-0.7,0.6-1c0.2-0.3,0.5-0.5,0.9-0.7c0.3-0.2,0.7-0.3,1.2-0.3c0.3,0,0.5,0,0.7,0.1
				s0.4,0.1,0.6,0.2c0.2,0.1,0.3,0.2,0.5,0.3c0.1,0.1,0.2,0.2,0.3,0.3h0v-0.8h1.7V133z M103.6,130.4c0,0.2,0,0.4,0.1,0.6
				c0.1,0.2,0.2,0.3,0.3,0.5s0.3,0.2,0.5,0.3c0.2,0.1,0.4,0.1,0.6,0.1c0.2,0,0.4,0,0.6-0.1c0.2-0.1,0.3-0.2,0.5-0.3s0.2-0.3,0.3-0.5
				c0.1-0.2,0.1-0.4,0.1-0.6c0-0.2,0-0.4-0.1-0.6c-0.1-0.2-0.2-0.3-0.3-0.5s-0.3-0.2-0.5-0.3s-0.4-0.1-0.6-0.1c-0.2,0-0.4,0-0.6,0.1
				c-0.2,0.1-0.3,0.2-0.5,0.3s-0.2,0.3-0.3,0.5C103.6,130,103.6,130.2,103.6,130.4z"/>
			<path class="st1" d="M117.3,132.8L117.3,132.8c-0.2,0.3-0.5,0.6-0.9,0.7c-0.3,0.1-0.7,0.2-1.1,0.2c-0.3,0-0.6,0-0.8-0.1
				s-0.5-0.2-0.7-0.4s-0.4-0.4-0.5-0.6c-0.1-0.2-0.2-0.5-0.2-0.8c0-0.4,0.1-0.6,0.2-0.9c0.1-0.2,0.3-0.4,0.5-0.6
				c0.2-0.2,0.5-0.3,0.8-0.4c0.3-0.1,0.6-0.2,0.9-0.2s0.6-0.1,0.9-0.1c0.3,0,0.6,0,0.8,0c0-0.3-0.1-0.6-0.4-0.8
				c-0.2-0.2-0.5-0.3-0.8-0.3c-0.3,0-0.6,0.1-0.8,0.2c-0.3,0.1-0.5,0.3-0.7,0.5l-1-1c0.4-0.3,0.8-0.6,1.2-0.7c0.5-0.2,1-0.2,1.5-0.2
				c0.6,0,1,0.1,1.4,0.2s0.6,0.3,0.9,0.6c0.2,0.3,0.4,0.6,0.4,1s0.1,0.8,0.1,1.3v3.1h-1.7V132.8z M116.8,130.9c-0.1,0-0.3,0-0.5,0
				c-0.2,0-0.4,0-0.6,0.1c-0.2,0.1-0.4,0.1-0.5,0.3c-0.1,0.1-0.2,0.3-0.2,0.5c0,0.2,0.1,0.4,0.3,0.5c0.2,0.1,0.4,0.2,0.6,0.2
				c0.2,0,0.4,0,0.5-0.1c0.2-0.1,0.3-0.1,0.5-0.2s0.2-0.2,0.3-0.4s0.1-0.3,0.1-0.5v-0.4H116.8z"/>
			<path class="st1" d="M120.2,127.4h1.8v0.8h0c0.1-0.1,0.1-0.2,0.2-0.4s0.2-0.2,0.4-0.3c0.2-0.1,0.3-0.2,0.5-0.2
				c0.2-0.1,0.4-0.1,0.6-0.1c0.5,0,0.9,0.1,1.2,0.2c0.3,0.1,0.5,0.3,0.7,0.6c0.2,0.3,0.3,0.6,0.3,0.9c0.1,0.4,0.1,0.7,0.1,1.1v3.4
				h-1.9v-3c0-0.2,0-0.4,0-0.5c0-0.2,0-0.4-0.1-0.5s-0.2-0.3-0.3-0.4c-0.1-0.1-0.3-0.1-0.6-0.1c-0.2,0-0.4,0-0.6,0.1
				c-0.2,0.1-0.3,0.2-0.3,0.4c-0.1,0.1-0.1,0.3-0.2,0.5s0,0.4,0,0.6v3h-1.9V127.4z"/>
			<path class="st1" d="M133.8,133.5H132v-0.8h0c-0.1,0.1-0.2,0.2-0.3,0.3c-0.1,0.1-0.3,0.2-0.4,0.3c-0.2,0.1-0.3,0.2-0.5,0.2
				c-0.2,0.1-0.4,0.1-0.6,0.1c-0.5,0-0.9-0.1-1.2-0.2s-0.7-0.4-0.9-0.7c-0.3-0.3-0.5-0.6-0.6-1c-0.1-0.4-0.2-0.8-0.2-1.3
				c0-0.4,0.1-0.8,0.2-1.2c0.1-0.4,0.3-0.7,0.6-1c0.2-0.3,0.5-0.5,0.9-0.7c0.3-0.2,0.7-0.3,1.2-0.3c0.4,0,0.8,0.1,1.1,0.2
				s0.6,0.3,0.8,0.6h0v-4h1.9V133.5z M132,130.5c0-0.5-0.1-0.8-0.4-1.1c-0.3-0.3-0.6-0.4-1.1-0.4s-0.8,0.1-1.1,0.4
				c-0.3,0.3-0.4,0.7-0.4,1.1s0.1,0.8,0.4,1.1c0.3,0.3,0.6,0.4,1.1,0.4s0.8-0.1,1.1-0.4C131.9,131.3,132,130.9,132,130.5z"/>
			<path class="st1" d="M138.7,129.1c0-0.7,0.1-1.4,0.4-1.9c0.2-0.6,0.6-1.1,1-1.5c0.4-0.4,0.9-0.7,1.5-0.9c0.6-0.2,1.2-0.3,1.9-0.3
				s1.3,0.1,1.9,0.3c0.6,0.2,1.1,0.5,1.5,0.9c0.4,0.4,0.8,0.9,1,1.5c0.2,0.6,0.4,1.2,0.4,1.9c0,0.7-0.1,1.4-0.4,1.9
				c-0.2,0.6-0.6,1.1-1,1.5c-0.4,0.4-0.9,0.7-1.5,0.9c-0.6,0.2-1.2,0.3-1.9,0.3s-1.3-0.1-1.9-0.3c-0.6-0.2-1.1-0.5-1.5-0.9
				c-0.4-0.4-0.8-0.9-1-1.5C138.9,130.4,138.7,129.8,138.7,129.1z M140.8,129.1c0,0.4,0.1,0.8,0.2,1.1c0.1,0.3,0.3,0.6,0.6,0.9
				c0.2,0.3,0.5,0.5,0.9,0.6c0.3,0.1,0.7,0.2,1.1,0.2s0.8-0.1,1.1-0.2c0.3-0.1,0.6-0.3,0.9-0.6c0.2-0.3,0.4-0.6,0.6-0.9
				c0.1-0.3,0.2-0.7,0.2-1.1c0-0.4-0.1-0.8-0.2-1.1c-0.1-0.4-0.3-0.7-0.6-0.9c-0.2-0.3-0.5-0.5-0.9-0.6c-0.3-0.1-0.7-0.2-1.1-0.2
				s-0.8,0.1-1.1,0.2c-0.3,0.1-0.6,0.3-0.9,0.6c-0.2,0.3-0.4,0.6-0.6,0.9C140.8,128.3,140.8,128.7,140.8,129.1z"/>
			<path class="st1" d="M149.6,127.4h1.7v0.8h0c0.1-0.1,0.2-0.2,0.3-0.3c0.1-0.1,0.3-0.2,0.4-0.3c0.2-0.1,0.3-0.2,0.5-0.2
				c0.2-0.1,0.4-0.1,0.6-0.1c0.5,0,0.9,0.1,1.2,0.2s0.7,0.4,0.9,0.7c0.3,0.3,0.5,0.6,0.6,1c0.1,0.4,0.2,0.8,0.2,1.3
				c0,0.4-0.1,0.8-0.2,1.2c-0.1,0.4-0.3,0.7-0.6,1c-0.2,0.3-0.5,0.5-0.9,0.7c-0.3,0.2-0.7,0.3-1.2,0.3c-0.4,0-0.8-0.1-1.1-0.2
				s-0.6-0.3-0.8-0.6h0v3.5h-1.9V127.4z M151.3,130.5c0,0.5,0.1,0.8,0.4,1.1c0.3,0.3,0.6,0.4,1.1,0.4s0.8-0.1,1.1-0.4
				c0.3-0.3,0.4-0.7,0.4-1.1s-0.1-0.8-0.4-1.1c-0.3-0.3-0.6-0.4-1.1-0.4s-0.8,0.1-1.1,0.4C151.4,129.6,151.3,130,151.3,130.5z"/>
			<path class="st1" d="M161.4,128.9h-1.7v2c0,0.2,0,0.3,0,0.5c0,0.1,0.1,0.3,0.1,0.4c0.1,0.1,0.1,0.2,0.3,0.2
				c0.1,0.1,0.3,0.1,0.5,0.1c0.1,0,0.2,0,0.4,0s0.3-0.1,0.4-0.1v1.6c-0.2,0.1-0.4,0.1-0.7,0.1c-0.2,0-0.4,0-0.7,0
				c-0.3,0-0.6,0-0.9-0.1c-0.3-0.1-0.5-0.2-0.7-0.3c-0.2-0.1-0.4-0.3-0.5-0.6c-0.1-0.2-0.2-0.5-0.2-0.9v-2.9h-1.2v-1.5h1.2v-1.8h1.9
				v1.8h1.7V128.9z"/>
			<path class="st1" d="M162.2,125.5c0-0.3,0.1-0.6,0.3-0.8s0.5-0.3,0.8-0.3s0.6,0.1,0.8,0.3s0.3,0.5,0.3,0.8c0,0.3-0.1,0.6-0.3,0.8
				s-0.5,0.3-0.8,0.3s-0.6-0.1-0.8-0.3S162.2,125.8,162.2,125.5z M162.4,127.4h1.9v6.1h-1.9V127.4z"/>
			<path class="st1" d="M165.6,127.4h1.8v0.8h0c0.1-0.1,0.1-0.2,0.2-0.4s0.2-0.2,0.4-0.3c0.2-0.1,0.3-0.2,0.5-0.2
				c0.2-0.1,0.4-0.1,0.6-0.1c0.4,0,0.8,0.1,1.1,0.3c0.3,0.2,0.6,0.5,0.7,0.8c0.2-0.4,0.5-0.7,0.8-0.8c0.3-0.2,0.7-0.2,1.1-0.2
				c0.4,0,0.8,0.1,1,0.2s0.5,0.3,0.7,0.6c0.2,0.2,0.3,0.5,0.4,0.8c0.1,0.3,0.1,0.7,0.1,1v3.6h-1.9V130c0-0.3-0.1-0.5-0.2-0.7
				c-0.1-0.2-0.3-0.3-0.6-0.3c-0.2,0-0.4,0-0.5,0.1c-0.1,0.1-0.3,0.2-0.3,0.3c-0.1,0.1-0.2,0.3-0.2,0.4c0,0.2-0.1,0.3-0.1,0.5v3.2
				h-1.9v-3.2c0-0.1,0-0.2,0-0.4c0-0.2,0-0.3-0.1-0.5s-0.1-0.3-0.2-0.4c-0.1-0.1-0.3-0.1-0.5-0.1c-0.2,0-0.4,0-0.6,0.1
				c-0.2,0.1-0.3,0.2-0.3,0.4c-0.1,0.1-0.1,0.3-0.2,0.5s0,0.4,0,0.6v3h-1.9V127.4z"/>
			<path class="st1" d="M176.4,125.5c0-0.3,0.1-0.6,0.3-0.8s0.5-0.3,0.8-0.3s0.6,0.1,0.8,0.3s0.3,0.5,0.3,0.8c0,0.3-0.1,0.6-0.3,0.8
				s-0.5,0.3-0.8,0.3s-0.6-0.1-0.8-0.3S176.4,125.8,176.4,125.5z M176.5,127.4h1.9v6.1h-1.9V127.4z"/>
			<path class="st1" d="M179.5,131.6l3.2-2.7h-3.1v-1.5h5.3v1.8l-3.3,2.8h3.4v1.5h-5.4V131.6z"/>
			<path class="st1" d="M189.8,132.8L189.8,132.8c-0.2,0.3-0.5,0.6-0.9,0.7c-0.3,0.1-0.7,0.2-1.1,0.2c-0.3,0-0.6,0-0.8-0.1
				s-0.5-0.2-0.7-0.4s-0.4-0.4-0.5-0.6c-0.1-0.2-0.2-0.5-0.2-0.8c0-0.4,0.1-0.6,0.2-0.9c0.1-0.2,0.3-0.4,0.5-0.6
				c0.2-0.2,0.5-0.3,0.8-0.4c0.3-0.1,0.6-0.2,0.9-0.2s0.6-0.1,0.9-0.1c0.3,0,0.6,0,0.8,0c0-0.3-0.1-0.6-0.4-0.8
				c-0.2-0.2-0.5-0.3-0.8-0.3c-0.3,0-0.6,0.1-0.8,0.2c-0.3,0.1-0.5,0.3-0.7,0.5l-1-1c0.4-0.3,0.8-0.6,1.2-0.7c0.5-0.2,1-0.2,1.5-0.2
				c0.6,0,1,0.1,1.4,0.2s0.6,0.3,0.9,0.6c0.2,0.3,0.4,0.6,0.4,1s0.1,0.8,0.1,1.3v3.1h-1.7V132.8z M189.4,130.9c-0.1,0-0.3,0-0.5,0
				c-0.2,0-0.4,0-0.6,0.1c-0.2,0.1-0.4,0.1-0.5,0.3c-0.1,0.1-0.2,0.3-0.2,0.5c0,0.2,0.1,0.4,0.3,0.5c0.2,0.1,0.4,0.2,0.6,0.2
				c0.2,0,0.4,0,0.5-0.1c0.2-0.1,0.3-0.1,0.5-0.2s0.2-0.2,0.3-0.4s0.1-0.3,0.1-0.5v-0.4H189.4z"/>
			<path class="st1" d="M196.9,128.9h-1.7v2c0,0.2,0,0.3,0,0.5c0,0.1,0.1,0.3,0.1,0.4c0.1,0.1,0.1,0.2,0.3,0.2
				c0.1,0.1,0.3,0.1,0.5,0.1c0.1,0,0.2,0,0.4,0s0.3-0.1,0.4-0.1v1.6c-0.2,0.1-0.4,0.1-0.7,0.1c-0.2,0-0.4,0-0.7,0
				c-0.3,0-0.6,0-0.9-0.1c-0.3-0.1-0.5-0.2-0.7-0.3c-0.2-0.1-0.4-0.3-0.5-0.6c-0.1-0.2-0.2-0.5-0.2-0.9v-2.9h-1.2v-1.5h1.2v-1.8h1.9
				v1.8h1.7V128.9z"/>
			<path class="st1" d="M197.7,125.5c0-0.3,0.1-0.6,0.3-0.8s0.5-0.3,0.8-0.3s0.6,0.1,0.8,0.3s0.3,0.5,0.3,0.8c0,0.3-0.1,0.6-0.3,0.8
				s-0.5,0.3-0.8,0.3s-0.6-0.1-0.8-0.3S197.7,125.8,197.7,125.5z M197.9,127.4h1.9v6.1h-1.9V127.4z"/>
			<path class="st1" d="M200.9,130.5c0-0.5,0.1-0.9,0.3-1.3c0.2-0.4,0.4-0.7,0.7-1c0.3-0.3,0.7-0.5,1.1-0.6c0.4-0.2,0.9-0.2,1.3-0.2
				c0.5,0,0.9,0.1,1.3,0.2c0.4,0.2,0.8,0.4,1.1,0.6c0.3,0.3,0.5,0.6,0.7,1c0.2,0.4,0.3,0.8,0.3,1.3c0,0.5-0.1,0.9-0.3,1.3
				c-0.2,0.4-0.4,0.7-0.7,1c-0.3,0.3-0.7,0.5-1.1,0.6c-0.4,0.2-0.9,0.2-1.3,0.2c-0.5,0-0.9-0.1-1.3-0.2c-0.4-0.2-0.8-0.4-1.1-0.6
				c-0.3-0.3-0.5-0.6-0.7-1C201,131.4,200.9,131,200.9,130.5z M202.7,130.5c0,0.5,0.1,0.8,0.4,1.1c0.3,0.3,0.6,0.4,1.1,0.4
				s0.8-0.1,1.1-0.4c0.3-0.3,0.4-0.7,0.4-1.1s-0.1-0.8-0.4-1.1c-0.3-0.3-0.6-0.4-1.1-0.4s-0.8,0.1-1.1,0.4
				C202.9,129.6,202.7,130,202.7,130.5z"/>
			<path class="st1" d="M208.7,127.4h1.8v0.8h0c0.1-0.1,0.1-0.2,0.2-0.4s0.2-0.2,0.4-0.3c0.2-0.1,0.3-0.2,0.5-0.2
				c0.2-0.1,0.4-0.1,0.6-0.1c0.5,0,0.9,0.1,1.2,0.2c0.3,0.1,0.5,0.3,0.7,0.6c0.2,0.3,0.3,0.6,0.3,0.9c0.1,0.4,0.1,0.7,0.1,1.1v3.4
				h-1.9v-3c0-0.2,0-0.4,0-0.5c0-0.2,0-0.4-0.1-0.5s-0.2-0.3-0.3-0.4c-0.1-0.1-0.3-0.1-0.6-0.1c-0.2,0-0.4,0-0.6,0.1
				c-0.2,0.1-0.3,0.2-0.3,0.4c-0.1,0.1-0.1,0.3-0.2,0.5s0,0.4,0,0.6v3h-1.9V127.4z"/>
		</g>
	</g>
</g>
</svg>
