<?xml version="1.0" encoding="utf-8"?>
<!-- Generator: Adobe Illustrator 23.0.4, SVG Export Plug-In . SVG Version: 6.00 Build 0)  -->
<svg version="1.1" id="Layer_1" xmlns="http://www.w3.org/2000/svg" xmlns:xlink="http://www.w3.org/1999/xlink" x="0px" y="0px"
	 viewBox="0 0 280 149.2" style="enable-background:new 0 0 280 149.2;" xml:space="preserve">
<style type="text/css">
	.st0{fill:#FFFFFF;}
	.st1{fill:#34CF7C;}
</style>
<title>280-</title>
<g>
	<path class="st0" d="M161.1,35c-0.3,0-0.7-0.2-0.9-0.5c-0.3-0.5-0.1-1.1,0.4-1.3l2.3-1.3c0.5-0.3,1.1-0.1,1.3,0.4
		c0.3,0.5,0.1,1.1-0.4,1.3l-2.3,1.3C161.4,35,161.2,35,161.1,35z"/>
	<path class="st0" d="M166.9,31.7c-0.3,0-0.7-0.2-0.9-0.5c-0.3-0.5-0.1-1.1,0.4-1.3l2.3-1.3c0.5-0.3,1.1-0.1,1.3,0.4
		c0.3,0.5,0.1,1.1-0.4,1.3l-2.3,1.3C167.2,31.7,167,31.7,166.9,31.7z"/>
	<path class="st0" d="M167.4,36.7c-0.3,0-0.7-0.2-0.9-0.5l-1.3-2.3c-0.3-0.5-0.1-1.1,0.4-1.3c0.5-0.3,1.1-0.1,1.3,0.4l1.3,2.3
		c0.3,0.5,0.1,1.1-0.4,1.3C167.8,36.7,167.6,36.7,167.4,36.7z"/>
	<path class="st0" d="M164.1,31c-0.3,0-0.7-0.2-0.9-0.5l-1.3-2.3c-0.3-0.5-0.1-1.1,0.4-1.3c0.5-0.3,1.1-0.1,1.3,0.4l1.3,2.3
		c0.3,0.5,0.1,1.1-0.4,1.3C164.5,30.9,164.3,31,164.1,31z"/>
	<g>
		<path class="st0" d="M123.7,9.1c0,0-0.1,0-0.1,0l-2.6-0.3c-0.5-0.1-0.9-0.5-0.9-1.1c0.1-0.5,0.5-0.9,1.1-0.9l2.6,0.3
			c0.5,0.1,0.9,0.5,0.9,1.1C124.6,8.7,124.1,9.1,123.7,9.1z"/>
		<path class="st0" d="M125.8,7.4c0,0-0.1,0-0.1,0c-0.5-0.1-0.9-0.5-0.9-1.1l0.3-3c0.1-0.5,0.5-0.9,1.1-0.9c0.5,0.1,0.9,0.5,0.9,1.1
			l-0.3,3C126.7,7,126.3,7.4,125.8,7.4z"/>
		<path class="st0" d="M130.3,9.8c0,0-0.1,0-0.1,0l-2.6-0.3c-0.5-0.1-0.9-0.5-0.9-1.1c0.1-0.5,0.5-0.9,1.1-0.9l2.6,0.3
			c0.5,0.1,0.9,0.5,0.9,1.1C131.2,9.5,130.8,9.8,130.3,9.8z"/>
		<path class="st0" d="M125.1,13.9c0,0-0.1,0-0.1,0c-0.5-0.1-0.9-0.5-0.9-1.1l0.3-2.6c0.1-0.5,0.5-0.9,1.1-0.9
			c0.5,0.1,0.9,0.5,0.9,1.1l-0.3,2.6C126,13.6,125.6,13.9,125.1,13.9z"/>
	</g>
	<path class="st0" d="M140,86.6c-0.6,0-1.1,0-1.7,0c-9.6-0.5-16.9-5.3-21.1-13.9c-3.2-6.5-3.6-13-1.3-20.9c0.1-0.4,0.6-0.7,1-0.5
		c0.4,0.1,0.7,0.6,0.5,1c-2.2,7.5-1.8,13.6,1.2,19.8c4,8.2,10.6,12.5,19.8,13c6.9,0.2,12.1-1,16.4-4c6.3-4.3,9.4-10.2,9.3-17.4
		c-0.1-6.3-2.3-12-6.7-17.5c-0.3-0.3-0.2-0.8,0.1-1.1c0.3-0.3,0.8-0.2,1.1,0.1c4.6,5.6,7,11.8,7.1,18.5c0.1,7.8-3.2,14.1-10,18.8
		C151.5,85.2,146.5,86.6,140,86.6z"/>
	<path class="st0" d="M137.2,34.2c-0.3,0-0.7-0.2-0.8-0.6c-2.3-8.1,1.9-18.1,8.6-20.3c0.3-0.1,0.7,0,0.9,0.3
		c0.2,0.3,0.2,0.6,0.1,0.9c-0.2,0.4-5.7,10.4,2.3,18.3c0.3,0.3,0.3,0.8,0,1.1c-0.3,0.3-0.8,0.3-1.1,0c-6.6-6.6-4.8-14.6-3.4-18.2
		c-4.7,3-7.6,11-5.7,17.4c0.1,0.4-0.1,0.9-0.5,1C137.3,34.2,137.2,34.2,137.2,34.2z"/>
	<path class="st0" d="M161.7,42.3c-4.9-5.7-14.1-12.9-13-21.3c0.6-4.4,2.6-8.3,5.5-11.6c0.7-0.8,1.7-1.6,0.8-2.5
		c-0.5-0.5-2.2-0.3-2.8-0.3c-2.7,0.1-5.3,0.6-7.8,1.6c-3.8,1.5-7.4,3.9-9.9,7.2c-3,3.9-3.9,9-3.8,13.8c0.1,2.2,0.4,4.4,0.8,6.5
		c0.5,2.1,1.3,4.3,0.9,6.5c-0.3,1.8-1.7,3.4-3.6,3c-2.3-0.4-2.4-2.7-2.2-4.5c0.2-1.7,0.9-3.5,0.7-5.3c-0.2-1.9-1.3-2.7-3.2-2
		c-4.1,1.6-7.9,6.6-10.1,10.2c-2.6,4.3-3.9,9.4-4.4,14.4c-0.9,10.2,3.4,21,11.7,27.2c7.2,5.4,16.2,6.3,24.9,5.1
		c9.4-1.4,18.3-7.3,21.9-16.3C172.8,63.2,168.8,51,161.7,42.3z M167.4,72.9c-3.2,8.7-11.5,14.6-20.4,16.1
		c-8.9,1.5-18.5,0.5-25.6-5.5c-8.8-7.3-11.9-19.3-9.4-30.2c1.2-5.4,3.6-10,7.4-14c0.9-0.9,5.3-6.1,6.8-4.1c0.8,1-0.6,4.4-0.7,5.5
		c-0.3,2.2,0.2,4.8,2.5,5.7c2,0.8,4.3-0.2,5.4-2c1.4-2.4,0.5-5.5-0.1-8c-1.1-4.7-1.6-9.8-0.3-14.5c1.4-5,4.9-8.7,9.4-11.2
		c2.6-1.4,5.5-2.4,8.4-2.7c1-0.1,2.1-0.1,3.1-0.1c0,0,0,0,0,0c-4.3,4.3-7.8,11.6-5.9,17.7c2.2,7.1,8.3,12.1,12.9,17.6
		C167.4,51.4,171.2,62.6,167.4,72.9z"/>
	<circle class="st0" cx="155.9" cy="24.6" r="2.4"/>
	<circle class="st0" cx="126.5" cy="21" r="2.4"/>
	<circle class="st0" cx="136.3" cy="5" r="2.4"/>
	<g>
		<path class="st0" d="M124.9,58.1c1.5,0.2,4.8,0.6,6.9,0.9c1,0.1,2-0.6,2.1-1.7l0.1-0.4c0.1-1-0.6-2-1.6-2.1
			c-2.1-0.3-5.5-0.7-6.9-0.8c-1.1-0.1-2.1,0.7-2.2,1.8C123,56.9,123.8,57.9,124.9,58.1z"/>
		<path class="st0" d="M122.5,63.1c1.8,0.2,5.8,0.7,8.2,0.9c1,0.1,2-0.6,2.1-1.7l0-0.3c0.1-1-0.6-2-1.6-2.1c-2.3-0.3-6.3-0.8-8.2-1
			c-1-0.1-2,0.6-2.1,1.7l0,0.3C120.8,62.1,121.5,63,122.5,63.1z"/>
		<path class="st0" d="M130.1,69.7c1,0.1,2-0.6,2.1-1.7l0-0.4c0.1-1-0.6-2-1.7-2.1c-2.2-0.2-5.6-0.6-7.5-0.8c-1-0.1-2,0.6-2.1,1.7
			l0,0.4c-0.1,1,0.6,2,1.7,2.1C124.3,69,127.9,69.4,130.1,69.7z"/>
		<path class="st0" d="M130,70.8c-1.8-0.2-4.4-0.5-5.9-0.7c-1-0.1-2,0.6-2.1,1.7c-0.1,1,0.6,2,1.7,2.1c1.5,0.2,4.1,0.5,5.9,0.7
			c1,0.1,2-0.6,2.1-1.7C131.8,71.9,131,70.9,130,70.8z"/>
		<path class="st0" d="M147.6,71.5c-1.5-1.4-2.7-3.9-2.2-5.1l0.2-0.4c-1.9-2.1-2.8-4.8-1.9-6l0.3-0.4l0.4,0.3c1,0.7,2,1.3,2.5,1.3
			c0-0.1-0.1-0.3-0.2-0.5c-1.7-2.2-2.1-4.1-1.2-5.6c-0.5-1-1.1-2.2-2.3-3.4c-0.8-0.8-1.1-8.6-1.5-9.7c-0.2-0.6-2.8-1.2-3.7,1
			c-0.4,1.1-0.2,2.2,0,3.3c0.7,4-1,7.1-1.3,8.2c-0.5,1.6-0.7,2.5,0,4.6c0.5,1.6,2.1,3.4,3.7,4.2c0.8,0.4,1.4,0.8,1.2,1.1
			c-0.3,0.3-2.6-0.8-3.3-1.5c-1.1-1.2-1.9-2.1-2.4-3.7c-0.3-1-1-0.5-1.6-0.2c-0.6,0.3-1.1,0.7-1.1,0.7l0.5,0.7
			c0.8,1.1,0.6,2.7-0.4,3.6l-0.7,0.6l-0.1,0.5l0.5,0.8c0.7,1.2,0.5,2.7-0.5,3.6l-0.5,0.5l-0.1,0.5l0.3,0.5c0.8,1.1,0.7,2.7-0.3,3.7
			h0c0,0,2,0.2,2.1,0.2c6.3,0.2,9.7-3.1,10.1-3.1c0.6,0,1.6,0.1,2.6,0.2C146.8,72,147.2,71.7,147.6,71.5z"/>
		<path class="st0" d="M159.5,58.2c-2.4-2.5-4-4.8-4-4.8c-0.5,0.4-0.9,1.4,0,3.3c-2.6-2.5-3.6-4-3.6-4c-0.6,0.4-0.9,1.5-0.8,2.9
			c-1.9-1.5-3-3-3-3c-0.6,0.5-0.7,2.1-0.3,3.6C147.2,57,146,55,146,55c-1.4,1.6-0.6,3.6,0.9,5.5c1.4,2.8-2.9-0.2-2.9-0.2
			c-0.9,1.3,0.5,4.5,3,6.5c0.2,0.3,0.8,0.8,0.5,0.8c-0.3,0.1-1.7-1-1.7-1c-0.4,1.1,0.9,3.8,2.5,5c0,0,0,0.1,0,0.1
			c-2,0.9-3.6,2.9-3.2,3.7c0,0,1.6-0.6,3.9-1c-0.6,0.9-0.9,1.7-0.6,2.2c0,0,1.2-0.6,4.5-1.4c-1.6,1-1.4,1.7-1.1,2.1
			c0,0,2.3-0.9,5.4-1.8C161.9,69.4,160.8,62.7,159.5,58.2z"/>
	</g>
</g>
<g>
	<g>
		<path class="st1" d="M131.8,112.8h3.6c0.5,0,1,0,1.4,0.1c0.4,0.1,0.8,0.2,1.2,0.5c0.3,0.2,0.6,0.5,0.8,0.9
			c0.2,0.4,0.3,0.9,0.3,1.4c0,0.6-0.1,1-0.3,1.4c-0.2,0.4-0.4,0.7-0.8,0.9c-0.3,0.2-0.7,0.4-1.1,0.5c-0.4,0.1-0.9,0.1-1.4,0.1h-1.6
			v3.8h-2.1V112.8z M133.9,116.9h1.4c0.2,0,0.4,0,0.6-0.1c0.2,0,0.3-0.1,0.5-0.2c0.1-0.1,0.3-0.2,0.3-0.4c0.1-0.2,0.1-0.3,0.1-0.6
			c0-0.2-0.1-0.4-0.2-0.6c-0.1-0.2-0.3-0.3-0.4-0.3c-0.2-0.1-0.4-0.1-0.6-0.2c-0.2,0-0.4,0-0.6,0h-1.1V116.9z"/>
		<path class="st1" d="M140.4,112.8h3.8c0.5,0,1,0,1.4,0.1c0.4,0.1,0.8,0.3,1.2,0.5c0.3,0.2,0.6,0.5,0.8,0.9
			c0.2,0.4,0.3,0.9,0.3,1.4c0,0.7-0.2,1.3-0.5,1.7c-0.4,0.5-0.9,0.8-1.6,0.9l2.5,4.1h-2.6l-2-3.9h-1.1v3.9h-2.1V112.8z M142.6,116.8
			h1.3c0.2,0,0.4,0,0.6,0c0.2,0,0.4-0.1,0.6-0.1c0.2-0.1,0.3-0.2,0.4-0.3c0.1-0.1,0.2-0.4,0.2-0.6c0-0.2,0-0.4-0.2-0.6
			c-0.1-0.1-0.2-0.3-0.4-0.3c-0.2-0.1-0.3-0.1-0.5-0.2c-0.2,0-0.4,0-0.6,0h-1.4V116.8z"/>
	</g>
</g>
</svg>
